<?xml version="1.0" encoding="UTF-8" standalone="no"?>
<!DOCTYPE svg PUBLIC "-//W3C//DTD SVG 1.1//EN"
 "http://www.w3.org/Graphics/SVG/1.1/DTD/svg11.dtd">
<!-- Generated by graphviz version 14.1.5 (0)
 -->
<!-- Title: G Pages: 1 -->
<svg width="350pt" height="235pt"
 viewBox="0.00 0.00 350.00 235.00" xmlns="http://www.w3.org/2000/svg" xmlns:xlink="http://www.w3.org/1999/xlink">
<g id="graph0" class="graph" transform="scale(1 1) rotate(0) translate(18 217)">
<title>G</title>
<polygon fill="#ffffff" stroke="none" points="-18,18 -18,-217 332.38,-217 332.38,18 -18,18"/>
<!-- node0x7bdd5a7e3310 -->
<g id="node1" class="node">
<title>node0x7bdd5a7e3310</title>
<path fill="#a6e3a1" stroke="#101510" stroke-width="2.1" d="M196.88,-199C196.88,-199 128.88,-199 128.88,-199 122.88,-199 116.88,-193 116.88,-187 116.88,-187 116.88,-144 116.88,-144 116.88,-138 122.88,-132 128.88,-132 128.88,-132 196.88,-132 196.88,-132 202.88,-132 208.88,-138 208.88,-144 208.88,-144 208.88,-187 208.88,-187 208.88,-193 202.88,-199 196.88,-199"/>
<polygon fill="#101510" fill-opacity="0.203922" stroke="none" points="124.88,-165.5 124.88,-195 200.88,-195 200.88,-165.5 124.88,-165.5"/>
<polygon fill="none" stroke="#101510" points="124.88,-165.5 124.88,-195 200.88,-195 200.88,-165.5 124.88,-165.5"/>
<text xml:space="preserve" text-anchor="start" x="129.88" y="-177.7" font-family="monospace" font-weight="bold" font-size="14.00">type:</text>
<text xml:space="preserve" text-anchor="start" x="171.12" y="-177.7" font-family="monospace" font-size="14.00"> OP</text>
<polygon fill="#101510" fill-opacity="0.203922" stroke="none" points="124.88,-136 124.88,-165.5 200.88,-165.5 200.88,-136 124.88,-136"/>
<polygon fill="none" stroke="#101510" points="124.88,-136 124.88,-165.5 200.88,-165.5 200.88,-136 124.88,-136"/>
<text xml:space="preserve" text-anchor="start" x="129.88" y="-148.2" font-family="monospace" font-weight="bold" font-size="14.00">value:</text>
<text xml:space="preserve" text-anchor="start" x="179.38" y="-148.2" font-family="monospace" font-size="14.00"> +</text>
</g>
<!-- node0x7bdd5a7e3290 -->
<g id="node2" class="node">
<title>node0x7bdd5a7e3290</title>
<path fill="#6ca1f9" stroke="#101510" stroke-width="2.1" d="M137.75,-67C137.75,-67 12,-67 12,-67 6,-67 0,-61 0,-55 0,-55 0,-12 0,-12 0,-6 6,0 12,0 12,0 137.75,0 137.75,0 143.75,0 149.75,-6 149.75,-12 149.75,-12 149.75,-55 149.75,-55 149.75,-61 143.75,-67 137.75,-67"/>
<polygon fill="#101510" fill-opacity="0.203922" stroke="none" points="8,-33.5 8,-63 141.75,-63 141.75,-33.5 8,-33.5"/>
<polygon fill="none" stroke="#101510" points="8,-33.5 8,-63 141.75,-63 141.75,-33.5 8,-33.5"/>
<text xml:space="preserve" text-anchor="start" x="37.75" y="-45.7" font-family="monospace" font-weight="bold" font-size="14.00">type:</text>
<text xml:space="preserve" text-anchor="start" x="79" y="-45.7" font-family="monospace" font-size="14.00"> NUM</text>
<polygon fill="#101510" fill-opacity="0.203922" stroke="none" points="8,-4 8,-33.5 141.75,-33.5 141.75,-4 8,-4"/>
<polygon fill="none" stroke="#101510" points="8,-4 8,-33.5 141.75,-33.5 141.75,-4 8,-4"/>
<text xml:space="preserve" text-anchor="start" x="13" y="-16.2" font-family="monospace" font-weight="bold" font-size="14.00">value:</text>
<text xml:space="preserve" text-anchor="start" x="62.5" y="-16.2" font-family="monospace" font-size="14.00"> 1.000000</text>
</g>
<!-- node0x7bdd5a7e3310&#45;&gt;node0x7bdd5a7e3290 -->
<g id="edge1" class="edge">
<title>node0x7bdd5a7e3310&#45;&gt;node0x7bdd5a7e3290</title>
<path fill="none" stroke="#2222e0" stroke-width="2.5" d="M133.31,-120.12C133.31,-120.12 133.31,-78.71 133.31,-78.71"/>
<polygon fill="#2222e0" stroke="#2222e0" stroke-width="2.5" points="133.31,-128.12 129.71,-120.12 132.56,-127.16 132.56,-120.12 133.31,-120.12 134.06,-120.12 134.06,-127.16 136.91,-120.12 133.31,-128.12"/>
<polygon fill="#2222e0" stroke="#2222e0" stroke-width="2.5" points="133.31,-70.71 136.91,-78.71 134.06,-71.66 134.06,-78.71 133.31,-78.71 132.56,-78.71 132.56,-71.66 129.71,-78.71 133.31,-70.71"/>
</g>
<!-- node0x7bdd5a7e32d0 -->
<g id="node3" class="node">
<title>node0x7bdd5a7e32d0</title>
<path fill="#b581f4" stroke="#101510" stroke-width="2.1" d="M302.38,-67C302.38,-67 201.38,-67 201.38,-67 195.38,-67 189.38,-61 189.38,-55 189.38,-55 189.38,-12 189.38,-12 189.38,-6 195.38,0 201.38,0 201.38,0 302.38,0 302.38,0 308.38,0 314.38,-6 314.38,-12 314.38,-12 314.38,-55 314.38,-55 314.38,-61 308.38,-67 302.38,-67"/>
<polygon fill="#101510" fill-opacity="0.203922" stroke="none" points="197.38,-33.5 197.38,-63 306.38,-63 306.38,-33.5 197.38,-33.5"/>
<polygon fill="none" stroke="#101510" points="197.38,-33.5 197.38,-63 306.38,-63 306.38,-33.5 197.38,-33.5"/>
<text xml:space="preserve" text-anchor="start" x="206.5" y="-45.7" font-family="monospace" font-weight="bold" font-size="14.00">type:</text>
<text xml:space="preserve" text-anchor="start" x="247.75" y="-45.7" font-family="monospace" font-size="14.00"> IDENT</text>
<polygon fill="#101510" fill-opacity="0.203922" stroke="none" points="197.38,-4 197.38,-33.5 306.38,-33.5 306.38,-4 197.38,-4"/>
<polygon fill="none" stroke="#101510" points="197.38,-4 197.38,-33.5 306.38,-33.5 306.38,-4 197.38,-4"/>
<text xml:space="preserve" text-anchor="start" x="202.38" y="-16.2" font-family="monospace" font-weight="bold" font-size="14.00">value:</text>
<text xml:space="preserve" text-anchor="start" x="251.88" y="-16.2" font-family="monospace" font-size="14.00"> apple</text>
</g>
<!-- node0x7bdd5a7e3310&#45;&gt;node0x7bdd5a7e32d0 -->
<g id="edge2" class="edge">
<title>node0x7bdd5a7e3310&#45;&gt;node0x7bdd5a7e32d0</title>
<path fill="none" stroke="#2222e0" stroke-width="2.5" d="M199.12,-120.12C199.12,-120.12 199.12,-78.71 199.12,-78.71"/>
<polygon fill="#2222e0" stroke="#2222e0" stroke-width="2.5" points="199.13,-128.12 195.53,-120.12 198.38,-127.16 198.38,-120.12 199.13,-120.12 199.88,-120.12 199.88,-127.16 202.73,-120.12 199.13,-128.12"/>
<polygon fill="#2222e0" stroke="#2222e0" stroke-width="2.5" points="199.13,-70.71 202.73,-78.71 199.88,-71.66 199.88,-78.71 199.13,-78.71 198.38,-78.71 198.38,-71.66 195.53,-78.71 199.13,-70.71"/>
</g>
</g>
</svg>
