<?xml version="1.0" encoding="UTF-8" standalone="no"?>
<!DOCTYPE svg PUBLIC "-//W3C//DTD SVG 1.1//EN"
 "http://www.w3.org/Graphics/SVG/1.1/DTD/svg11.dtd">
<!-- Generated by graphviz version 14.1.5 (0)
 -->
<!-- Title: G Pages: 1 -->
<svg width="145pt" height="103pt"
 viewBox="0.00 0.00 145.00 103.00" xmlns="http://www.w3.org/2000/svg" xmlns:xlink="http://www.w3.org/1999/xlink">
<g id="graph0" class="graph" transform="scale(1 1) rotate(0) translate(18 85)">
<title>G</title>
<polygon fill="#ffffff" stroke="none" points="-18,18 -18,-85 126.5,-85 126.5,18 -18,18"/>
<!-- node0x7b3d81be3290 -->
<g id="node1" class="node">
<title>node0x7b3d81be3290</title>
<path fill="#f9e2af" stroke="#101510" stroke-width="2.1" d="M96.5,-67C96.5,-67 12,-67 12,-67 6,-67 0,-61 0,-55 0,-55 0,-12 0,-12 0,-6 6,0 12,0 12,0 96.5,0 96.5,0 102.5,0 108.5,-6 108.5,-12 108.5,-12 108.5,-55 108.5,-55 108.5,-61 102.5,-67 96.5,-67"/>
<polygon fill="#101510" fill-opacity="0.203922" stroke="none" points="8,-33.5 8,-63 100.5,-63 100.5,-33.5 8,-33.5"/>
<polygon fill="none" stroke="#101510" points="8,-33.5 8,-63 100.5,-63 100.5,-33.5 8,-33.5"/>
<text xml:space="preserve" text-anchor="start" x="13" y="-45.7" font-family="monospace" font-weight="bold" font-size="14.00">type:</text>
<text xml:space="preserve" text-anchor="start" x="54.25" y="-45.7" font-family="monospace" font-size="14.00"> CTRL</text>
<polygon fill="#101510" fill-opacity="0.203922" stroke="none" points="8,-4 8,-33.5 100.5,-33.5 100.5,-4 8,-4"/>
<polygon fill="none" stroke="#101510" points="8,-4 8,-33.5 100.5,-33.5 100.5,-4 8,-4"/>
<text xml:space="preserve" text-anchor="start" x="21.25" y="-16.2" font-family="monospace" font-weight="bold" font-size="14.00">value:</text>
<text xml:space="preserve" text-anchor="start" x="70.75" y="-16.2" font-family="monospace" font-size="14.00"> ;</text>
</g>
</g>
</svg>
