<?xml version="1.0" encoding="UTF-8" standalone="no"?>
<!DOCTYPE svg PUBLIC "-//W3C//DTD SVG 1.1//EN"
 "http://www.w3.org/Graphics/SVG/1.1/DTD/svg11.dtd">
<!-- Generated by graphviz version 14.1.5 (0)
 -->
<!-- Title: G Pages: 1 -->
<svg width="686pt" height="631pt"
 viewBox="0.00 0.00 686.00 631.00" xmlns="http://www.w3.org/2000/svg" xmlns:xlink="http://www.w3.org/1999/xlink">
<g id="graph0" class="graph" transform="scale(1 1) rotate(0) translate(18 613)">
<title>G</title>
<polygon fill="#ffffff" stroke="none" points="-18,18 -18,-613 667.75,-613 667.75,18 -18,18"/>
<!-- node0x7c08b21e28a0 -->
<g id="node1" class="node">
<title>node0x7c08b21e28a0</title>
<path fill="#f9e2af" stroke="#101510" stroke-width="2.1" d="M250.62,-595C250.62,-595 174.38,-595 174.38,-595 168.38,-595 162.38,-589 162.38,-583 162.38,-583 162.38,-540 162.38,-540 162.38,-534 168.38,-528 174.38,-528 174.38,-528 250.62,-528 250.62,-528 256.62,-528 262.62,-534 262.62,-540 262.62,-540 262.62,-583 262.62,-583 262.62,-589 256.62,-595 250.62,-595"/>
<polygon fill="#101510" fill-opacity="0.203922" stroke="none" points="170.38,-561.5 170.38,-591 254.62,-591 254.62,-561.5 170.38,-561.5"/>
<polygon fill="none" stroke="#101510" points="170.38,-561.5 170.38,-591 254.62,-591 254.62,-561.5 170.38,-561.5"/>
<text xml:space="preserve" text-anchor="start" x="175.38" y="-573.7" font-family="monospace" font-weight="bold" font-size="14.00">type:</text>
<text xml:space="preserve" text-anchor="start" x="216.62" y="-573.7" font-family="monospace" font-size="14.00">CTRL</text>
<polygon fill="#101510" fill-opacity="0.203922" stroke="none" points="170.38,-532 170.38,-561.5 254.62,-561.5 254.62,-532 170.38,-532"/>
<polygon fill="none" stroke="#101510" points="170.38,-532 170.38,-561.5 254.62,-561.5 254.62,-532 170.38,-532"/>
<text xml:space="preserve" text-anchor="start" x="175.38" y="-544.2" font-family="monospace" font-weight="bold" font-size="14.00">value:</text>
<text xml:space="preserve" text-anchor="start" x="224.88" y="-544.2" font-family="monospace" font-size="14.00"> if</text>
</g>
<!-- node0x7c08b21e2780 -->
<g id="node2" class="node">
<title>node0x7c08b21e2780</title>
<path fill="#a6e3a1" stroke="#101510" stroke-width="2.1" d="M182.75,-463C182.75,-463 98.25,-463 98.25,-463 92.25,-463 86.25,-457 86.25,-451 86.25,-451 86.25,-408 86.25,-408 86.25,-402 92.25,-396 98.25,-396 98.25,-396 182.75,-396 182.75,-396 188.75,-396 194.75,-402 194.75,-408 194.75,-408 194.75,-451 194.75,-451 194.75,-457 188.75,-463 182.75,-463"/>
<polygon fill="#101510" fill-opacity="0.203922" stroke="none" points="94.25,-429.5 94.25,-459 186.75,-459 186.75,-429.5 94.25,-429.5"/>
<polygon fill="none" stroke="#101510" points="94.25,-429.5 94.25,-459 186.75,-459 186.75,-429.5 94.25,-429.5"/>
<text xml:space="preserve" text-anchor="start" x="111.62" y="-441.7" font-family="monospace" font-weight="bold" font-size="14.00">type:</text>
<text xml:space="preserve" text-anchor="start" x="152.88" y="-441.7" font-family="monospace" font-size="14.00">OP</text>
<polygon fill="#101510" fill-opacity="0.203922" stroke="none" points="94.25,-400 94.25,-429.5 186.75,-429.5 186.75,-400 94.25,-400"/>
<polygon fill="none" stroke="#101510" points="94.25,-400 94.25,-429.5 186.75,-429.5 186.75,-400 94.25,-400"/>
<text xml:space="preserve" text-anchor="start" x="99.25" y="-412.2" font-family="monospace" font-weight="bold" font-size="14.00">value:</text>
<text xml:space="preserve" text-anchor="start" x="148.75" y="-412.2" font-family="monospace" font-size="14.00"> and</text>
</g>
<!-- node0x7c08b21e28a0&#45;&gt;node0x7c08b21e2780 -->
<g id="edge1" class="edge">
<title>node0x7c08b21e28a0&#45;&gt;node0x7c08b21e2780</title>
<path fill="none" stroke="#2222e0" stroke-width="2.5" d="M178.56,-516.12C178.56,-516.12 178.56,-474.71 178.56,-474.71"/>
<polygon fill="#2222e0" stroke="#2222e0" stroke-width="2.5" points="178.56,-524.12 174.96,-516.12 177.81,-523.16 177.81,-516.12 178.56,-516.12 179.31,-516.12 179.31,-523.16 182.16,-516.12 178.56,-524.12"/>
<polygon fill="#2222e0" stroke="#2222e0" stroke-width="2.5" points="178.56,-466.71 182.16,-474.71 179.31,-467.66 179.31,-474.71 178.56,-474.71 177.81,-474.71 177.81,-467.66 174.96,-474.71 178.56,-466.71"/>
</g>
<!-- node0x7c08b21e2840 -->
<g id="node5" class="node">
<title>node0x7c08b21e2840</title>
<path fill="#f9e2af" stroke="#101510" stroke-width="2.1" d="M364.62,-463C364.62,-463 288.38,-463 288.38,-463 282.38,-463 276.38,-457 276.38,-451 276.38,-451 276.38,-408 276.38,-408 276.38,-402 282.38,-396 288.38,-396 288.38,-396 364.62,-396 364.62,-396 370.62,-396 376.62,-402 376.62,-408 376.62,-408 376.62,-451 376.62,-451 376.62,-457 370.62,-463 364.62,-463"/>
<polygon fill="#101510" fill-opacity="0.203922" stroke="none" points="284.38,-429.5 284.38,-459 368.62,-459 368.62,-429.5 284.38,-429.5"/>
<polygon fill="none" stroke="#101510" points="284.38,-429.5 284.38,-459 368.62,-459 368.62,-429.5 284.38,-429.5"/>
<text xml:space="preserve" text-anchor="start" x="289.38" y="-441.7" font-family="monospace" font-weight="bold" font-size="14.00">type:</text>
<text xml:space="preserve" text-anchor="start" x="330.62" y="-441.7" font-family="monospace" font-size="14.00">CTRL</text>
<polygon fill="#101510" fill-opacity="0.203922" stroke="none" points="284.38,-400 284.38,-429.5 368.62,-429.5 368.62,-400 284.38,-400"/>
<polygon fill="none" stroke="#101510" points="284.38,-400 284.38,-429.5 368.62,-429.5 368.62,-400 284.38,-400"/>
<text xml:space="preserve" text-anchor="start" x="293.5" y="-412.2" font-family="monospace" font-weight="bold" font-size="14.00">value:</text>
<text xml:space="preserve" text-anchor="start" x="343" y="-412.2" font-family="monospace" font-size="14.00"> ;</text>
</g>
<!-- node0x7c08b21e28a0&#45;&gt;node0x7c08b21e2840 -->
<g id="edge4" class="edge">
<title>node0x7c08b21e28a0&#45;&gt;node0x7c08b21e2840</title>
<path fill="none" stroke="#2222e0" stroke-width="2.5" d="M228.69,-516.25C228.69,-516.25 228.69,-430 228.69,-430 228.69,-430 264.54,-430 264.54,-430"/>
<polygon fill="#2222e0" stroke="#2222e0" stroke-width="2.5" points="228.69,-524.25 225.09,-516.25 227.94,-523.29 227.94,-516.25 228.69,-516.25 229.44,-516.25 229.44,-523.29 232.29,-516.25 228.69,-524.25"/>
<polygon fill="#2222e0" stroke="#2222e0" stroke-width="2.5" points="272.54,-430 264.54,-433.6 271.59,-430.75 264.54,-430.75 264.54,-430 264.54,-429.25 271.59,-429.25 264.54,-426.4 272.54,-430"/>
</g>
<!-- node0x7c08b21e26c0 -->
<g id="node3" class="node">
<title>node0x7c08b21e26c0</title>
<path fill="#b581f4" stroke="#101510" stroke-width="2.1" d="M113,-331C113,-331 12,-331 12,-331 6,-331 0,-325 0,-319 0,-319 0,-276 0,-276 0,-270 6,-264 12,-264 12,-264 113,-264 113,-264 119,-264 125,-270 125,-276 125,-276 125,-319 125,-319 125,-325 119,-331 113,-331"/>
<polygon fill="#101510" fill-opacity="0.203922" stroke="none" points="8,-297.5 8,-327 117,-327 117,-297.5 8,-297.5"/>
<polygon fill="none" stroke="#101510" points="8,-297.5 8,-327 117,-327 117,-297.5 8,-297.5"/>
<text xml:space="preserve" text-anchor="start" x="21.25" y="-309.7" font-family="monospace" font-weight="bold" font-size="14.00">type:</text>
<text xml:space="preserve" text-anchor="start" x="62.5" y="-309.7" font-family="monospace" font-size="14.00">IDENT</text>
<polygon fill="#101510" fill-opacity="0.203922" stroke="none" points="8,-268 8,-297.5 117,-297.5 117,-268 8,-268"/>
<polygon fill="none" stroke="#101510" points="8,-268 8,-297.5 117,-297.5 117,-268 8,-268"/>
<text xml:space="preserve" text-anchor="start" x="13" y="-280.2" font-family="monospace" font-weight="bold" font-size="14.00">value:</text>
<text xml:space="preserve" text-anchor="start" x="62.5" y="-280.2" font-family="monospace" font-size="14.00"> apple</text>
</g>
<!-- node0x7c08b21e2780&#45;&gt;node0x7c08b21e26c0 -->
<g id="edge2" class="edge">
<title>node0x7c08b21e2780&#45;&gt;node0x7c08b21e26c0</title>
<path fill="none" stroke="#2222e0" stroke-width="2.5" d="M105.62,-384.12C105.62,-384.12 105.62,-342.71 105.62,-342.71"/>
<polygon fill="#2222e0" stroke="#2222e0" stroke-width="2.5" points="105.63,-392.12 102.03,-384.12 104.88,-391.16 104.88,-384.12 105.63,-384.12 106.38,-384.12 106.38,-391.16 109.23,-384.12 105.63,-392.12"/>
<polygon fill="#2222e0" stroke="#2222e0" stroke-width="2.5" points="105.63,-334.71 109.23,-342.71 106.38,-335.66 106.38,-342.71 105.63,-342.71 104.88,-342.71 104.88,-335.66 102.03,-342.71 105.63,-334.71"/>
</g>
<!-- node0x7c08b21e2720 -->
<g id="node4" class="node">
<title>node0x7c08b21e2720</title>
<path fill="#b581f4" stroke="#101510" stroke-width="2.1" d="M261.75,-331C261.75,-331 177.25,-331 177.25,-331 171.25,-331 165.25,-325 165.25,-319 165.25,-319 165.25,-276 165.25,-276 165.25,-270 171.25,-264 177.25,-264 177.25,-264 261.75,-264 261.75,-264 267.75,-264 273.75,-270 273.75,-276 273.75,-276 273.75,-319 273.75,-319 273.75,-325 267.75,-331 261.75,-331"/>
<polygon fill="#101510" fill-opacity="0.203922" stroke="none" points="173.25,-297.5 173.25,-327 265.75,-327 265.75,-297.5 173.25,-297.5"/>
<polygon fill="none" stroke="#101510" points="173.25,-297.5 173.25,-327 265.75,-327 265.75,-297.5 173.25,-297.5"/>
<text xml:space="preserve" text-anchor="start" x="178.25" y="-309.7" font-family="monospace" font-weight="bold" font-size="14.00">type:</text>
<text xml:space="preserve" text-anchor="start" x="219.5" y="-309.7" font-family="monospace" font-size="14.00">IDENT</text>
<polygon fill="#101510" fill-opacity="0.203922" stroke="none" points="173.25,-268 173.25,-297.5 265.75,-297.5 265.75,-268 173.25,-268"/>
<polygon fill="none" stroke="#101510" points="173.25,-268 173.25,-297.5 265.75,-297.5 265.75,-268 173.25,-268"/>
<text xml:space="preserve" text-anchor="start" x="178.25" y="-280.2" font-family="monospace" font-weight="bold" font-size="14.00">value:</text>
<text xml:space="preserve" text-anchor="start" x="227.75" y="-280.2" font-family="monospace" font-size="14.00"> dog</text>
</g>
<!-- node0x7c08b21e2780&#45;&gt;node0x7c08b21e2720 -->
<g id="edge3" class="edge">
<title>node0x7c08b21e2780&#45;&gt;node0x7c08b21e2720</title>
<path fill="none" stroke="#2222e0" stroke-width="2.5" d="M180,-384.12C180,-384.12 180,-342.71 180,-342.71"/>
<polygon fill="#2222e0" stroke="#2222e0" stroke-width="2.5" points="180,-392.12 176.4,-384.12 179.25,-391.16 179.25,-384.12 180,-384.12 180.75,-384.12 180.75,-391.16 183.6,-384.12 180,-392.12"/>
<polygon fill="#2222e0" stroke="#2222e0" stroke-width="2.5" points="180,-334.71 183.6,-342.71 180.75,-335.66 180.75,-342.71 180,-342.71 179.25,-342.71 179.25,-335.66 176.4,-342.71 180,-334.71"/>
</g>
<!-- node0x7c08b21e27e0 -->
<g id="node6" class="node">
<title>node0x7c08b21e27e0</title>
<path fill="#b581f4" stroke="#101510" stroke-width="2.1" d="M410.75,-331C410.75,-331 326.25,-331 326.25,-331 320.25,-331 314.25,-325 314.25,-319 314.25,-319 314.25,-276 314.25,-276 314.25,-270 320.25,-264 326.25,-264 326.25,-264 410.75,-264 410.75,-264 416.75,-264 422.75,-270 422.75,-276 422.75,-276 422.75,-319 422.75,-319 422.75,-325 416.75,-331 410.75,-331"/>
<polygon fill="#101510" fill-opacity="0.203922" stroke="none" points="322.25,-297.5 322.25,-327 414.75,-327 414.75,-297.5 322.25,-297.5"/>
<polygon fill="none" stroke="#101510" points="322.25,-297.5 322.25,-327 414.75,-327 414.75,-297.5 322.25,-297.5"/>
<text xml:space="preserve" text-anchor="start" x="327.25" y="-309.7" font-family="monospace" font-weight="bold" font-size="14.00">type:</text>
<text xml:space="preserve" text-anchor="start" x="368.5" y="-309.7" font-family="monospace" font-size="14.00">IDENT</text>
<polygon fill="#101510" fill-opacity="0.203922" stroke="none" points="322.25,-268 322.25,-297.5 414.75,-297.5 414.75,-268 322.25,-268"/>
<polygon fill="none" stroke="#101510" points="322.25,-268 322.25,-297.5 414.75,-297.5 414.75,-268 322.25,-268"/>
<text xml:space="preserve" text-anchor="start" x="327.25" y="-280.2" font-family="monospace" font-weight="bold" font-size="14.00">value:</text>
<text xml:space="preserve" text-anchor="start" x="376.75" y="-280.2" font-family="monospace" font-size="14.00"> foo</text>
</g>
<!-- node0x7c08b21e2840&#45;&gt;node0x7c08b21e27e0 -->
<g id="edge5" class="edge">
<title>node0x7c08b21e2840&#45;&gt;node0x7c08b21e27e0</title>
<path fill="none" stroke="#2222e0" stroke-width="2.5" d="M345.44,-384.12C345.44,-384.12 345.44,-342.71 345.44,-342.71"/>
<polygon fill="#2222e0" stroke="#2222e0" stroke-width="2.5" points="345.44,-392.12 341.84,-384.12 344.69,-391.16 344.69,-384.12 345.44,-384.12 346.19,-384.12 346.19,-391.16 349.04,-384.12 345.44,-392.12"/>
<polygon fill="#2222e0" stroke="#2222e0" stroke-width="2.5" points="345.44,-334.71 349.04,-342.71 346.19,-335.66 346.19,-342.71 345.44,-342.71 344.69,-342.71 344.69,-335.66 341.84,-342.71 345.44,-334.71"/>
</g>
<!-- node0x7c08b21e29c0 -->
<g id="node7" class="node">
<title>node0x7c08b21e29c0</title>
<path fill="#f9e2af" stroke="#101510" stroke-width="2.1" d="M567.88,-331C567.88,-331 475.12,-331 475.12,-331 469.12,-331 463.12,-325 463.12,-319 463.12,-319 463.12,-276 463.12,-276 463.12,-270 469.12,-264 475.12,-264 475.12,-264 567.88,-264 567.88,-264 573.88,-264 579.88,-270 579.88,-276 579.88,-276 579.88,-319 579.88,-319 579.88,-325 573.88,-331 567.88,-331"/>
<polygon fill="#101510" fill-opacity="0.203922" stroke="none" points="471.12,-297.5 471.12,-327 571.88,-327 571.88,-297.5 471.12,-297.5"/>
<polygon fill="none" stroke="#101510" points="471.12,-297.5 471.12,-327 571.88,-327 571.88,-297.5 471.12,-297.5"/>
<text xml:space="preserve" text-anchor="start" x="484.38" y="-309.7" font-family="monospace" font-weight="bold" font-size="14.00">type:</text>
<text xml:space="preserve" text-anchor="start" x="525.62" y="-309.7" font-family="monospace" font-size="14.00">CTRL</text>
<polygon fill="#101510" fill-opacity="0.203922" stroke="none" points="471.12,-268 471.12,-297.5 571.88,-297.5 571.88,-268 471.12,-268"/>
<polygon fill="none" stroke="#101510" points="471.12,-268 471.12,-297.5 571.88,-297.5 571.88,-268 471.12,-268"/>
<text xml:space="preserve" text-anchor="start" x="476.12" y="-280.2" font-family="monospace" font-weight="bold" font-size="14.00">value:</text>
<text xml:space="preserve" text-anchor="start" x="525.62" y="-280.2" font-family="monospace" font-size="14.00"> else</text>
</g>
<!-- node0x7c08b21e2840&#45;&gt;node0x7c08b21e29c0 -->
<g id="edge6" class="edge">
<title>node0x7c08b21e2840&#45;&gt;node0x7c08b21e29c0</title>
<path fill="none" stroke="#2222e0" stroke-width="2.5" d="M388.53,-430C388.53,-430 521.5,-430 521.5,-430 521.5,-430 521.5,-343.01 521.5,-343.01"/>
<polygon fill="#2222e0" stroke="#2222e0" stroke-width="2.5" points="380.53,-430 388.53,-426.4 381.48,-429.25 388.53,-429.25 388.53,-430 388.53,-430.75 381.48,-430.75 388.53,-433.6 380.53,-430"/>
<polygon fill="#2222e0" stroke="#2222e0" stroke-width="2.5" points="521.5,-335.01 525.1,-343.01 522.25,-335.97 522.25,-343.01 521.5,-343.01 520.75,-343.01 520.75,-335.97 517.9,-343.01 521.5,-335.01"/>
</g>
<!-- node0x7c08b21e2960 -->
<g id="node8" class="node">
<title>node0x7c08b21e2960</title>
<path fill="#f9e2af" stroke="#101510" stroke-width="2.1" d="M488.62,-199C488.62,-199 412.38,-199 412.38,-199 406.38,-199 400.38,-193 400.38,-187 400.38,-187 400.38,-144 400.38,-144 400.38,-138 406.38,-132 412.38,-132 412.38,-132 488.62,-132 488.62,-132 494.62,-132 500.62,-138 500.62,-144 500.62,-144 500.62,-187 500.62,-187 500.62,-193 494.62,-199 488.62,-199"/>
<polygon fill="#101510" fill-opacity="0.203922" stroke="none" points="408.38,-165.5 408.38,-195 492.62,-195 492.62,-165.5 408.38,-165.5"/>
<polygon fill="none" stroke="#101510" points="408.38,-165.5 408.38,-195 492.62,-195 492.62,-165.5 408.38,-165.5"/>
<text xml:space="preserve" text-anchor="start" x="413.38" y="-177.7" font-family="monospace" font-weight="bold" font-size="14.00">type:</text>
<text xml:space="preserve" text-anchor="start" x="454.62" y="-177.7" font-family="monospace" font-size="14.00">CTRL</text>
<polygon fill="#101510" fill-opacity="0.203922" stroke="none" points="408.38,-136 408.38,-165.5 492.62,-165.5 492.62,-136 408.38,-136"/>
<polygon fill="none" stroke="#101510" points="408.38,-136 408.38,-165.5 492.62,-165.5 492.62,-136 408.38,-136"/>
<text xml:space="preserve" text-anchor="start" x="417.5" y="-148.2" font-family="monospace" font-weight="bold" font-size="14.00">value:</text>
<text xml:space="preserve" text-anchor="start" x="467" y="-148.2" font-family="monospace" font-size="14.00"> ;</text>
</g>
<!-- node0x7c08b21e29c0&#45;&gt;node0x7c08b21e2960 -->
<g id="edge7" class="edge">
<title>node0x7c08b21e29c0&#45;&gt;node0x7c08b21e2960</title>
<path fill="none" stroke="#2222e0" stroke-width="2.5" d="M481.88,-252.12C481.88,-252.12 481.88,-210.71 481.88,-210.71"/>
<polygon fill="#2222e0" stroke="#2222e0" stroke-width="2.5" points="481.88,-260.12 478.28,-252.12 481.13,-259.16 481.13,-252.12 481.88,-252.12 482.63,-252.12 482.63,-259.16 485.48,-252.12 481.88,-260.12"/>
<polygon fill="#2222e0" stroke="#2222e0" stroke-width="2.5" points="481.88,-202.71 485.48,-210.71 482.63,-203.66 482.63,-210.71 481.88,-210.71 481.13,-210.71 481.13,-203.66 478.28,-210.71 481.88,-202.71"/>
</g>
<!-- node0x7c08b21e2a80 -->
<g id="node10" class="node">
<title>node0x7c08b21e2a80</title>
<path fill="#f9e2af" stroke="#101510" stroke-width="2.1" d="M630.62,-199C630.62,-199 554.38,-199 554.38,-199 548.38,-199 542.38,-193 542.38,-187 542.38,-187 542.38,-144 542.38,-144 542.38,-138 548.38,-132 554.38,-132 554.38,-132 630.62,-132 630.62,-132 636.62,-132 642.62,-138 642.62,-144 642.62,-144 642.62,-187 642.62,-187 642.62,-193 636.62,-199 630.62,-199"/>
<polygon fill="#101510" fill-opacity="0.203922" stroke="none" points="550.38,-165.5 550.38,-195 634.62,-195 634.62,-165.5 550.38,-165.5"/>
<polygon fill="none" stroke="#101510" points="550.38,-165.5 550.38,-195 634.62,-195 634.62,-165.5 550.38,-165.5"/>
<text xml:space="preserve" text-anchor="start" x="555.38" y="-177.7" font-family="monospace" font-weight="bold" font-size="14.00">type:</text>
<text xml:space="preserve" text-anchor="start" x="596.62" y="-177.7" font-family="monospace" font-size="14.00">CTRL</text>
<polygon fill="#101510" fill-opacity="0.203922" stroke="none" points="550.38,-136 550.38,-165.5 634.62,-165.5 634.62,-136 550.38,-136"/>
<polygon fill="none" stroke="#101510" points="550.38,-136 550.38,-165.5 634.62,-165.5 634.62,-136 550.38,-136"/>
<text xml:space="preserve" text-anchor="start" x="559.5" y="-148.2" font-family="monospace" font-weight="bold" font-size="14.00">value:</text>
<text xml:space="preserve" text-anchor="start" x="609" y="-148.2" font-family="monospace" font-size="14.00"> ;</text>
</g>
<!-- node0x7c08b21e29c0&#45;&gt;node0x7c08b21e2a80 -->
<g id="edge9" class="edge">
<title>node0x7c08b21e29c0&#45;&gt;node0x7c08b21e2a80</title>
<path fill="none" stroke="#2222e0" stroke-width="2.5" d="M561.12,-252.12C561.12,-252.12 561.12,-210.71 561.12,-210.71"/>
<polygon fill="#2222e0" stroke="#2222e0" stroke-width="2.5" points="561.13,-260.12 557.53,-252.12 560.38,-259.16 560.38,-252.12 561.13,-252.12 561.88,-252.12 561.88,-259.16 564.73,-252.12 561.13,-260.12"/>
<polygon fill="#2222e0" stroke="#2222e0" stroke-width="2.5" points="561.13,-202.71 564.73,-210.71 561.88,-203.66 561.88,-210.71 561.13,-210.71 560.38,-210.71 560.38,-203.66 557.53,-210.71 561.13,-202.71"/>
</g>
<!-- node0x7c08b21e2900 -->
<g id="node9" class="node">
<title>node0x7c08b21e2900</title>
<path fill="#b581f4" stroke="#101510" stroke-width="2.1" d="M488.75,-67C488.75,-67 404.25,-67 404.25,-67 398.25,-67 392.25,-61 392.25,-55 392.25,-55 392.25,-12 392.25,-12 392.25,-6 398.25,0 404.25,0 404.25,0 488.75,0 488.75,0 494.75,0 500.75,-6 500.75,-12 500.75,-12 500.75,-55 500.75,-55 500.75,-61 494.75,-67 488.75,-67"/>
<polygon fill="#101510" fill-opacity="0.203922" stroke="none" points="400.25,-33.5 400.25,-63 492.75,-63 492.75,-33.5 400.25,-33.5"/>
<polygon fill="none" stroke="#101510" points="400.25,-33.5 400.25,-63 492.75,-63 492.75,-33.5 400.25,-33.5"/>
<text xml:space="preserve" text-anchor="start" x="405.25" y="-45.7" font-family="monospace" font-weight="bold" font-size="14.00">type:</text>
<text xml:space="preserve" text-anchor="start" x="446.5" y="-45.7" font-family="monospace" font-size="14.00">IDENT</text>
<polygon fill="#101510" fill-opacity="0.203922" stroke="none" points="400.25,-4 400.25,-33.5 492.75,-33.5 492.75,-4 400.25,-4"/>
<polygon fill="none" stroke="#101510" points="400.25,-4 400.25,-33.5 492.75,-33.5 492.75,-4 400.25,-4"/>
<text xml:space="preserve" text-anchor="start" x="405.25" y="-16.2" font-family="monospace" font-weight="bold" font-size="14.00">value:</text>
<text xml:space="preserve" text-anchor="start" x="454.75" y="-16.2" font-family="monospace" font-size="14.00"> bar</text>
</g>
<!-- node0x7c08b21e2960&#45;&gt;node0x7c08b21e2900 -->
<g id="edge8" class="edge">
<title>node0x7c08b21e2960&#45;&gt;node0x7c08b21e2900</title>
<path fill="none" stroke="#2222e0" stroke-width="2.5" d="M450.5,-120.12C450.5,-120.12 450.5,-78.71 450.5,-78.71"/>
<polygon fill="#2222e0" stroke="#2222e0" stroke-width="2.5" points="450.5,-128.12 446.9,-120.12 449.75,-127.16 449.75,-120.12 450.5,-120.12 451.25,-120.12 451.25,-127.16 454.1,-120.12 450.5,-128.12"/>
<polygon fill="#2222e0" stroke="#2222e0" stroke-width="2.5" points="450.5,-70.71 454.1,-78.71 451.25,-71.66 451.25,-78.71 450.5,-78.71 449.75,-78.71 449.75,-71.66 446.9,-78.71 450.5,-70.71"/>
</g>
<!-- node0x7c08b21e2a20 -->
<g id="node11" class="node">
<title>node0x7c08b21e2a20</title>
<path fill="#b581f4" stroke="#101510" stroke-width="2.1" d="M637.75,-67C637.75,-67 553.25,-67 553.25,-67 547.25,-67 541.25,-61 541.25,-55 541.25,-55 541.25,-12 541.25,-12 541.25,-6 547.25,0 553.25,0 553.25,0 637.75,0 637.75,0 643.75,0 649.75,-6 649.75,-12 649.75,-12 649.75,-55 649.75,-55 649.75,-61 643.75,-67 637.75,-67"/>
<polygon fill="#101510" fill-opacity="0.203922" stroke="none" points="549.25,-33.5 549.25,-63 641.75,-63 641.75,-33.5 549.25,-33.5"/>
<polygon fill="none" stroke="#101510" points="549.25,-33.5 549.25,-63 641.75,-63 641.75,-33.5 549.25,-33.5"/>
<text xml:space="preserve" text-anchor="start" x="554.25" y="-45.7" font-family="monospace" font-weight="bold" font-size="14.00">type:</text>
<text xml:space="preserve" text-anchor="start" x="595.5" y="-45.7" font-family="monospace" font-size="14.00">IDENT</text>
<polygon fill="#101510" fill-opacity="0.203922" stroke="none" points="549.25,-4 549.25,-33.5 641.75,-33.5 641.75,-4 549.25,-4"/>
<polygon fill="none" stroke="#101510" points="549.25,-4 549.25,-33.5 641.75,-33.5 641.75,-4 549.25,-4"/>
<text xml:space="preserve" text-anchor="start" x="554.25" y="-16.2" font-family="monospace" font-weight="bold" font-size="14.00">value:</text>
<text xml:space="preserve" text-anchor="start" x="603.75" y="-16.2" font-family="monospace" font-size="14.00"> baz</text>
</g>
<!-- node0x7c08b21e2a80&#45;&gt;node0x7c08b21e2a20 -->
<g id="edge10" class="edge">
<title>node0x7c08b21e2a80&#45;&gt;node0x7c08b21e2a20</title>
<path fill="none" stroke="#2222e0" stroke-width="2.5" d="M592.5,-120.12C592.5,-120.12 592.5,-78.71 592.5,-78.71"/>
<polygon fill="#2222e0" stroke="#2222e0" stroke-width="2.5" points="592.5,-128.12 588.9,-120.12 591.75,-127.16 591.75,-120.12 592.5,-120.12 593.25,-120.12 593.25,-127.16 596.1,-120.12 592.5,-128.12"/>
<polygon fill="#2222e0" stroke="#2222e0" stroke-width="2.5" points="592.5,-70.71 596.1,-78.71 593.25,-71.66 593.25,-78.71 592.5,-78.71 591.75,-78.71 591.75,-71.66 588.9,-78.71 592.5,-70.71"/>
</g>
</g>
</svg>
