<?xml version="1.0" encoding="UTF-8" standalone="no"?>
<!DOCTYPE svg PUBLIC "-//W3C//DTD SVG 1.1//EN"
 "http://www.w3.org/Graphics/SVG/1.1/DTD/svg11.dtd">
<!-- Generated by graphviz version 14.1.5 (0)
 -->
<!-- Title: G Pages: 1 -->
<svg width="709pt" height="763pt"
 viewBox="0.00 0.00 709.00 763.00" xmlns="http://www.w3.org/2000/svg" xmlns:xlink="http://www.w3.org/1999/xlink">
<g id="graph0" class="graph" transform="scale(1 1) rotate(0) translate(18 745)">
<title>G</title>
<polygon fill="#ffffff" stroke="none" points="-18,18 -18,-745 690.88,-745 690.88,18 -18,18"/>
<!-- node0x7b8ab37e3350 -->
<g id="node1" class="node">
<title>node0x7b8ab37e3350</title>
<path fill="#f9e2af" stroke="#101510" stroke-width="2.1" d="M258.75,-727C258.75,-727 174.25,-727 174.25,-727 168.25,-727 162.25,-721 162.25,-715 162.25,-715 162.25,-672 162.25,-672 162.25,-666 168.25,-660 174.25,-660 174.25,-660 258.75,-660 258.75,-660 264.75,-660 270.75,-666 270.75,-672 270.75,-672 270.75,-715 270.75,-715 270.75,-721 264.75,-727 258.75,-727"/>
<polygon fill="#101510" fill-opacity="0.203922" stroke="none" points="170.25,-693.5 170.25,-723 262.75,-723 262.75,-693.5 170.25,-693.5"/>
<polygon fill="none" stroke="#101510" points="170.25,-693.5 170.25,-723 262.75,-723 262.75,-693.5 170.25,-693.5"/>
<text xml:space="preserve" text-anchor="start" x="175.25" y="-705.7" font-family="monospace" font-weight="bold" font-size="14.00">type:</text>
<text xml:space="preserve" text-anchor="start" x="216.5" y="-705.7" font-family="monospace" font-size="14.00"> CTRL</text>
<polygon fill="#101510" fill-opacity="0.203922" stroke="none" points="170.25,-664 170.25,-693.5 262.75,-693.5 262.75,-664 170.25,-664"/>
<polygon fill="none" stroke="#101510" points="170.25,-664 170.25,-693.5 262.75,-693.5 262.75,-664 170.25,-664"/>
<text xml:space="preserve" text-anchor="start" x="179.38" y="-676.2" font-family="monospace" font-weight="bold" font-size="14.00">value:</text>
<text xml:space="preserve" text-anchor="start" x="228.88" y="-676.2" font-family="monospace" font-size="14.00"> if</text>
</g>
<!-- node0x7b8ab37e3310 -->
<g id="node2" class="node">
<title>node0x7b8ab37e3310</title>
<path fill="#a6e3a1" stroke="#101510" stroke-width="2.1" d="M184.75,-595C184.75,-595 100.25,-595 100.25,-595 94.25,-595 88.25,-589 88.25,-583 88.25,-583 88.25,-540 88.25,-540 88.25,-534 94.25,-528 100.25,-528 100.25,-528 184.75,-528 184.75,-528 190.75,-528 196.75,-534 196.75,-540 196.75,-540 196.75,-583 196.75,-583 196.75,-589 190.75,-595 184.75,-595"/>
<polygon fill="#101510" fill-opacity="0.203922" stroke="none" points="96.25,-561.5 96.25,-591 188.75,-591 188.75,-561.5 96.25,-561.5"/>
<polygon fill="none" stroke="#101510" points="96.25,-561.5 96.25,-591 188.75,-591 188.75,-561.5 96.25,-561.5"/>
<text xml:space="preserve" text-anchor="start" x="109.5" y="-573.7" font-family="monospace" font-weight="bold" font-size="14.00">type:</text>
<text xml:space="preserve" text-anchor="start" x="150.75" y="-573.7" font-family="monospace" font-size="14.00"> OP</text>
<polygon fill="#101510" fill-opacity="0.203922" stroke="none" points="96.25,-532 96.25,-561.5 188.75,-561.5 188.75,-532 96.25,-532"/>
<polygon fill="none" stroke="#101510" points="96.25,-532 96.25,-561.5 188.75,-561.5 188.75,-532 96.25,-532"/>
<text xml:space="preserve" text-anchor="start" x="101.25" y="-544.2" font-family="monospace" font-weight="bold" font-size="14.00">value:</text>
<text xml:space="preserve" text-anchor="start" x="150.75" y="-544.2" font-family="monospace" font-size="14.00"> and</text>
</g>
<!-- node0x7b8ab37e3350&#45;&gt;node0x7b8ab37e3310 -->
<g id="edge1" class="edge">
<title>node0x7b8ab37e3350&#45;&gt;node0x7b8ab37e3310</title>
<path fill="none" stroke="#2222e0" stroke-width="2.5" d="M179.5,-648.12C179.5,-648.12 179.5,-606.71 179.5,-606.71"/>
<polygon fill="#2222e0" stroke="#2222e0" stroke-width="2.5" points="179.5,-656.12 175.9,-648.12 178.75,-655.16 178.75,-648.12 179.5,-648.12 180.25,-648.12 180.25,-655.16 183.1,-648.12 179.5,-656.12"/>
<polygon fill="#2222e0" stroke="#2222e0" stroke-width="2.5" points="179.5,-598.71 183.1,-606.71 180.25,-599.66 180.25,-606.71 179.5,-606.71 178.75,-606.71 178.75,-599.66 175.9,-606.71 179.5,-598.71"/>
</g>
<!-- node0x7b8ab37e33d0 -->
<g id="node5" class="node">
<title>node0x7b8ab37e33d0</title>
<path fill="#f9e2af" stroke="#101510" stroke-width="2.1" d="M377.75,-595C377.75,-595 293.25,-595 293.25,-595 287.25,-595 281.25,-589 281.25,-583 281.25,-583 281.25,-540 281.25,-540 281.25,-534 287.25,-528 293.25,-528 293.25,-528 377.75,-528 377.75,-528 383.75,-528 389.75,-534 389.75,-540 389.75,-540 389.75,-583 389.75,-583 389.75,-589 383.75,-595 377.75,-595"/>
<polygon fill="#101510" fill-opacity="0.203922" stroke="none" points="289.25,-561.5 289.25,-591 381.75,-591 381.75,-561.5 289.25,-561.5"/>
<polygon fill="none" stroke="#101510" points="289.25,-561.5 289.25,-591 381.75,-591 381.75,-561.5 289.25,-561.5"/>
<text xml:space="preserve" text-anchor="start" x="294.25" y="-573.7" font-family="monospace" font-weight="bold" font-size="14.00">type:</text>
<text xml:space="preserve" text-anchor="start" x="335.5" y="-573.7" font-family="monospace" font-size="14.00"> CTRL</text>
<polygon fill="#101510" fill-opacity="0.203922" stroke="none" points="289.25,-532 289.25,-561.5 381.75,-561.5 381.75,-532 289.25,-532"/>
<polygon fill="none" stroke="#101510" points="289.25,-532 289.25,-561.5 381.75,-561.5 381.75,-532 289.25,-532"/>
<text xml:space="preserve" text-anchor="start" x="302.5" y="-544.2" font-family="monospace" font-weight="bold" font-size="14.00">value:</text>
<text xml:space="preserve" text-anchor="start" x="352" y="-544.2" font-family="monospace" font-size="14.00"> ;</text>
</g>
<!-- node0x7b8ab37e3350&#45;&gt;node0x7b8ab37e33d0 -->
<g id="edge4" class="edge">
<title>node0x7b8ab37e3350&#45;&gt;node0x7b8ab37e33d0</title>
<path fill="none" stroke="#2222e0" stroke-width="2.5" d="M233.75,-648.25C233.75,-648.25 233.75,-562 233.75,-562 233.75,-562 269.41,-562 269.41,-562"/>
<polygon fill="#2222e0" stroke="#2222e0" stroke-width="2.5" points="233.75,-656.25 230.15,-648.25 233,-655.29 233,-648.25 233.75,-648.25 234.5,-648.25 234.5,-655.29 237.35,-648.25 233.75,-656.25"/>
<polygon fill="#2222e0" stroke="#2222e0" stroke-width="2.5" points="277.41,-562 269.41,-565.6 276.46,-562.75 269.41,-562.75 269.41,-562 269.41,-561.25 276.46,-561.25 269.41,-558.4 277.41,-562"/>
</g>
<!-- node0x7b8ab37e3290 -->
<g id="node3" class="node">
<title>node0x7b8ab37e3290</title>
<path fill="#b581f4" stroke="#101510" stroke-width="2.1" d="M113,-463C113,-463 12,-463 12,-463 6,-463 0,-457 0,-451 0,-451 0,-408 0,-408 0,-402 6,-396 12,-396 12,-396 113,-396 113,-396 119,-396 125,-402 125,-408 125,-408 125,-451 125,-451 125,-457 119,-463 113,-463"/>
<polygon fill="#101510" fill-opacity="0.203922" stroke="none" points="8,-429.5 8,-459 117,-459 117,-429.5 8,-429.5"/>
<polygon fill="none" stroke="#101510" points="8,-429.5 8,-459 117,-459 117,-429.5 8,-429.5"/>
<text xml:space="preserve" text-anchor="start" x="17.12" y="-441.7" font-family="monospace" font-weight="bold" font-size="14.00">type:</text>
<text xml:space="preserve" text-anchor="start" x="58.37" y="-441.7" font-family="monospace" font-size="14.00"> IDENT</text>
<polygon fill="#101510" fill-opacity="0.203922" stroke="none" points="8,-400 8,-429.5 117,-429.5 117,-400 8,-400"/>
<polygon fill="none" stroke="#101510" points="8,-400 8,-429.5 117,-429.5 117,-400 8,-400"/>
<text xml:space="preserve" text-anchor="start" x="13" y="-412.2" font-family="monospace" font-weight="bold" font-size="14.00">value:</text>
<text xml:space="preserve" text-anchor="start" x="62.5" y="-412.2" font-family="monospace" font-size="14.00"> apple</text>
</g>
<!-- node0x7b8ab37e3310&#45;&gt;node0x7b8ab37e3290 -->
<g id="edge2" class="edge">
<title>node0x7b8ab37e3310&#45;&gt;node0x7b8ab37e3290</title>
<path fill="none" stroke="#2222e0" stroke-width="2.5" d="M106.62,-516.12C106.62,-516.12 106.62,-474.71 106.62,-474.71"/>
<polygon fill="#2222e0" stroke="#2222e0" stroke-width="2.5" points="106.63,-524.12 103.03,-516.12 105.88,-523.16 105.88,-516.12 106.63,-516.12 107.38,-516.12 107.38,-523.16 110.23,-516.12 106.63,-524.12"/>
<polygon fill="#2222e0" stroke="#2222e0" stroke-width="2.5" points="106.63,-466.71 110.23,-474.71 107.38,-467.66 107.38,-474.71 106.63,-474.71 105.88,-474.71 105.88,-467.66 103.03,-474.71 106.63,-466.71"/>
</g>
<!-- node0x7b8ab37e32d0 -->
<g id="node4" class="node">
<title>node0x7b8ab37e32d0</title>
<path fill="#b581f4" stroke="#101510" stroke-width="2.1" d="M269.88,-463C269.88,-463 177.12,-463 177.12,-463 171.12,-463 165.12,-457 165.12,-451 165.12,-451 165.12,-408 165.12,-408 165.12,-402 171.12,-396 177.12,-396 177.12,-396 269.88,-396 269.88,-396 275.88,-396 281.88,-402 281.88,-408 281.88,-408 281.88,-451 281.88,-451 281.88,-457 275.88,-463 269.88,-463"/>
<polygon fill="#101510" fill-opacity="0.203922" stroke="none" points="173.12,-429.5 173.12,-459 273.88,-459 273.88,-429.5 173.12,-429.5"/>
<polygon fill="none" stroke="#101510" points="173.12,-429.5 173.12,-459 273.88,-459 273.88,-429.5 173.12,-429.5"/>
<text xml:space="preserve" text-anchor="start" x="178.12" y="-441.7" font-family="monospace" font-weight="bold" font-size="14.00">type:</text>
<text xml:space="preserve" text-anchor="start" x="219.38" y="-441.7" font-family="monospace" font-size="14.00"> IDENT</text>
<polygon fill="#101510" fill-opacity="0.203922" stroke="none" points="173.12,-400 173.12,-429.5 273.88,-429.5 273.88,-400 173.12,-400"/>
<polygon fill="none" stroke="#101510" points="173.12,-400 173.12,-429.5 273.88,-429.5 273.88,-400 173.12,-400"/>
<text xml:space="preserve" text-anchor="start" x="182.25" y="-412.2" font-family="monospace" font-weight="bold" font-size="14.00">value:</text>
<text xml:space="preserve" text-anchor="start" x="231.75" y="-412.2" font-family="monospace" font-size="14.00"> dog</text>
</g>
<!-- node0x7b8ab37e3310&#45;&gt;node0x7b8ab37e32d0 -->
<g id="edge3" class="edge">
<title>node0x7b8ab37e3310&#45;&gt;node0x7b8ab37e32d0</title>
<path fill="none" stroke="#2222e0" stroke-width="2.5" d="M180.94,-516.12C180.94,-516.12 180.94,-474.71 180.94,-474.71"/>
<polygon fill="#2222e0" stroke="#2222e0" stroke-width="2.5" points="180.94,-524.12 177.34,-516.12 180.19,-523.16 180.19,-516.12 180.94,-516.12 181.69,-516.12 181.69,-523.16 184.54,-516.12 180.94,-524.12"/>
<polygon fill="#2222e0" stroke="#2222e0" stroke-width="2.5" points="180.94,-466.71 184.54,-474.71 181.69,-467.66 181.69,-474.71 180.94,-474.71 180.19,-474.71 180.19,-467.66 177.34,-474.71 180.94,-466.71"/>
</g>
<!-- node0x7b8ab37e3390 -->
<g id="node6" class="node">
<title>node0x7b8ab37e3390</title>
<path fill="#b581f4" stroke="#101510" stroke-width="2.1" d="M426.88,-463C426.88,-463 334.12,-463 334.12,-463 328.12,-463 322.12,-457 322.12,-451 322.12,-451 322.12,-408 322.12,-408 322.12,-402 328.12,-396 334.12,-396 334.12,-396 426.88,-396 426.88,-396 432.88,-396 438.88,-402 438.88,-408 438.88,-408 438.88,-451 438.88,-451 438.88,-457 432.88,-463 426.88,-463"/>
<polygon fill="#101510" fill-opacity="0.203922" stroke="none" points="330.12,-429.5 330.12,-459 430.88,-459 430.88,-429.5 330.12,-429.5"/>
<polygon fill="none" stroke="#101510" points="330.12,-429.5 330.12,-459 430.88,-459 430.88,-429.5 330.12,-429.5"/>
<text xml:space="preserve" text-anchor="start" x="335.12" y="-441.7" font-family="monospace" font-weight="bold" font-size="14.00">type:</text>
<text xml:space="preserve" text-anchor="start" x="376.38" y="-441.7" font-family="monospace" font-size="14.00"> IDENT</text>
<polygon fill="#101510" fill-opacity="0.203922" stroke="none" points="330.12,-400 330.12,-429.5 430.88,-429.5 430.88,-400 330.12,-400"/>
<polygon fill="none" stroke="#101510" points="330.12,-400 330.12,-429.5 430.88,-429.5 430.88,-400 330.12,-400"/>
<text xml:space="preserve" text-anchor="start" x="339.25" y="-412.2" font-family="monospace" font-weight="bold" font-size="14.00">value:</text>
<text xml:space="preserve" text-anchor="start" x="388.75" y="-412.2" font-family="monospace" font-size="14.00"> foo</text>
</g>
<!-- node0x7b8ab37e33d0&#45;&gt;node0x7b8ab37e3390 -->
<g id="edge5" class="edge">
<title>node0x7b8ab37e33d0&#45;&gt;node0x7b8ab37e3390</title>
<path fill="none" stroke="#2222e0" stroke-width="2.5" d="M355.94,-516.12C355.94,-516.12 355.94,-474.71 355.94,-474.71"/>
<polygon fill="#2222e0" stroke="#2222e0" stroke-width="2.5" points="355.94,-524.12 352.34,-516.12 355.19,-523.16 355.19,-516.12 355.94,-516.12 356.69,-516.12 356.69,-523.16 359.54,-516.12 355.94,-524.12"/>
<polygon fill="#2222e0" stroke="#2222e0" stroke-width="2.5" points="355.94,-466.71 359.54,-474.71 356.69,-467.66 356.69,-474.71 355.94,-474.71 355.19,-474.71 355.19,-467.66 352.34,-474.71 355.94,-466.71"/>
</g>
<!-- node0x7b8ab37e3490 -->
<g id="node7" class="node">
<title>node0x7b8ab37e3490</title>
<path fill="#f9e2af" stroke="#101510" stroke-width="2.1" d="M583.88,-463C583.88,-463 491.12,-463 491.12,-463 485.12,-463 479.12,-457 479.12,-451 479.12,-451 479.12,-408 479.12,-408 479.12,-402 485.12,-396 491.12,-396 491.12,-396 583.88,-396 583.88,-396 589.88,-396 595.88,-402 595.88,-408 595.88,-408 595.88,-451 595.88,-451 595.88,-457 589.88,-463 583.88,-463"/>
<polygon fill="#101510" fill-opacity="0.203922" stroke="none" points="487.12,-429.5 487.12,-459 587.88,-459 587.88,-429.5 487.12,-429.5"/>
<polygon fill="none" stroke="#101510" points="487.12,-429.5 487.12,-459 587.88,-459 587.88,-429.5 487.12,-429.5"/>
<text xml:space="preserve" text-anchor="start" x="496.25" y="-441.7" font-family="monospace" font-weight="bold" font-size="14.00">type:</text>
<text xml:space="preserve" text-anchor="start" x="537.5" y="-441.7" font-family="monospace" font-size="14.00"> CTRL</text>
<polygon fill="#101510" fill-opacity="0.203922" stroke="none" points="487.12,-400 487.12,-429.5 587.88,-429.5 587.88,-400 487.12,-400"/>
<polygon fill="none" stroke="#101510" points="487.12,-400 487.12,-429.5 587.88,-429.5 587.88,-400 487.12,-400"/>
<text xml:space="preserve" text-anchor="start" x="492.12" y="-412.2" font-family="monospace" font-weight="bold" font-size="14.00">value:</text>
<text xml:space="preserve" text-anchor="start" x="541.62" y="-412.2" font-family="monospace" font-size="14.00"> else</text>
</g>
<!-- node0x7b8ab37e33d0&#45;&gt;node0x7b8ab37e3490 -->
<g id="edge6" class="edge">
<title>node0x7b8ab37e33d0&#45;&gt;node0x7b8ab37e3490</title>
<path fill="none" stroke="#2222e0" stroke-width="2.5" d="M401.74,-562C401.74,-562 537.5,-562 537.5,-562 537.5,-562 537.5,-475.01 537.5,-475.01"/>
<polygon fill="#2222e0" stroke="#2222e0" stroke-width="2.5" points="393.74,-562 401.74,-558.4 394.7,-561.25 401.74,-561.25 401.74,-562 401.74,-562.75 394.7,-562.75 401.74,-565.6 393.74,-562"/>
<polygon fill="#2222e0" stroke="#2222e0" stroke-width="2.5" points="537.5,-467.01 541.1,-475.01 538.25,-467.97 538.25,-475.01 537.5,-475.01 536.75,-475.01 536.75,-467.97 533.9,-475.01 537.5,-467.01"/>
</g>
<!-- node0x7b8ab37e3450 -->
<g id="node8" class="node">
<title>node0x7b8ab37e3450</title>
<path fill="#f9e2af" stroke="#101510" stroke-width="2.1" d="M579.75,-331C579.75,-331 495.25,-331 495.25,-331 489.25,-331 483.25,-325 483.25,-319 483.25,-319 483.25,-276 483.25,-276 483.25,-270 489.25,-264 495.25,-264 495.25,-264 579.75,-264 579.75,-264 585.75,-264 591.75,-270 591.75,-276 591.75,-276 591.75,-319 591.75,-319 591.75,-325 585.75,-331 579.75,-331"/>
<polygon fill="#101510" fill-opacity="0.203922" stroke="none" points="491.25,-297.5 491.25,-327 583.75,-327 583.75,-297.5 491.25,-297.5"/>
<polygon fill="none" stroke="#101510" points="491.25,-297.5 491.25,-327 583.75,-327 583.75,-297.5 491.25,-297.5"/>
<text xml:space="preserve" text-anchor="start" x="496.25" y="-309.7" font-family="monospace" font-weight="bold" font-size="14.00">type:</text>
<text xml:space="preserve" text-anchor="start" x="537.5" y="-309.7" font-family="monospace" font-size="14.00"> CTRL</text>
<polygon fill="#101510" fill-opacity="0.203922" stroke="none" points="491.25,-268 491.25,-297.5 583.75,-297.5 583.75,-268 491.25,-268"/>
<polygon fill="none" stroke="#101510" points="491.25,-268 491.25,-297.5 583.75,-297.5 583.75,-268 491.25,-268"/>
<text xml:space="preserve" text-anchor="start" x="504.5" y="-280.2" font-family="monospace" font-weight="bold" font-size="14.00">value:</text>
<text xml:space="preserve" text-anchor="start" x="554" y="-280.2" font-family="monospace" font-size="14.00"> ;</text>
</g>
<!-- node0x7b8ab37e3490&#45;&gt;node0x7b8ab37e3450 -->
<g id="edge7" class="edge">
<title>node0x7b8ab37e3490&#45;&gt;node0x7b8ab37e3450</title>
<path fill="none" stroke="#2222e0" stroke-width="2.5" d="M537.5,-384.12C537.5,-384.12 537.5,-342.71 537.5,-342.71"/>
<polygon fill="#2222e0" stroke="#2222e0" stroke-width="2.5" points="537.5,-392.12 533.9,-384.12 536.75,-391.16 536.75,-384.12 537.5,-384.12 538.25,-384.12 538.25,-391.16 541.1,-384.12 537.5,-392.12"/>
<polygon fill="#2222e0" stroke="#2222e0" stroke-width="2.5" points="537.5,-334.71 541.1,-342.71 538.25,-335.66 538.25,-342.71 537.5,-342.71 536.75,-342.71 536.75,-335.66 533.9,-342.71 537.5,-334.71"/>
</g>
<!-- node0x7b8ab37e3410 -->
<g id="node9" class="node">
<title>node0x7b8ab37e3410</title>
<path fill="#b581f4" stroke="#101510" stroke-width="2.1" d="M507.88,-199C507.88,-199 415.12,-199 415.12,-199 409.12,-199 403.12,-193 403.12,-187 403.12,-187 403.12,-144 403.12,-144 403.12,-138 409.12,-132 415.12,-132 415.12,-132 507.88,-132 507.88,-132 513.88,-132 519.88,-138 519.88,-144 519.88,-144 519.88,-187 519.88,-187 519.88,-193 513.88,-199 507.88,-199"/>
<polygon fill="#101510" fill-opacity="0.203922" stroke="none" points="411.12,-165.5 411.12,-195 511.88,-195 511.88,-165.5 411.12,-165.5"/>
<polygon fill="none" stroke="#101510" points="411.12,-165.5 411.12,-195 511.88,-195 511.88,-165.5 411.12,-165.5"/>
<text xml:space="preserve" text-anchor="start" x="416.12" y="-177.7" font-family="monospace" font-weight="bold" font-size="14.00">type:</text>
<text xml:space="preserve" text-anchor="start" x="457.38" y="-177.7" font-family="monospace" font-size="14.00"> IDENT</text>
<polygon fill="#101510" fill-opacity="0.203922" stroke="none" points="411.12,-136 411.12,-165.5 511.88,-165.5 511.88,-136 411.12,-136"/>
<polygon fill="none" stroke="#101510" points="411.12,-136 411.12,-165.5 511.88,-165.5 511.88,-136 411.12,-136"/>
<text xml:space="preserve" text-anchor="start" x="420.25" y="-148.2" font-family="monospace" font-weight="bold" font-size="14.00">value:</text>
<text xml:space="preserve" text-anchor="start" x="469.75" y="-148.2" font-family="monospace" font-size="14.00"> bar</text>
</g>
<!-- node0x7b8ab37e3450&#45;&gt;node0x7b8ab37e3410 -->
<g id="edge8" class="edge">
<title>node0x7b8ab37e3450&#45;&gt;node0x7b8ab37e3410</title>
<path fill="none" stroke="#2222e0" stroke-width="2.5" d="M501.56,-252.12C501.56,-252.12 501.56,-210.71 501.56,-210.71"/>
<polygon fill="#2222e0" stroke="#2222e0" stroke-width="2.5" points="501.56,-260.12 497.96,-252.12 500.81,-259.16 500.81,-252.12 501.56,-252.12 502.31,-252.12 502.31,-259.16 505.16,-252.12 501.56,-260.12"/>
<polygon fill="#2222e0" stroke="#2222e0" stroke-width="2.5" points="501.56,-202.71 505.16,-210.71 502.31,-203.66 502.31,-210.71 501.56,-210.71 500.81,-210.71 500.81,-203.66 497.96,-210.71 501.56,-202.71"/>
</g>
<!-- node0x7b8ab37e3510 -->
<g id="node10" class="node">
<title>node0x7b8ab37e3510</title>
<path fill="#f9e2af" stroke="#101510" stroke-width="2.1" d="M656.75,-199C656.75,-199 572.25,-199 572.25,-199 566.25,-199 560.25,-193 560.25,-187 560.25,-187 560.25,-144 560.25,-144 560.25,-138 566.25,-132 572.25,-132 572.25,-132 656.75,-132 656.75,-132 662.75,-132 668.75,-138 668.75,-144 668.75,-144 668.75,-187 668.75,-187 668.75,-193 662.75,-199 656.75,-199"/>
<polygon fill="#101510" fill-opacity="0.203922" stroke="none" points="568.25,-165.5 568.25,-195 660.75,-195 660.75,-165.5 568.25,-165.5"/>
<polygon fill="none" stroke="#101510" points="568.25,-165.5 568.25,-195 660.75,-195 660.75,-165.5 568.25,-165.5"/>
<text xml:space="preserve" text-anchor="start" x="573.25" y="-177.7" font-family="monospace" font-weight="bold" font-size="14.00">type:</text>
<text xml:space="preserve" text-anchor="start" x="614.5" y="-177.7" font-family="monospace" font-size="14.00"> CTRL</text>
<polygon fill="#101510" fill-opacity="0.203922" stroke="none" points="568.25,-136 568.25,-165.5 660.75,-165.5 660.75,-136 568.25,-136"/>
<polygon fill="none" stroke="#101510" points="568.25,-136 568.25,-165.5 660.75,-165.5 660.75,-136 568.25,-136"/>
<text xml:space="preserve" text-anchor="start" x="581.5" y="-148.2" font-family="monospace" font-weight="bold" font-size="14.00">value:</text>
<text xml:space="preserve" text-anchor="start" x="631" y="-148.2" font-family="monospace" font-size="14.00"> ;</text>
</g>
<!-- node0x7b8ab37e3450&#45;&gt;node0x7b8ab37e3510 -->
<g id="edge9" class="edge">
<title>node0x7b8ab37e3450&#45;&gt;node0x7b8ab37e3510</title>
<path fill="none" stroke="#2222e0" stroke-width="2.5" d="M576,-252.12C576,-252.12 576,-210.71 576,-210.71"/>
<polygon fill="#2222e0" stroke="#2222e0" stroke-width="2.5" points="576,-260.12 572.4,-252.12 575.25,-259.16 575.25,-252.12 576,-252.12 576.75,-252.12 576.75,-259.16 579.6,-252.12 576,-260.12"/>
<polygon fill="#2222e0" stroke="#2222e0" stroke-width="2.5" points="576,-202.71 579.6,-210.71 576.75,-203.66 576.75,-210.71 576,-210.71 575.25,-210.71 575.25,-203.66 572.4,-210.71 576,-202.71"/>
</g>
<!-- node0x7b8ab37e34d0 -->
<g id="node11" class="node">
<title>node0x7b8ab37e34d0</title>
<path fill="#b581f4" stroke="#101510" stroke-width="2.1" d="M660.88,-67C660.88,-67 568.12,-67 568.12,-67 562.12,-67 556.12,-61 556.12,-55 556.12,-55 556.12,-12 556.12,-12 556.12,-6 562.12,0 568.12,0 568.12,0 660.88,0 660.88,0 666.88,0 672.88,-6 672.88,-12 672.88,-12 672.88,-55 672.88,-55 672.88,-61 666.88,-67 660.88,-67"/>
<polygon fill="#101510" fill-opacity="0.203922" stroke="none" points="564.12,-33.5 564.12,-63 664.88,-63 664.88,-33.5 564.12,-33.5"/>
<polygon fill="none" stroke="#101510" points="564.12,-33.5 564.12,-63 664.88,-63 664.88,-33.5 564.12,-33.5"/>
<text xml:space="preserve" text-anchor="start" x="569.12" y="-45.7" font-family="monospace" font-weight="bold" font-size="14.00">type:</text>
<text xml:space="preserve" text-anchor="start" x="610.38" y="-45.7" font-family="monospace" font-size="14.00"> IDENT</text>
<polygon fill="#101510" fill-opacity="0.203922" stroke="none" points="564.12,-4 564.12,-33.5 664.88,-33.5 664.88,-4 564.12,-4"/>
<polygon fill="none" stroke="#101510" points="564.12,-4 564.12,-33.5 664.88,-33.5 664.88,-4 564.12,-4"/>
<text xml:space="preserve" text-anchor="start" x="573.25" y="-16.2" font-family="monospace" font-weight="bold" font-size="14.00">value:</text>
<text xml:space="preserve" text-anchor="start" x="622.75" y="-16.2" font-family="monospace" font-size="14.00"> baz</text>
</g>
<!-- node0x7b8ab37e3510&#45;&gt;node0x7b8ab37e34d0 -->
<g id="edge10" class="edge">
<title>node0x7b8ab37e3510&#45;&gt;node0x7b8ab37e34d0</title>
<path fill="none" stroke="#2222e0" stroke-width="2.5" d="M614.5,-120.12C614.5,-120.12 614.5,-78.71 614.5,-78.71"/>
<polygon fill="#2222e0" stroke="#2222e0" stroke-width="2.5" points="614.5,-128.12 610.9,-120.12 613.75,-127.16 613.75,-120.12 614.5,-120.12 615.25,-120.12 615.25,-127.16 618.1,-120.12 614.5,-128.12"/>
<polygon fill="#2222e0" stroke="#2222e0" stroke-width="2.5" points="614.5,-70.71 618.1,-78.71 615.25,-71.66 615.25,-78.71 614.5,-78.71 613.75,-78.71 613.75,-71.66 610.9,-78.71 614.5,-70.71"/>
</g>
</g>
</svg>
