<?xml version="1.0" encoding="UTF-8" standalone="no"?>
<!DOCTYPE svg PUBLIC "-//W3C//DTD SVG 1.1//EN"
 "http://www.w3.org/Graphics/SVG/1.1/DTD/svg11.dtd">
<!-- Generated by graphviz version 14.1.5 (0)
 -->
<!-- Title: G Pages: 1 -->
<svg width="1008pt" height="763pt"
 viewBox="0.00 0.00 1008.00 763.00" xmlns="http://www.w3.org/2000/svg" xmlns:xlink="http://www.w3.org/1999/xlink">
<g id="graph0" class="graph" transform="scale(1 1) rotate(0) translate(18 745)">
<title>G</title>
<polygon fill="#ffffff" stroke="none" points="-18,18 -18,-745 990,-745 990,18 -18,18"/>
<!-- node0x7c02777e3550 -->
<g id="node1" class="node">
<title>node0x7c02777e3550</title>
<path fill="#f9e2af" stroke="#101510" stroke-width="2.1" d="M353.38,-727C353.38,-727 219.38,-727 219.38,-727 213.38,-727 207.38,-721 207.38,-715 207.38,-715 207.38,-672 207.38,-672 207.38,-666 213.38,-660 219.38,-660 219.38,-660 353.38,-660 353.38,-660 359.38,-660 365.38,-666 365.38,-672 365.38,-672 365.38,-715 365.38,-715 365.38,-721 359.38,-727 353.38,-727"/>
<polygon fill="#101510" fill-opacity="0.203922" stroke="none" points="215.38,-693.5 215.38,-723 357.38,-723 357.38,-693.5 215.38,-693.5"/>
<polygon fill="none" stroke="#101510" points="215.38,-693.5 215.38,-723 357.38,-723 357.38,-693.5 215.38,-693.5"/>
<text xml:space="preserve" text-anchor="start" x="245.12" y="-705.7" font-family="monospace" font-weight="bold" font-size="14.00">type:</text>
<text xml:space="preserve" text-anchor="start" x="286.38" y="-705.7" font-family="monospace" font-size="14.00"> CTRL</text>
<polygon fill="#101510" fill-opacity="0.203922" stroke="none" points="215.38,-664 215.38,-693.5 357.38,-693.5 357.38,-664 215.38,-664"/>
<polygon fill="none" stroke="#101510" points="215.38,-664 215.38,-693.5 357.38,-693.5 357.38,-664 215.38,-664"/>
<text xml:space="preserve" text-anchor="start" x="220.38" y="-676.2" font-family="monospace" font-weight="bold" font-size="14.00">value:</text>
<text xml:space="preserve" text-anchor="start" x="269.88" y="-676.2" font-family="monospace" font-size="14.00"> func call</text>
</g>
<!-- node0x7c02777e3450 -->
<g id="node2" class="node">
<title>node0x7c02777e3450</title>
<path fill="#f9e2af" stroke="#101510" stroke-width="2.1" d="M267.38,-595C267.38,-595 133.38,-595 133.38,-595 127.38,-595 121.38,-589 121.38,-583 121.38,-583 121.38,-540 121.38,-540 121.38,-534 127.38,-528 133.38,-528 133.38,-528 267.38,-528 267.38,-528 273.38,-528 279.38,-534 279.38,-540 279.38,-540 279.38,-583 279.38,-583 279.38,-589 273.38,-595 267.38,-595"/>
<polygon fill="#101510" fill-opacity="0.203922" stroke="none" points="129.38,-561.5 129.38,-591 271.38,-591 271.38,-561.5 129.38,-561.5"/>
<polygon fill="none" stroke="#101510" points="129.38,-561.5 129.38,-591 271.38,-591 271.38,-561.5 129.38,-561.5"/>
<text xml:space="preserve" text-anchor="start" x="159.12" y="-573.7" font-family="monospace" font-weight="bold" font-size="14.00">type:</text>
<text xml:space="preserve" text-anchor="start" x="200.38" y="-573.7" font-family="monospace" font-size="14.00"> CTRL</text>
<polygon fill="#101510" fill-opacity="0.203922" stroke="none" points="129.38,-532 129.38,-561.5 271.38,-561.5 271.38,-532 129.38,-532"/>
<polygon fill="none" stroke="#101510" points="129.38,-532 129.38,-561.5 271.38,-561.5 271.38,-532 129.38,-532"/>
<text xml:space="preserve" text-anchor="start" x="134.38" y="-544.2" font-family="monospace" font-weight="bold" font-size="14.00">value:</text>
<text xml:space="preserve" text-anchor="start" x="183.88" y="-544.2" font-family="monospace" font-size="14.00"> signature</text>
</g>
<!-- node0x7c02777e3550&#45;&gt;node0x7c02777e3450 -->
<g id="edge1" class="edge">
<title>node0x7c02777e3550&#45;&gt;node0x7c02777e3450</title>
<path fill="none" stroke="#2222e0" stroke-width="2.5" d="M243.38,-648.12C243.38,-648.12 243.38,-606.71 243.38,-606.71"/>
<polygon fill="#2222e0" stroke="#2222e0" stroke-width="2.5" points="243.38,-656.12 239.78,-648.12 242.63,-655.16 242.63,-648.12 243.38,-648.12 244.13,-648.12 244.13,-655.16 246.98,-648.12 243.38,-656.12"/>
<polygon fill="#2222e0" stroke="#2222e0" stroke-width="2.5" points="243.38,-598.71 246.98,-606.71 244.13,-599.66 244.13,-606.71 243.38,-606.71 242.63,-606.71 242.63,-599.66 239.78,-606.71 243.38,-598.71"/>
</g>
<!-- node0x7c02777e3510 -->
<g id="node14" class="node">
<title>node0x7c02777e3510</title>
<path fill="#f9e2af" stroke="#101510" stroke-width="2.1" d="M447.62,-595C447.62,-595 363.12,-595 363.12,-595 357.12,-595 351.12,-589 351.12,-583 351.12,-583 351.12,-540 351.12,-540 351.12,-534 357.12,-528 363.12,-528 363.12,-528 447.62,-528 447.62,-528 453.62,-528 459.62,-534 459.62,-540 459.62,-540 459.62,-583 459.62,-583 459.62,-589 453.62,-595 447.62,-595"/>
<polygon fill="#101510" fill-opacity="0.203922" stroke="none" points="359.12,-561.5 359.12,-591 451.62,-591 451.62,-561.5 359.12,-561.5"/>
<polygon fill="none" stroke="#101510" points="359.12,-561.5 359.12,-591 451.62,-591 451.62,-561.5 359.12,-561.5"/>
<text xml:space="preserve" text-anchor="start" x="364.12" y="-573.7" font-family="monospace" font-weight="bold" font-size="14.00">type:</text>
<text xml:space="preserve" text-anchor="start" x="405.38" y="-573.7" font-family="monospace" font-size="14.00"> CTRL</text>
<polygon fill="#101510" fill-opacity="0.203922" stroke="none" points="359.12,-532 359.12,-561.5 451.62,-561.5 451.62,-532 359.12,-532"/>
<polygon fill="none" stroke="#101510" points="359.12,-532 359.12,-561.5 451.62,-561.5 451.62,-532 359.12,-532"/>
<text xml:space="preserve" text-anchor="start" x="372.38" y="-544.2" font-family="monospace" font-weight="bold" font-size="14.00">value:</text>
<text xml:space="preserve" text-anchor="start" x="421.88" y="-544.2" font-family="monospace" font-size="14.00"> ;</text>
</g>
<!-- node0x7c02777e3550&#45;&gt;node0x7c02777e3510 -->
<g id="edge13" class="edge">
<title>node0x7c02777e3550&#45;&gt;node0x7c02777e3510</title>
<path fill="none" stroke="#2222e0" stroke-width="2.5" d="M358.25,-648.12C358.25,-648.12 358.25,-606.71 358.25,-606.71"/>
<polygon fill="#2222e0" stroke="#2222e0" stroke-width="2.5" points="358.25,-656.12 354.65,-648.12 357.5,-655.16 357.5,-648.12 358.25,-648.12 359,-648.12 359,-655.16 361.85,-648.12 358.25,-656.12"/>
<polygon fill="#2222e0" stroke="#2222e0" stroke-width="2.5" points="358.25,-598.71 361.85,-606.71 359,-599.66 359,-606.71 358.25,-606.71 357.5,-606.71 357.5,-599.66 354.65,-606.71 358.25,-598.71"/>
</g>
<!-- node0x7c02777e3310 -->
<g id="node3" class="node">
<title>node0x7c02777e3310</title>
<path fill="#f9e2af" stroke="#101510" stroke-width="2.1" d="M182.75,-463C182.75,-463 90,-463 90,-463 84,-463 78,-457 78,-451 78,-451 78,-408 78,-408 78,-402 84,-396 90,-396 90,-396 182.75,-396 182.75,-396 188.75,-396 194.75,-402 194.75,-408 194.75,-408 194.75,-451 194.75,-451 194.75,-457 188.75,-463 182.75,-463"/>
<polygon fill="#101510" fill-opacity="0.203922" stroke="none" points="86,-429.5 86,-459 186.75,-459 186.75,-429.5 86,-429.5"/>
<polygon fill="none" stroke="#101510" points="86,-429.5 86,-459 186.75,-459 186.75,-429.5 86,-429.5"/>
<text xml:space="preserve" text-anchor="start" x="95.12" y="-441.7" font-family="monospace" font-weight="bold" font-size="14.00">type:</text>
<text xml:space="preserve" text-anchor="start" x="136.38" y="-441.7" font-family="monospace" font-size="14.00"> CTRL</text>
<polygon fill="#101510" fill-opacity="0.203922" stroke="none" points="86,-400 86,-429.5 186.75,-429.5 186.75,-400 86,-400"/>
<polygon fill="none" stroke="#101510" points="86,-400 86,-429.5 186.75,-429.5 186.75,-400 86,-400"/>
<text xml:space="preserve" text-anchor="start" x="91" y="-412.2" font-family="monospace" font-weight="bold" font-size="14.00">value:</text>
<text xml:space="preserve" text-anchor="start" x="140.5" y="-412.2" font-family="monospace" font-size="14.00"> decl</text>
</g>
<!-- node0x7c02777e3450&#45;&gt;node0x7c02777e3310 -->
<g id="edge2" class="edge">
<title>node0x7c02777e3450&#45;&gt;node0x7c02777e3310</title>
<path fill="none" stroke="#2222e0" stroke-width="2.5" d="M158.06,-516.12C158.06,-516.12 158.06,-474.71 158.06,-474.71"/>
<polygon fill="#2222e0" stroke="#2222e0" stroke-width="2.5" points="158.06,-524.12 154.46,-516.12 157.31,-523.16 157.31,-516.12 158.06,-516.12 158.81,-516.12 158.81,-523.16 161.66,-516.12 158.06,-524.12"/>
<polygon fill="#2222e0" stroke="#2222e0" stroke-width="2.5" points="158.06,-466.71 161.66,-474.71 158.81,-467.66 158.81,-474.71 158.06,-474.71 157.31,-474.71 157.31,-467.66 154.46,-474.71 158.06,-466.71"/>
</g>
<!-- node0x7c02777e3410 -->
<g id="node6" class="node">
<title>node0x7c02777e3410</title>
<path fill="#f9e2af" stroke="#101510" stroke-width="2.1" d="M382.62,-463C382.62,-463 298.12,-463 298.12,-463 292.12,-463 286.12,-457 286.12,-451 286.12,-451 286.12,-408 286.12,-408 286.12,-402 292.12,-396 298.12,-396 298.12,-396 382.62,-396 382.62,-396 388.62,-396 394.62,-402 394.62,-408 394.62,-408 394.62,-451 394.62,-451 394.62,-457 388.62,-463 382.62,-463"/>
<polygon fill="#101510" fill-opacity="0.203922" stroke="none" points="294.12,-429.5 294.12,-459 386.62,-459 386.62,-429.5 294.12,-429.5"/>
<polygon fill="none" stroke="#101510" points="294.12,-429.5 294.12,-459 386.62,-459 386.62,-429.5 294.12,-429.5"/>
<text xml:space="preserve" text-anchor="start" x="299.12" y="-441.7" font-family="monospace" font-weight="bold" font-size="14.00">type:</text>
<text xml:space="preserve" text-anchor="start" x="340.38" y="-441.7" font-family="monospace" font-size="14.00"> CTRL</text>
<polygon fill="#101510" fill-opacity="0.203922" stroke="none" points="294.12,-400 294.12,-429.5 386.62,-429.5 386.62,-400 294.12,-400"/>
<polygon fill="none" stroke="#101510" points="294.12,-400 294.12,-429.5 386.62,-429.5 386.62,-400 294.12,-400"/>
<text xml:space="preserve" text-anchor="start" x="307.38" y="-412.2" font-family="monospace" font-weight="bold" font-size="14.00">value:</text>
<text xml:space="preserve" text-anchor="start" x="356.88" y="-412.2" font-family="monospace" font-size="14.00"> ;</text>
</g>
<!-- node0x7c02777e3450&#45;&gt;node0x7c02777e3410 -->
<g id="edge5" class="edge">
<title>node0x7c02777e3450&#45;&gt;node0x7c02777e3410</title>
<path fill="none" stroke="#2222e0" stroke-width="2.5" d="M291.28,-562C291.28,-562 318.62,-562 318.62,-562 318.62,-562 318.62,-475.01 318.62,-475.01"/>
<polygon fill="#2222e0" stroke="#2222e0" stroke-width="2.5" points="283.28,-562 291.28,-558.4 284.23,-561.25 291.28,-561.25 291.28,-562 291.28,-562.75 284.23,-562.75 291.28,-565.6 283.28,-562"/>
<polygon fill="#2222e0" stroke="#2222e0" stroke-width="2.5" points="318.63,-467.01 322.23,-475.01 319.38,-467.97 319.38,-475.01 318.63,-475.01 317.88,-475.01 317.88,-467.97 315.03,-475.01 318.63,-467.01"/>
</g>
<!-- node0x7c02777e3290 -->
<g id="node4" class="node">
<title>node0x7c02777e3290</title>
<path fill="#fab387" stroke="#101510" stroke-width="2.1" d="M104.75,-331C104.75,-331 12,-331 12,-331 6,-331 0,-325 0,-319 0,-319 0,-276 0,-276 0,-270 6,-264 12,-264 12,-264 104.75,-264 104.75,-264 110.75,-264 116.75,-270 116.75,-276 116.75,-276 116.75,-319 116.75,-319 116.75,-325 110.75,-331 104.75,-331"/>
<polygon fill="#101510" fill-opacity="0.203922" stroke="none" points="8,-297.5 8,-327 108.75,-327 108.75,-297.5 8,-297.5"/>
<polygon fill="none" stroke="#101510" points="8,-297.5 8,-327 108.75,-327 108.75,-297.5 8,-297.5"/>
<text xml:space="preserve" text-anchor="start" x="17.13" y="-309.7" font-family="monospace" font-weight="bold" font-size="14.00">type:</text>
<text xml:space="preserve" text-anchor="start" x="58.38" y="-309.7" font-family="monospace" font-size="14.00"> TYPE</text>
<polygon fill="#101510" fill-opacity="0.203922" stroke="none" points="8,-268 8,-297.5 108.75,-297.5 108.75,-268 8,-268"/>
<polygon fill="none" stroke="#101510" points="8,-268 8,-297.5 108.75,-297.5 108.75,-268 8,-268"/>
<text xml:space="preserve" text-anchor="start" x="13" y="-280.2" font-family="monospace" font-weight="bold" font-size="14.00">value:</text>
<text xml:space="preserve" text-anchor="start" x="62.5" y="-280.2" font-family="monospace" font-size="14.00"> prim</text>
</g>
<!-- node0x7c02777e3310&#45;&gt;node0x7c02777e3290 -->
<g id="edge3" class="edge">
<title>node0x7c02777e3310&#45;&gt;node0x7c02777e3290</title>
<path fill="none" stroke="#2222e0" stroke-width="2.5" d="M97.38,-384.12C97.38,-384.12 97.38,-342.71 97.38,-342.71"/>
<polygon fill="#2222e0" stroke="#2222e0" stroke-width="2.5" points="97.38,-392.12 93.78,-384.12 96.63,-391.16 96.63,-384.12 97.38,-384.12 98.13,-384.12 98.13,-391.16 100.98,-384.12 97.38,-392.12"/>
<polygon fill="#2222e0" stroke="#2222e0" stroke-width="2.5" points="97.38,-334.71 100.98,-342.71 98.13,-335.66 98.13,-342.71 97.38,-342.71 96.63,-342.71 96.63,-335.66 93.78,-342.71 97.38,-334.71"/>
</g>
<!-- node0x7c02777e32d0 -->
<g id="node5" class="node">
<title>node0x7c02777e32d0</title>
<path fill="#b581f4" stroke="#101510" stroke-width="2.1" d="M261.75,-331C261.75,-331 169,-331 169,-331 163,-331 157,-325 157,-319 157,-319 157,-276 157,-276 157,-270 163,-264 169,-264 169,-264 261.75,-264 261.75,-264 267.75,-264 273.75,-270 273.75,-276 273.75,-276 273.75,-319 273.75,-319 273.75,-325 267.75,-331 261.75,-331"/>
<polygon fill="#101510" fill-opacity="0.203922" stroke="none" points="165,-297.5 165,-327 265.75,-327 265.75,-297.5 165,-297.5"/>
<polygon fill="none" stroke="#101510" points="165,-297.5 165,-327 265.75,-327 265.75,-297.5 165,-297.5"/>
<text xml:space="preserve" text-anchor="start" x="170" y="-309.7" font-family="monospace" font-weight="bold" font-size="14.00">type:</text>
<text xml:space="preserve" text-anchor="start" x="211.25" y="-309.7" font-family="monospace" font-size="14.00"> IDENT</text>
<polygon fill="#101510" fill-opacity="0.203922" stroke="none" points="165,-268 165,-297.5 265.75,-297.5 265.75,-268 165,-268"/>
<polygon fill="none" stroke="#101510" points="165,-268 165,-297.5 265.75,-297.5 265.75,-268 165,-268"/>
<text xml:space="preserve" text-anchor="start" x="170" y="-280.2" font-family="monospace" font-weight="bold" font-size="14.00">value:</text>
<text xml:space="preserve" text-anchor="start" x="219.5" y="-280.2" font-family="monospace" font-size="14.00"> func</text>
</g>
<!-- node0x7c02777e3310&#45;&gt;node0x7c02777e32d0 -->
<g id="edge4" class="edge">
<title>node0x7c02777e3310&#45;&gt;node0x7c02777e32d0</title>
<path fill="none" stroke="#2222e0" stroke-width="2.5" d="M175.88,-384.12C175.88,-384.12 175.88,-342.71 175.88,-342.71"/>
<polygon fill="#2222e0" stroke="#2222e0" stroke-width="2.5" points="175.88,-392.12 172.28,-384.12 175.13,-391.16 175.13,-384.12 175.88,-384.12 176.63,-384.12 176.63,-391.16 179.48,-384.12 175.88,-392.12"/>
<polygon fill="#2222e0" stroke="#2222e0" stroke-width="2.5" points="175.88,-334.71 179.48,-342.71 176.63,-335.66 176.63,-342.71 175.88,-342.71 175.13,-342.71 175.13,-335.66 172.28,-342.71 175.88,-334.71"/>
</g>
<!-- node0x7c02777e33d0 -->
<g id="node7" class="node">
<title>node0x7c02777e33d0</title>
<path fill="#f9e2af" stroke="#101510" stroke-width="2.1" d="M459.38,-331C459.38,-331 325.38,-331 325.38,-331 319.38,-331 313.38,-325 313.38,-319 313.38,-319 313.38,-276 313.38,-276 313.38,-270 319.38,-264 325.38,-264 325.38,-264 459.38,-264 459.38,-264 465.38,-264 471.38,-270 471.38,-276 471.38,-276 471.38,-319 471.38,-319 471.38,-325 465.38,-331 459.38,-331"/>
<polygon fill="#101510" fill-opacity="0.203922" stroke="none" points="321.38,-297.5 321.38,-327 463.38,-327 463.38,-297.5 321.38,-297.5"/>
<polygon fill="none" stroke="#101510" points="321.38,-297.5 321.38,-327 463.38,-327 463.38,-297.5 321.38,-297.5"/>
<text xml:space="preserve" text-anchor="start" x="351.12" y="-309.7" font-family="monospace" font-weight="bold" font-size="14.00">type:</text>
<text xml:space="preserve" text-anchor="start" x="392.38" y="-309.7" font-family="monospace" font-size="14.00"> CTRL</text>
<polygon fill="#101510" fill-opacity="0.203922" stroke="none" points="321.38,-268 321.38,-297.5 463.38,-297.5 463.38,-268 321.38,-268"/>
<polygon fill="none" stroke="#101510" points="321.38,-268 321.38,-297.5 463.38,-297.5 463.38,-268 321.38,-268"/>
<text xml:space="preserve" text-anchor="start" x="326.38" y="-280.2" font-family="monospace" font-weight="bold" font-size="14.00">value:</text>
<text xml:space="preserve" text-anchor="start" x="375.88" y="-280.2" font-family="monospace" font-size="14.00"> parameter</text>
</g>
<!-- node0x7c02777e3410&#45;&gt;node0x7c02777e33d0 -->
<g id="edge6" class="edge">
<title>node0x7c02777e3410&#45;&gt;node0x7c02777e33d0</title>
<path fill="none" stroke="#2222e0" stroke-width="2.5" d="M354,-384.12C354,-384.12 354,-342.71 354,-342.71"/>
<polygon fill="#2222e0" stroke="#2222e0" stroke-width="2.5" points="354,-392.12 350.4,-384.12 353.25,-391.16 353.25,-384.12 354,-384.12 354.75,-384.12 354.75,-391.16 357.6,-384.12 354,-392.12"/>
<polygon fill="#2222e0" stroke="#2222e0" stroke-width="2.5" points="354,-334.71 357.6,-342.71 354.75,-335.66 354.75,-342.71 354,-342.71 353.25,-342.71 353.25,-335.66 350.4,-342.71 354,-334.71"/>
</g>
<!-- node0x7c02777e3710 -->
<g id="node10" class="node">
<title>node0x7c02777e3710</title>
<path fill="#f9e2af" stroke="#101510" stroke-width="2.1" d="M613.62,-331C613.62,-331 529.12,-331 529.12,-331 523.12,-331 517.12,-325 517.12,-319 517.12,-319 517.12,-276 517.12,-276 517.12,-270 523.12,-264 529.12,-264 529.12,-264 613.62,-264 613.62,-264 619.62,-264 625.62,-270 625.62,-276 625.62,-276 625.62,-319 625.62,-319 625.62,-325 619.62,-331 613.62,-331"/>
<polygon fill="#101510" fill-opacity="0.203922" stroke="none" points="525.12,-297.5 525.12,-327 617.62,-327 617.62,-297.5 525.12,-297.5"/>
<polygon fill="none" stroke="#101510" points="525.12,-297.5 525.12,-327 617.62,-327 617.62,-297.5 525.12,-297.5"/>
<text xml:space="preserve" text-anchor="start" x="530.12" y="-309.7" font-family="monospace" font-weight="bold" font-size="14.00">type:</text>
<text xml:space="preserve" text-anchor="start" x="571.38" y="-309.7" font-family="monospace" font-size="14.00"> CTRL</text>
<polygon fill="#101510" fill-opacity="0.203922" stroke="none" points="525.12,-268 525.12,-297.5 617.62,-297.5 617.62,-268 525.12,-268"/>
<polygon fill="none" stroke="#101510" points="525.12,-268 525.12,-297.5 617.62,-297.5 617.62,-268 525.12,-268"/>
<text xml:space="preserve" text-anchor="start" x="538.38" y="-280.2" font-family="monospace" font-weight="bold" font-size="14.00">value:</text>
<text xml:space="preserve" text-anchor="start" x="587.88" y="-280.2" font-family="monospace" font-size="14.00"> ;</text>
</g>
<!-- node0x7c02777e3410&#45;&gt;node0x7c02777e3710 -->
<g id="edge9" class="edge">
<title>node0x7c02777e3410&#45;&gt;node0x7c02777e3710</title>
<path fill="none" stroke="#2222e0" stroke-width="2.5" d="M406.61,-418C406.61,-418 536.62,-418 536.62,-418 536.62,-418 536.62,-343.08 536.62,-343.08"/>
<polygon fill="#2222e0" stroke="#2222e0" stroke-width="2.5" points="398.61,-418 406.61,-414.4 399.56,-417.25 406.61,-417.25 406.61,-418 406.61,-418.75 399.56,-418.75 406.61,-421.6 398.61,-418"/>
<polygon fill="#2222e0" stroke="#2222e0" stroke-width="2.5" points="536.63,-335.08 540.23,-343.08 537.38,-336.03 537.38,-343.08 536.63,-343.08 535.88,-343.08 535.88,-336.03 533.03,-343.08 536.63,-335.08"/>
</g>
<!-- node0x7c02777e3350 -->
<g id="node8" class="node">
<title>node0x7c02777e3350</title>
<path fill="#fab387" stroke="#101510" stroke-width="2.1" d="M269.75,-199C269.75,-199 177,-199 177,-199 171,-199 165,-193 165,-187 165,-187 165,-144 165,-144 165,-138 171,-132 177,-132 177,-132 269.75,-132 269.75,-132 275.75,-132 281.75,-138 281.75,-144 281.75,-144 281.75,-187 281.75,-187 281.75,-193 275.75,-199 269.75,-199"/>
<polygon fill="#101510" fill-opacity="0.203922" stroke="none" points="173,-165.5 173,-195 273.75,-195 273.75,-165.5 173,-165.5"/>
<polygon fill="none" stroke="#101510" points="173,-165.5 173,-195 273.75,-195 273.75,-165.5 173,-165.5"/>
<text xml:space="preserve" text-anchor="start" x="182.12" y="-177.7" font-family="monospace" font-weight="bold" font-size="14.00">type:</text>
<text xml:space="preserve" text-anchor="start" x="223.38" y="-177.7" font-family="monospace" font-size="14.00"> TYPE</text>
<polygon fill="#101510" fill-opacity="0.203922" stroke="none" points="173,-136 173,-165.5 273.75,-165.5 273.75,-136 173,-136"/>
<polygon fill="none" stroke="#101510" points="173,-136 173,-165.5 273.75,-165.5 273.75,-136 173,-136"/>
<text xml:space="preserve" text-anchor="start" x="178" y="-148.2" font-family="monospace" font-weight="bold" font-size="14.00">value:</text>
<text xml:space="preserve" text-anchor="start" x="227.5" y="-148.2" font-family="monospace" font-size="14.00"> prim</text>
</g>
<!-- node0x7c02777e33d0&#45;&gt;node0x7c02777e3350 -->
<g id="edge7" class="edge">
<title>node0x7c02777e33d0&#45;&gt;node0x7c02777e3350</title>
<path fill="none" stroke="#2222e0" stroke-width="2.5" d="M317.56,-252.25C317.56,-252.25 317.56,-166 317.56,-166 317.56,-166 293.8,-166 293.8,-166"/>
<polygon fill="#2222e0" stroke="#2222e0" stroke-width="2.5" points="317.56,-260.25 313.96,-252.25 316.81,-259.29 316.81,-252.25 317.56,-252.25 318.31,-252.25 318.31,-259.29 321.16,-252.25 317.56,-260.25"/>
<polygon fill="#2222e0" stroke="#2222e0" stroke-width="2.5" points="285.8,-166 293.8,-162.4 286.76,-165.25 293.8,-165.25 293.8,-166 293.8,-166.75 286.76,-166.75 293.8,-169.6 285.8,-166"/>
</g>
<!-- node0x7c02777e3390 -->
<g id="node9" class="node">
<title>node0x7c02777e3390</title>
<path fill="#b581f4" stroke="#101510" stroke-width="2.1" d="M443,-199C443,-199 333.75,-199 333.75,-199 327.75,-199 321.75,-193 321.75,-187 321.75,-187 321.75,-144 321.75,-144 321.75,-138 327.75,-132 333.75,-132 333.75,-132 443,-132 443,-132 449,-132 455,-138 455,-144 455,-144 455,-187 455,-187 455,-193 449,-199 443,-199"/>
<polygon fill="#101510" fill-opacity="0.203922" stroke="none" points="329.75,-165.5 329.75,-195 447,-195 447,-165.5 329.75,-165.5"/>
<polygon fill="none" stroke="#101510" points="329.75,-165.5 329.75,-195 447,-195 447,-165.5 329.75,-165.5"/>
<text xml:space="preserve" text-anchor="start" x="343" y="-177.7" font-family="monospace" font-weight="bold" font-size="14.00">type:</text>
<text xml:space="preserve" text-anchor="start" x="384.25" y="-177.7" font-family="monospace" font-size="14.00"> IDENT</text>
<polygon fill="#101510" fill-opacity="0.203922" stroke="none" points="329.75,-136 329.75,-165.5 447,-165.5 447,-136 329.75,-136"/>
<polygon fill="none" stroke="#101510" points="329.75,-136 329.75,-165.5 447,-165.5 447,-136 329.75,-136"/>
<text xml:space="preserve" text-anchor="start" x="334.75" y="-148.2" font-family="monospace" font-weight="bold" font-size="14.00">value:</text>
<text xml:space="preserve" text-anchor="start" x="384.25" y="-148.2" font-family="monospace" font-size="14.00"> param1</text>
</g>
<!-- node0x7c02777e33d0&#45;&gt;node0x7c02777e3390 -->
<g id="edge8" class="edge">
<title>node0x7c02777e33d0&#45;&gt;node0x7c02777e3390</title>
<path fill="none" stroke="#2222e0" stroke-width="2.5" d="M388.38,-252.12C388.38,-252.12 388.38,-210.71 388.38,-210.71"/>
<polygon fill="#2222e0" stroke="#2222e0" stroke-width="2.5" points="388.38,-260.12 384.78,-252.12 387.63,-259.16 387.63,-252.12 388.38,-252.12 389.13,-252.12 389.13,-259.16 391.98,-252.12 388.38,-260.12"/>
<polygon fill="#2222e0" stroke="#2222e0" stroke-width="2.5" points="388.38,-202.71 391.98,-210.71 389.13,-203.66 389.13,-210.71 388.38,-210.71 387.63,-210.71 387.63,-203.66 384.78,-210.71 388.38,-202.71"/>
</g>
<!-- node0x7c02777e36d0 -->
<g id="node11" class="node">
<title>node0x7c02777e36d0</title>
<path fill="#f9e2af" stroke="#101510" stroke-width="2.1" d="M641.38,-199C641.38,-199 507.38,-199 507.38,-199 501.38,-199 495.38,-193 495.38,-187 495.38,-187 495.38,-144 495.38,-144 495.38,-138 501.38,-132 507.38,-132 507.38,-132 641.38,-132 641.38,-132 647.38,-132 653.38,-138 653.38,-144 653.38,-144 653.38,-187 653.38,-187 653.38,-193 647.38,-199 641.38,-199"/>
<polygon fill="#101510" fill-opacity="0.203922" stroke="none" points="503.38,-165.5 503.38,-195 645.38,-195 645.38,-165.5 503.38,-165.5"/>
<polygon fill="none" stroke="#101510" points="503.38,-165.5 503.38,-195 645.38,-195 645.38,-165.5 503.38,-165.5"/>
<text xml:space="preserve" text-anchor="start" x="533.12" y="-177.7" font-family="monospace" font-weight="bold" font-size="14.00">type:</text>
<text xml:space="preserve" text-anchor="start" x="574.38" y="-177.7" font-family="monospace" font-size="14.00"> CTRL</text>
<polygon fill="#101510" fill-opacity="0.203922" stroke="none" points="503.38,-136 503.38,-165.5 645.38,-165.5 645.38,-136 503.38,-136"/>
<polygon fill="none" stroke="#101510" points="503.38,-136 503.38,-165.5 645.38,-165.5 645.38,-136 503.38,-136"/>
<text xml:space="preserve" text-anchor="start" x="508.38" y="-148.2" font-family="monospace" font-weight="bold" font-size="14.00">value:</text>
<text xml:space="preserve" text-anchor="start" x="557.88" y="-148.2" font-family="monospace" font-size="14.00"> parameter</text>
</g>
<!-- node0x7c02777e3710&#45;&gt;node0x7c02777e36d0 -->
<g id="edge10" class="edge">
<title>node0x7c02777e3710&#45;&gt;node0x7c02777e36d0</title>
<path fill="none" stroke="#2222e0" stroke-width="2.5" d="M571.38,-252.12C571.38,-252.12 571.38,-210.71 571.38,-210.71"/>
<polygon fill="#2222e0" stroke="#2222e0" stroke-width="2.5" points="571.38,-260.12 567.78,-252.12 570.63,-259.16 570.63,-252.12 571.38,-252.12 572.13,-252.12 572.13,-259.16 574.98,-252.12 571.38,-260.12"/>
<polygon fill="#2222e0" stroke="#2222e0" stroke-width="2.5" points="571.38,-202.71 574.98,-210.71 572.13,-203.66 572.13,-210.71 571.38,-210.71 570.63,-210.71 570.63,-203.66 567.78,-210.71 571.38,-202.71"/>
</g>
<!-- node0x7c02777e3650 -->
<g id="node12" class="node">
<title>node0x7c02777e3650</title>
<path fill="#fab387" stroke="#101510" stroke-width="2.1" d="M537.75,-67C537.75,-67 445,-67 445,-67 439,-67 433,-61 433,-55 433,-55 433,-12 433,-12 433,-6 439,0 445,0 445,0 537.75,0 537.75,0 543.75,0 549.75,-6 549.75,-12 549.75,-12 549.75,-55 549.75,-55 549.75,-61 543.75,-67 537.75,-67"/>
<polygon fill="#101510" fill-opacity="0.203922" stroke="none" points="441,-33.5 441,-63 541.75,-63 541.75,-33.5 441,-33.5"/>
<polygon fill="none" stroke="#101510" points="441,-33.5 441,-63 541.75,-63 541.75,-33.5 441,-33.5"/>
<text xml:space="preserve" text-anchor="start" x="450.12" y="-45.7" font-family="monospace" font-weight="bold" font-size="14.00">type:</text>
<text xml:space="preserve" text-anchor="start" x="491.38" y="-45.7" font-family="monospace" font-size="14.00"> TYPE</text>
<polygon fill="#101510" fill-opacity="0.203922" stroke="none" points="441,-4 441,-33.5 541.75,-33.5 541.75,-4 441,-4"/>
<polygon fill="none" stroke="#101510" points="441,-4 441,-33.5 541.75,-33.5 541.75,-4 441,-4"/>
<text xml:space="preserve" text-anchor="start" x="446" y="-16.2" font-family="monospace" font-weight="bold" font-size="14.00">value:</text>
<text xml:space="preserve" text-anchor="start" x="495.5" y="-16.2" font-family="monospace" font-size="14.00"> frac</text>
</g>
<!-- node0x7c02777e36d0&#45;&gt;node0x7c02777e3650 -->
<g id="edge11" class="edge">
<title>node0x7c02777e36d0&#45;&gt;node0x7c02777e3650</title>
<path fill="none" stroke="#2222e0" stroke-width="2.5" d="M522.56,-120.12C522.56,-120.12 522.56,-78.71 522.56,-78.71"/>
<polygon fill="#2222e0" stroke="#2222e0" stroke-width="2.5" points="522.56,-128.12 518.96,-120.12 521.81,-127.16 521.81,-120.12 522.56,-120.12 523.31,-120.12 523.31,-127.16 526.16,-120.12 522.56,-128.12"/>
<polygon fill="#2222e0" stroke="#2222e0" stroke-width="2.5" points="522.56,-70.71 526.16,-78.71 523.31,-71.66 523.31,-78.71 522.56,-78.71 521.81,-78.71 521.81,-71.66 518.96,-78.71 522.56,-70.71"/>
</g>
<!-- node0x7c02777e3690 -->
<g id="node13" class="node">
<title>node0x7c02777e3690</title>
<path fill="#b581f4" stroke="#101510" stroke-width="2.1" d="M711,-67C711,-67 601.75,-67 601.75,-67 595.75,-67 589.75,-61 589.75,-55 589.75,-55 589.75,-12 589.75,-12 589.75,-6 595.75,0 601.75,0 601.75,0 711,0 711,0 717,0 723,-6 723,-12 723,-12 723,-55 723,-55 723,-61 717,-67 711,-67"/>
<polygon fill="#101510" fill-opacity="0.203922" stroke="none" points="597.75,-33.5 597.75,-63 715,-63 715,-33.5 597.75,-33.5"/>
<polygon fill="none" stroke="#101510" points="597.75,-33.5 597.75,-63 715,-63 715,-33.5 597.75,-33.5"/>
<text xml:space="preserve" text-anchor="start" x="611" y="-45.7" font-family="monospace" font-weight="bold" font-size="14.00">type:</text>
<text xml:space="preserve" text-anchor="start" x="652.25" y="-45.7" font-family="monospace" font-size="14.00"> IDENT</text>
<polygon fill="#101510" fill-opacity="0.203922" stroke="none" points="597.75,-4 597.75,-33.5 715,-33.5 715,-4 597.75,-4"/>
<polygon fill="none" stroke="#101510" points="597.75,-4 597.75,-33.5 715,-33.5 715,-4 597.75,-4"/>
<text xml:space="preserve" text-anchor="start" x="602.75" y="-16.2" font-family="monospace" font-weight="bold" font-size="14.00">value:</text>
<text xml:space="preserve" text-anchor="start" x="652.25" y="-16.2" font-family="monospace" font-size="14.00"> param2</text>
</g>
<!-- node0x7c02777e36d0&#45;&gt;node0x7c02777e3690 -->
<g id="edge12" class="edge">
<title>node0x7c02777e36d0&#45;&gt;node0x7c02777e3690</title>
<path fill="none" stroke="#2222e0" stroke-width="2.5" d="M621.56,-120.12C621.56,-120.12 621.56,-78.71 621.56,-78.71"/>
<polygon fill="#2222e0" stroke="#2222e0" stroke-width="2.5" points="621.56,-128.12 617.96,-120.12 620.81,-127.16 620.81,-120.12 621.56,-120.12 622.31,-120.12 622.31,-127.16 625.16,-120.12 621.56,-128.12"/>
<polygon fill="#2222e0" stroke="#2222e0" stroke-width="2.5" points="621.56,-70.71 625.16,-78.71 622.31,-71.66 622.31,-78.71 621.56,-78.71 620.81,-78.71 620.81,-71.66 617.96,-78.71 621.56,-70.71"/>
</g>
<!-- node0x7c02777e34d0 -->
<g id="node15" class="node">
<title>node0x7c02777e34d0</title>
<path fill="#f9e2af" stroke="#101510" stroke-width="2.1" d="M652.62,-463C652.62,-463 568.12,-463 568.12,-463 562.12,-463 556.12,-457 556.12,-451 556.12,-451 556.12,-408 556.12,-408 556.12,-402 562.12,-396 568.12,-396 568.12,-396 652.62,-396 652.62,-396 658.62,-396 664.62,-402 664.62,-408 664.62,-408 664.62,-451 664.62,-451 664.62,-457 658.62,-463 652.62,-463"/>
<polygon fill="#101510" fill-opacity="0.203922" stroke="none" points="564.12,-429.5 564.12,-459 656.62,-459 656.62,-429.5 564.12,-429.5"/>
<polygon fill="none" stroke="#101510" points="564.12,-429.5 564.12,-459 656.62,-459 656.62,-429.5 564.12,-429.5"/>
<text xml:space="preserve" text-anchor="start" x="569.12" y="-441.7" font-family="monospace" font-weight="bold" font-size="14.00">type:</text>
<text xml:space="preserve" text-anchor="start" x="610.38" y="-441.7" font-family="monospace" font-size="14.00"> CTRL</text>
<polygon fill="#101510" fill-opacity="0.203922" stroke="none" points="564.12,-400 564.12,-429.5 656.62,-429.5 656.62,-400 564.12,-400"/>
<polygon fill="none" stroke="#101510" points="564.12,-400 564.12,-429.5 656.62,-429.5 656.62,-400 564.12,-400"/>
<text xml:space="preserve" text-anchor="start" x="577.38" y="-412.2" font-family="monospace" font-weight="bold" font-size="14.00">value:</text>
<text xml:space="preserve" text-anchor="start" x="626.88" y="-412.2" font-family="monospace" font-size="14.00"> ;</text>
</g>
<!-- node0x7c02777e3510&#45;&gt;node0x7c02777e34d0 -->
<g id="edge14" class="edge">
<title>node0x7c02777e3510&#45;&gt;node0x7c02777e34d0</title>
<path fill="none" stroke="#2222e0" stroke-width="2.5" d="M427.12,-515.92C427.12,-515.92 427.12,-441 427.12,-441 427.12,-441 544.35,-441 544.35,-441"/>
<polygon fill="#2222e0" stroke="#2222e0" stroke-width="2.5" points="427.13,-523.92 423.53,-515.92 426.38,-522.97 426.38,-515.92 427.13,-515.92 427.88,-515.92 427.88,-522.97 430.73,-515.92 427.13,-523.92"/>
<polygon fill="#2222e0" stroke="#2222e0" stroke-width="2.5" points="552.35,-441 544.35,-444.6 551.39,-441.75 544.35,-441.75 544.35,-441 544.35,-440.25 551.39,-440.25 544.35,-437.4 552.35,-441"/>
</g>
<!-- node0x7c02777e3610 -->
<g id="node17" class="node">
<title>node0x7c02777e3610</title>
<path fill="#f9e2af" stroke="#101510" stroke-width="2.1" d="M874.62,-463C874.62,-463 790.12,-463 790.12,-463 784.12,-463 778.12,-457 778.12,-451 778.12,-451 778.12,-408 778.12,-408 778.12,-402 784.12,-396 790.12,-396 790.12,-396 874.62,-396 874.62,-396 880.62,-396 886.62,-402 886.62,-408 886.62,-408 886.62,-451 886.62,-451 886.62,-457 880.62,-463 874.62,-463"/>
<polygon fill="#101510" fill-opacity="0.203922" stroke="none" points="786.12,-429.5 786.12,-459 878.62,-459 878.62,-429.5 786.12,-429.5"/>
<polygon fill="none" stroke="#101510" points="786.12,-429.5 786.12,-459 878.62,-459 878.62,-429.5 786.12,-429.5"/>
<text xml:space="preserve" text-anchor="start" x="791.12" y="-441.7" font-family="monospace" font-weight="bold" font-size="14.00">type:</text>
<text xml:space="preserve" text-anchor="start" x="832.38" y="-441.7" font-family="monospace" font-size="14.00"> CTRL</text>
<polygon fill="#101510" fill-opacity="0.203922" stroke="none" points="786.12,-400 786.12,-429.5 878.62,-429.5 878.62,-400 786.12,-400"/>
<polygon fill="none" stroke="#101510" points="786.12,-400 786.12,-429.5 878.62,-429.5 878.62,-400 786.12,-400"/>
<text xml:space="preserve" text-anchor="start" x="799.38" y="-412.2" font-family="monospace" font-weight="bold" font-size="14.00">value:</text>
<text xml:space="preserve" text-anchor="start" x="848.88" y="-412.2" font-family="monospace" font-size="14.00"> ;</text>
</g>
<!-- node0x7c02777e3510&#45;&gt;node0x7c02777e3610 -->
<g id="edge16" class="edge">
<title>node0x7c02777e3510&#45;&gt;node0x7c02777e3610</title>
<path fill="none" stroke="#2222e0" stroke-width="2.5" d="M471.37,-562C471.37,-562 832.38,-562 832.38,-562 832.38,-562 832.38,-475.01 832.38,-475.01"/>
<polygon fill="#2222e0" stroke="#2222e0" stroke-width="2.5" points="463.37,-562 471.37,-558.4 464.32,-561.25 471.37,-561.25 471.37,-562 471.37,-562.75 464.32,-562.75 471.37,-565.6 463.37,-562"/>
<polygon fill="#2222e0" stroke="#2222e0" stroke-width="2.5" points="832.38,-467.01 835.98,-475.01 833.13,-467.97 833.13,-475.01 832.38,-475.01 831.63,-475.01 831.63,-467.97 828.78,-475.01 832.38,-467.01"/>
</g>
<!-- node0x7c02777e3490 -->
<g id="node16" class="node">
<title>node0x7c02777e3490</title>
<path fill="#b581f4" stroke="#101510" stroke-width="2.1" d="M787,-331C787,-331 677.75,-331 677.75,-331 671.75,-331 665.75,-325 665.75,-319 665.75,-319 665.75,-276 665.75,-276 665.75,-270 671.75,-264 677.75,-264 677.75,-264 787,-264 787,-264 793,-264 799,-270 799,-276 799,-276 799,-319 799,-319 799,-325 793,-331 787,-331"/>
<polygon fill="#101510" fill-opacity="0.203922" stroke="none" points="673.75,-297.5 673.75,-327 791,-327 791,-297.5 673.75,-297.5"/>
<polygon fill="none" stroke="#101510" points="673.75,-297.5 673.75,-327 791,-327 791,-297.5 673.75,-297.5"/>
<text xml:space="preserve" text-anchor="start" x="687" y="-309.7" font-family="monospace" font-weight="bold" font-size="14.00">type:</text>
<text xml:space="preserve" text-anchor="start" x="728.25" y="-309.7" font-family="monospace" font-size="14.00"> IDENT</text>
<polygon fill="#101510" fill-opacity="0.203922" stroke="none" points="673.75,-268 673.75,-297.5 791,-297.5 791,-268 673.75,-268"/>
<polygon fill="none" stroke="#101510" points="673.75,-268 673.75,-297.5 791,-297.5 791,-268 673.75,-268"/>
<text xml:space="preserve" text-anchor="start" x="678.75" y="-280.2" font-family="monospace" font-weight="bold" font-size="14.00">value:</text>
<text xml:space="preserve" text-anchor="start" x="728.25" y="-280.2" font-family="monospace" font-size="14.00"> param1</text>
</g>
<!-- node0x7c02777e34d0&#45;&gt;node0x7c02777e3490 -->
<g id="edge15" class="edge">
<title>node0x7c02777e34d0&#45;&gt;node0x7c02777e3490</title>
<path fill="none" stroke="#2222e0" stroke-width="2.5" d="M659,-384.25C659,-384.25 659,-298 659,-298 659,-298 659.58,-298 659.58,-298"/>
<polygon fill="#2222e0" stroke="#2222e0" stroke-width="2.5" points="659,-392.25 655.4,-384.25 658.25,-391.29 658.25,-384.25 659,-384.25 659.75,-384.25 659.75,-391.29 662.6,-384.25 659,-392.25"/>
<polygon fill="#2222e0" stroke="#2222e0" stroke-width="2.5" points="661.71,-298 653.71,-301.6 660.76,-298.75 653.71,-298.75 653.71,-298 653.71,-297.25 660.76,-297.25 653.71,-294.4 661.71,-298"/>
</g>
<!-- node0x7c02777e35d0 -->
<g id="node18" class="node">
<title>node0x7c02777e35d0</title>
<path fill="#f9e2af" stroke="#101510" stroke-width="2.1" d="M960,-331C960,-331 850.75,-331 850.75,-331 844.75,-331 838.75,-325 838.75,-319 838.75,-319 838.75,-276 838.75,-276 838.75,-270 844.75,-264 850.75,-264 850.75,-264 960,-264 960,-264 966,-264 972,-270 972,-276 972,-276 972,-319 972,-319 972,-325 966,-331 960,-331"/>
<polygon fill="#101510" fill-opacity="0.203922" stroke="none" points="846.75,-297.5 846.75,-327 964,-327 964,-297.5 846.75,-297.5"/>
<polygon fill="none" stroke="#101510" points="846.75,-297.5 846.75,-327 964,-327 964,-297.5 846.75,-297.5"/>
<text xml:space="preserve" text-anchor="start" x="864.12" y="-309.7" font-family="monospace" font-weight="bold" font-size="14.00">type:</text>
<text xml:space="preserve" text-anchor="start" x="905.38" y="-309.7" font-family="monospace" font-size="14.00"> CTRL</text>
<polygon fill="#101510" fill-opacity="0.203922" stroke="none" points="846.75,-268 846.75,-297.5 964,-297.5 964,-268 846.75,-268"/>
<polygon fill="none" stroke="#101510" points="846.75,-268 846.75,-297.5 964,-297.5 964,-268 846.75,-268"/>
<text xml:space="preserve" text-anchor="start" x="851.75" y="-280.2" font-family="monospace" font-weight="bold" font-size="14.00">value:</text>
<text xml:space="preserve" text-anchor="start" x="901.25" y="-280.2" font-family="monospace" font-size="14.00"> return</text>
</g>
<!-- node0x7c02777e3610&#45;&gt;node0x7c02777e35d0 -->
<g id="edge17" class="edge">
<title>node0x7c02777e3610&#45;&gt;node0x7c02777e35d0</title>
<path fill="none" stroke="#2222e0" stroke-width="2.5" d="M862.69,-384.12C862.69,-384.12 862.69,-342.71 862.69,-342.71"/>
<polygon fill="#2222e0" stroke="#2222e0" stroke-width="2.5" points="862.69,-392.12 859.09,-384.12 861.94,-391.16 861.94,-384.12 862.69,-384.12 863.44,-384.12 863.44,-391.16 866.29,-384.12 862.69,-392.12"/>
<polygon fill="#2222e0" stroke="#2222e0" stroke-width="2.5" points="862.69,-334.71 866.29,-342.71 863.44,-335.66 863.44,-342.71 862.69,-342.71 861.94,-342.71 861.94,-335.66 859.09,-342.71 862.69,-334.71"/>
</g>
<!-- node0x7c02777e3590 -->
<g id="node19" class="node">
<title>node0x7c02777e3590</title>
<path fill="#b581f4" stroke="#101510" stroke-width="2.1" d="M889,-199C889,-199 779.75,-199 779.75,-199 773.75,-199 767.75,-193 767.75,-187 767.75,-187 767.75,-144 767.75,-144 767.75,-138 773.75,-132 779.75,-132 779.75,-132 889,-132 889,-132 895,-132 901,-138 901,-144 901,-144 901,-187 901,-187 901,-193 895,-199 889,-199"/>
<polygon fill="#101510" fill-opacity="0.203922" stroke="none" points="775.75,-165.5 775.75,-195 893,-195 893,-165.5 775.75,-165.5"/>
<polygon fill="none" stroke="#101510" points="775.75,-165.5 775.75,-195 893,-195 893,-165.5 775.75,-165.5"/>
<text xml:space="preserve" text-anchor="start" x="789" y="-177.7" font-family="monospace" font-weight="bold" font-size="14.00">type:</text>
<text xml:space="preserve" text-anchor="start" x="830.25" y="-177.7" font-family="monospace" font-size="14.00"> IDENT</text>
<polygon fill="#101510" fill-opacity="0.203922" stroke="none" points="775.75,-136 775.75,-165.5 893,-165.5 893,-136 775.75,-136"/>
<polygon fill="none" stroke="#101510" points="775.75,-136 775.75,-165.5 893,-165.5 893,-136 775.75,-136"/>
<text xml:space="preserve" text-anchor="start" x="780.75" y="-148.2" font-family="monospace" font-weight="bold" font-size="14.00">value:</text>
<text xml:space="preserve" text-anchor="start" x="830.25" y="-148.2" font-family="monospace" font-size="14.00"> param2</text>
</g>
<!-- node0x7c02777e35d0&#45;&gt;node0x7c02777e3590 -->
<g id="edge18" class="edge">
<title>node0x7c02777e35d0&#45;&gt;node0x7c02777e3590</title>
<path fill="none" stroke="#2222e0" stroke-width="2.5" d="M869.88,-252.12C869.88,-252.12 869.88,-210.71 869.88,-210.71"/>
<polygon fill="#2222e0" stroke="#2222e0" stroke-width="2.5" points="869.88,-260.12 866.28,-252.12 869.13,-259.16 869.13,-252.12 869.88,-252.12 870.63,-252.12 870.63,-259.16 873.48,-252.12 869.88,-260.12"/>
<polygon fill="#2222e0" stroke="#2222e0" stroke-width="2.5" points="869.88,-202.71 873.48,-210.71 870.63,-203.66 870.63,-210.71 869.88,-210.71 869.13,-210.71 869.13,-203.66 866.28,-210.71 869.88,-202.71"/>
</g>
</g>
</svg>
