<?xml version="1.0" encoding="UTF-8" standalone="no"?>
<!DOCTYPE svg PUBLIC "-//W3C//DTD SVG 1.1//EN"
 "http://www.w3.org/Graphics/SVG/1.1/DTD/svg11.dtd">
<!-- Generated by graphviz version 14.1.5 (0)
 -->
<!-- Title: G Pages: 1 -->
<svg width="382pt" height="499pt"
 viewBox="0.00 0.00 382.00 499.00" xmlns="http://www.w3.org/2000/svg" xmlns:xlink="http://www.w3.org/1999/xlink">
<g id="graph0" class="graph" transform="scale(1 1) rotate(0) translate(18 481)">
<title>G</title>
<polygon fill="#ffffff" stroke="none" points="-18,18 -18,-481 363.75,-481 363.75,18 -18,18"/>
<!-- node0x7be3dd1e0c20 -->
<g id="node1" class="node">
<title>node0x7be3dd1e0c20</title>
<path fill="#f9e2af" stroke="#101510" stroke-width="2.1" d="M195.25,-463C195.25,-463 61.25,-463 61.25,-463 55.25,-463 49.25,-457 49.25,-451 49.25,-451 49.25,-408 49.25,-408 49.25,-402 55.25,-396 61.25,-396 61.25,-396 195.25,-396 195.25,-396 201.25,-396 207.25,-402 207.25,-408 207.25,-408 207.25,-451 207.25,-451 207.25,-457 201.25,-463 195.25,-463"/>
<polygon fill="#101510" fill-opacity="0.203922" stroke="none" points="57.25,-429.5 57.25,-459 199.25,-459 199.25,-429.5 57.25,-429.5"/>
<polygon fill="none" stroke="#101510" points="57.25,-429.5 57.25,-459 199.25,-459 199.25,-429.5 57.25,-429.5"/>
<text xml:space="preserve" text-anchor="start" x="91.12" y="-441.7" font-family="monospace" font-weight="bold" font-size="14.00">type:</text>
<text xml:space="preserve" text-anchor="start" x="132.38" y="-441.7" font-family="monospace" font-size="14.00">CTRL</text>
<polygon fill="#101510" fill-opacity="0.203922" stroke="none" points="57.25,-400 57.25,-429.5 199.25,-429.5 199.25,-400 57.25,-400"/>
<polygon fill="none" stroke="#101510" points="57.25,-400 57.25,-429.5 199.25,-429.5 199.25,-400 57.25,-400"/>
<text xml:space="preserve" text-anchor="start" x="62.25" y="-412.2" font-family="monospace" font-weight="bold" font-size="14.00">value:</text>
<text xml:space="preserve" text-anchor="start" x="111.75" y="-412.2" font-family="monospace" font-size="14.00"> func_call</text>
</g>
<!-- node0x7be3dd1e0b00 -->
<g id="node2" class="node">
<title>node0x7be3dd1e0b00</title>
<path fill="#b581f4" stroke="#101510" stroke-width="2.1" d="M96.5,-331C96.5,-331 12,-331 12,-331 6,-331 0,-325 0,-319 0,-319 0,-276 0,-276 0,-270 6,-264 12,-264 12,-264 96.5,-264 96.5,-264 102.5,-264 108.5,-270 108.5,-276 108.5,-276 108.5,-319 108.5,-319 108.5,-325 102.5,-331 96.5,-331"/>
<polygon fill="#101510" fill-opacity="0.203922" stroke="none" points="8,-297.5 8,-327 100.5,-327 100.5,-297.5 8,-297.5"/>
<polygon fill="none" stroke="#101510" points="8,-297.5 8,-327 100.5,-327 100.5,-297.5 8,-297.5"/>
<text xml:space="preserve" text-anchor="start" x="13" y="-309.7" font-family="monospace" font-weight="bold" font-size="14.00">type:</text>
<text xml:space="preserve" text-anchor="start" x="54.25" y="-309.7" font-family="monospace" font-size="14.00">IDENT</text>
<polygon fill="#101510" fill-opacity="0.203922" stroke="none" points="8,-268 8,-297.5 100.5,-297.5 100.5,-268 8,-268"/>
<polygon fill="none" stroke="#101510" points="8,-268 8,-297.5 100.5,-297.5 100.5,-268 8,-268"/>
<text xml:space="preserve" text-anchor="start" x="13" y="-280.2" font-family="monospace" font-weight="bold" font-size="14.00">value:</text>
<text xml:space="preserve" text-anchor="start" x="62.5" y="-280.2" font-family="monospace" font-size="14.00"> foo</text>
</g>
<!-- node0x7be3dd1e0c20&#45;&gt;node0x7be3dd1e0b00 -->
<g id="edge1" class="edge">
<title>node0x7be3dd1e0c20&#45;&gt;node0x7be3dd1e0b00</title>
<path fill="none" stroke="#2222e0" stroke-width="2.5" d="M78.88,-384.12C78.88,-384.12 78.88,-342.71 78.88,-342.71"/>
<polygon fill="#2222e0" stroke="#2222e0" stroke-width="2.5" points="78.88,-392.12 75.28,-384.12 78.13,-391.16 78.13,-384.12 78.88,-384.12 79.63,-384.12 79.63,-391.16 82.48,-384.12 78.88,-392.12"/>
<polygon fill="#2222e0" stroke="#2222e0" stroke-width="2.5" points="78.88,-334.71 82.48,-342.71 79.63,-335.66 79.63,-342.71 78.88,-342.71 78.13,-342.71 78.13,-335.66 75.28,-342.71 78.88,-334.71"/>
</g>
<!-- node0x7be3dd1e0bc0 -->
<g id="node3" class="node">
<title>node0x7be3dd1e0bc0</title>
<path fill="#f9e2af" stroke="#101510" stroke-width="2.1" d="M245.5,-331C245.5,-331 161,-331 161,-331 155,-331 149,-325 149,-319 149,-319 149,-276 149,-276 149,-270 155,-264 161,-264 161,-264 245.5,-264 245.5,-264 251.5,-264 257.5,-270 257.5,-276 257.5,-276 257.5,-319 257.5,-319 257.5,-325 251.5,-331 245.5,-331"/>
<polygon fill="#101510" fill-opacity="0.203922" stroke="none" points="157,-297.5 157,-327 249.5,-327 249.5,-297.5 157,-297.5"/>
<polygon fill="none" stroke="#101510" points="157,-297.5 157,-327 249.5,-327 249.5,-297.5 157,-297.5"/>
<text xml:space="preserve" text-anchor="start" x="166.12" y="-309.7" font-family="monospace" font-weight="bold" font-size="14.00">type:</text>
<text xml:space="preserve" text-anchor="start" x="207.38" y="-309.7" font-family="monospace" font-size="14.00">CTRL</text>
<polygon fill="#101510" fill-opacity="0.203922" stroke="none" points="157,-268 157,-297.5 249.5,-297.5 249.5,-268 157,-268"/>
<polygon fill="none" stroke="#101510" points="157,-268 157,-297.5 249.5,-297.5 249.5,-268 157,-268"/>
<text xml:space="preserve" text-anchor="start" x="162" y="-280.2" font-family="monospace" font-weight="bold" font-size="14.00">value:</text>
<text xml:space="preserve" text-anchor="start" x="211.5" y="-280.2" font-family="monospace" font-size="14.00"> arg</text>
</g>
<!-- node0x7be3dd1e0c20&#45;&gt;node0x7be3dd1e0bc0 -->
<g id="edge2" class="edge">
<title>node0x7be3dd1e0c20&#45;&gt;node0x7be3dd1e0bc0</title>
<path fill="none" stroke="#2222e0" stroke-width="2.5" d="M178.12,-384.12C178.12,-384.12 178.12,-342.71 178.12,-342.71"/>
<polygon fill="#2222e0" stroke="#2222e0" stroke-width="2.5" points="178.13,-392.12 174.53,-384.12 177.38,-391.16 177.38,-384.12 178.13,-384.12 178.88,-384.12 178.88,-391.16 181.73,-384.12 178.13,-392.12"/>
<polygon fill="#2222e0" stroke="#2222e0" stroke-width="2.5" points="178.13,-334.71 181.73,-342.71 178.88,-335.66 178.88,-342.71 178.13,-342.71 177.38,-342.71 177.38,-335.66 174.53,-342.71 178.13,-334.71"/>
</g>
<!-- node0x7be3dd1e0b60 -->
<g id="node4" class="node">
<title>node0x7be3dd1e0b60</title>
<path fill="#b581f4" stroke="#101510" stroke-width="2.1" d="M176.88,-199C176.88,-199 67.62,-199 67.62,-199 61.62,-199 55.63,-193 55.63,-187 55.63,-187 55.63,-144 55.63,-144 55.63,-138 61.63,-132 67.63,-132 67.63,-132 176.88,-132 176.88,-132 182.88,-132 188.88,-138 188.88,-144 188.88,-144 188.88,-187 188.88,-187 188.88,-193 182.88,-199 176.88,-199"/>
<polygon fill="#101510" fill-opacity="0.203922" stroke="none" points="63.63,-165.5 63.63,-195 180.88,-195 180.88,-165.5 63.63,-165.5"/>
<polygon fill="none" stroke="#101510" points="63.63,-165.5 63.63,-195 180.88,-195 180.88,-165.5 63.63,-165.5"/>
<text xml:space="preserve" text-anchor="start" x="81" y="-177.7" font-family="monospace" font-weight="bold" font-size="14.00">type:</text>
<text xml:space="preserve" text-anchor="start" x="122.25" y="-177.7" font-family="monospace" font-size="14.00">IDENT</text>
<polygon fill="#101510" fill-opacity="0.203922" stroke="none" points="63.63,-136 63.63,-165.5 180.88,-165.5 180.88,-136 63.63,-136"/>
<polygon fill="none" stroke="#101510" points="63.63,-136 63.63,-165.5 180.88,-165.5 180.88,-136 63.63,-136"/>
<text xml:space="preserve" text-anchor="start" x="68.62" y="-148.2" font-family="monospace" font-weight="bold" font-size="14.00">value:</text>
<text xml:space="preserve" text-anchor="start" x="118.12" y="-148.2" font-family="monospace" font-size="14.00"> second</text>
</g>
<!-- node0x7be3dd1e0bc0&#45;&gt;node0x7be3dd1e0b60 -->
<g id="edge3" class="edge">
<title>node0x7be3dd1e0bc0&#45;&gt;node0x7be3dd1e0b60</title>
<path fill="none" stroke="#2222e0" stroke-width="2.5" d="M168.94,-252.12C168.94,-252.12 168.94,-210.71 168.94,-210.71"/>
<polygon fill="#2222e0" stroke="#2222e0" stroke-width="2.5" points="168.94,-260.12 165.34,-252.12 168.19,-259.16 168.19,-252.12 168.94,-252.12 169.69,-252.12 169.69,-259.16 172.54,-252.12 168.94,-260.12"/>
<polygon fill="#2222e0" stroke="#2222e0" stroke-width="2.5" points="168.94,-202.71 172.54,-210.71 169.69,-203.66 169.69,-210.71 168.94,-210.71 168.19,-210.71 168.19,-203.66 165.34,-210.71 168.94,-202.71"/>
</g>
<!-- node0x7be3dd1e0ce0 -->
<g id="node5" class="node">
<title>node0x7be3dd1e0ce0</title>
<path fill="#f9e2af" stroke="#101510" stroke-width="2.1" d="M325.5,-199C325.5,-199 241,-199 241,-199 235,-199 229,-193 229,-187 229,-187 229,-144 229,-144 229,-138 235,-132 241,-132 241,-132 325.5,-132 325.5,-132 331.5,-132 337.5,-138 337.5,-144 337.5,-144 337.5,-187 337.5,-187 337.5,-193 331.5,-199 325.5,-199"/>
<polygon fill="#101510" fill-opacity="0.203922" stroke="none" points="237,-165.5 237,-195 329.5,-195 329.5,-165.5 237,-165.5"/>
<polygon fill="none" stroke="#101510" points="237,-165.5 237,-195 329.5,-195 329.5,-165.5 237,-165.5"/>
<text xml:space="preserve" text-anchor="start" x="246.12" y="-177.7" font-family="monospace" font-weight="bold" font-size="14.00">type:</text>
<text xml:space="preserve" text-anchor="start" x="287.38" y="-177.7" font-family="monospace" font-size="14.00">CTRL</text>
<polygon fill="#101510" fill-opacity="0.203922" stroke="none" points="237,-136 237,-165.5 329.5,-165.5 329.5,-136 237,-136"/>
<polygon fill="none" stroke="#101510" points="237,-136 237,-165.5 329.5,-165.5 329.5,-136 237,-136"/>
<text xml:space="preserve" text-anchor="start" x="242" y="-148.2" font-family="monospace" font-weight="bold" font-size="14.00">value:</text>
<text xml:space="preserve" text-anchor="start" x="291.5" y="-148.2" font-family="monospace" font-size="14.00"> arg</text>
</g>
<!-- node0x7be3dd1e0bc0&#45;&gt;node0x7be3dd1e0ce0 -->
<g id="edge4" class="edge">
<title>node0x7be3dd1e0bc0&#45;&gt;node0x7be3dd1e0ce0</title>
<path fill="none" stroke="#2222e0" stroke-width="2.5" d="M243.25,-252.12C243.25,-252.12 243.25,-210.71 243.25,-210.71"/>
<polygon fill="#2222e0" stroke="#2222e0" stroke-width="2.5" points="243.25,-260.12 239.65,-252.12 242.5,-259.16 242.5,-252.12 243.25,-252.12 244,-252.12 244,-259.16 246.85,-252.12 243.25,-260.12"/>
<polygon fill="#2222e0" stroke="#2222e0" stroke-width="2.5" points="243.25,-202.71 246.85,-210.71 244,-203.66 244,-210.71 243.25,-210.71 242.5,-210.71 242.5,-203.66 239.65,-210.71 243.25,-202.71"/>
</g>
<!-- node0x7be3dd1e0c80 -->
<g id="node6" class="node">
<title>node0x7be3dd1e0c80</title>
<path fill="#b581f4" stroke="#101510" stroke-width="2.1" d="M333.75,-67C333.75,-67 232.75,-67 232.75,-67 226.75,-67 220.75,-61 220.75,-55 220.75,-55 220.75,-12 220.75,-12 220.75,-6 226.75,0 232.75,0 232.75,0 333.75,0 333.75,0 339.75,0 345.75,-6 345.75,-12 345.75,-12 345.75,-55 345.75,-55 345.75,-61 339.75,-67 333.75,-67"/>
<polygon fill="#101510" fill-opacity="0.203922" stroke="none" points="228.75,-33.5 228.75,-63 337.75,-63 337.75,-33.5 228.75,-33.5"/>
<polygon fill="none" stroke="#101510" points="228.75,-33.5 228.75,-63 337.75,-63 337.75,-33.5 228.75,-33.5"/>
<text xml:space="preserve" text-anchor="start" x="242" y="-45.7" font-family="monospace" font-weight="bold" font-size="14.00">type:</text>
<text xml:space="preserve" text-anchor="start" x="283.25" y="-45.7" font-family="monospace" font-size="14.00">IDENT</text>
<polygon fill="#101510" fill-opacity="0.203922" stroke="none" points="228.75,-4 228.75,-33.5 337.75,-33.5 337.75,-4 228.75,-4"/>
<polygon fill="none" stroke="#101510" points="228.75,-4 228.75,-33.5 337.75,-33.5 337.75,-4 228.75,-4"/>
<text xml:space="preserve" text-anchor="start" x="233.75" y="-16.2" font-family="monospace" font-weight="bold" font-size="14.00">value:</text>
<text xml:space="preserve" text-anchor="start" x="283.25" y="-16.2" font-family="monospace" font-size="14.00"> first</text>
</g>
<!-- node0x7be3dd1e0ce0&#45;&gt;node0x7be3dd1e0c80 -->
<g id="edge5" class="edge">
<title>node0x7be3dd1e0ce0&#45;&gt;node0x7be3dd1e0c80</title>
<path fill="none" stroke="#2222e0" stroke-width="2.5" d="M283.25,-120.12C283.25,-120.12 283.25,-78.71 283.25,-78.71"/>
<polygon fill="#2222e0" stroke="#2222e0" stroke-width="2.5" points="283.25,-128.12 279.65,-120.12 282.5,-127.16 282.5,-120.12 283.25,-120.12 284,-120.12 284,-127.16 286.85,-120.12 283.25,-128.12"/>
<polygon fill="#2222e0" stroke="#2222e0" stroke-width="2.5" points="283.25,-70.71 286.85,-78.71 284,-71.66 284,-78.71 283.25,-78.71 282.5,-78.71 282.5,-71.66 279.65,-78.71 283.25,-70.71"/>
</g>
</g>
</svg>
