<?xml version="1.0" encoding="UTF-8" standalone="no"?>
<!DOCTYPE svg PUBLIC "-//W3C//DTD SVG 1.1//EN"
 "http://www.w3.org/Graphics/SVG/1.1/DTD/svg11.dtd">
<!-- Generated by graphviz version 14.1.5 (0)
 -->
<!-- Title: G Pages: 1 -->
<svg width="382pt" height="499pt"
 viewBox="0.00 0.00 382.00 499.00" xmlns="http://www.w3.org/2000/svg" xmlns:xlink="http://www.w3.org/1999/xlink">
<g id="graph0" class="graph" transform="scale(1 1) rotate(0) translate(18 481)">
<title>G</title>
<polygon fill="#ffffff" stroke="none" points="-18,18 -18,-481 363.75,-481 363.75,18 -18,18"/>
<!-- node0x7b423c9e3350 -->
<g id="node1" class="node">
<title>node0x7b423c9e3350</title>
<path fill="#f9e2af" stroke="#101510" stroke-width="2.1" d="M201.38,-463C201.38,-463 67.38,-463 67.38,-463 61.38,-463 55.38,-457 55.38,-451 55.38,-451 55.38,-408 55.38,-408 55.38,-402 61.38,-396 67.38,-396 67.38,-396 201.38,-396 201.38,-396 207.38,-396 213.38,-402 213.38,-408 213.38,-408 213.38,-451 213.38,-451 213.38,-457 207.38,-463 201.38,-463"/>
<polygon fill="#101510" fill-opacity="0.203922" stroke="none" points="63.38,-429.5 63.38,-459 205.38,-459 205.38,-429.5 63.38,-429.5"/>
<polygon fill="none" stroke="#101510" points="63.38,-429.5 63.38,-459 205.38,-459 205.38,-429.5 63.38,-429.5"/>
<text xml:space="preserve" text-anchor="start" x="93.12" y="-441.7" font-family="monospace" font-weight="bold" font-size="14.00">type:</text>
<text xml:space="preserve" text-anchor="start" x="134.38" y="-441.7" font-family="monospace" font-size="14.00"> CTRL</text>
<polygon fill="#101510" fill-opacity="0.203922" stroke="none" points="63.38,-400 63.38,-429.5 205.38,-429.5 205.38,-400 63.38,-400"/>
<polygon fill="none" stroke="#101510" points="63.38,-400 63.38,-429.5 205.38,-429.5 205.38,-400 63.38,-400"/>
<text xml:space="preserve" text-anchor="start" x="68.38" y="-412.2" font-family="monospace" font-weight="bold" font-size="14.00">value:</text>
<text xml:space="preserve" text-anchor="start" x="117.88" y="-412.2" font-family="monospace" font-size="14.00"> func call</text>
</g>
<!-- node0x7b423c9e3290 -->
<g id="node2" class="node">
<title>node0x7b423c9e3290</title>
<path fill="#b581f4" stroke="#101510" stroke-width="2.1" d="M104.75,-331C104.75,-331 12,-331 12,-331 6,-331 0,-325 0,-319 0,-319 0,-276 0,-276 0,-270 6,-264 12,-264 12,-264 104.75,-264 104.75,-264 110.75,-264 116.75,-270 116.75,-276 116.75,-276 116.75,-319 116.75,-319 116.75,-325 110.75,-331 104.75,-331"/>
<polygon fill="#101510" fill-opacity="0.203922" stroke="none" points="8,-297.5 8,-327 108.75,-327 108.75,-297.5 8,-297.5"/>
<polygon fill="none" stroke="#101510" points="8,-297.5 8,-327 108.75,-327 108.75,-297.5 8,-297.5"/>
<text xml:space="preserve" text-anchor="start" x="13" y="-309.7" font-family="monospace" font-weight="bold" font-size="14.00">type:</text>
<text xml:space="preserve" text-anchor="start" x="54.25" y="-309.7" font-family="monospace" font-size="14.00"> IDENT</text>
<polygon fill="#101510" fill-opacity="0.203922" stroke="none" points="8,-268 8,-297.5 108.75,-297.5 108.75,-268 8,-268"/>
<polygon fill="none" stroke="#101510" points="8,-268 8,-297.5 108.75,-297.5 108.75,-268 8,-268"/>
<text xml:space="preserve" text-anchor="start" x="17.12" y="-280.2" font-family="monospace" font-weight="bold" font-size="14.00">value:</text>
<text xml:space="preserve" text-anchor="start" x="66.62" y="-280.2" font-family="monospace" font-size="14.00"> foo</text>
</g>
<!-- node0x7b423c9e3350&#45;&gt;node0x7b423c9e3290 -->
<g id="edge1" class="edge">
<title>node0x7b423c9e3350&#45;&gt;node0x7b423c9e3290</title>
<path fill="none" stroke="#2222e0" stroke-width="2.5" d="M86.06,-384.12C86.06,-384.12 86.06,-342.71 86.06,-342.71"/>
<polygon fill="#2222e0" stroke="#2222e0" stroke-width="2.5" points="86.06,-392.12 82.46,-384.12 85.31,-391.16 85.31,-384.12 86.06,-384.12 86.81,-384.12 86.81,-391.16 89.66,-384.12 86.06,-392.12"/>
<polygon fill="#2222e0" stroke="#2222e0" stroke-width="2.5" points="86.06,-334.71 89.66,-342.71 86.81,-335.66 86.81,-342.71 86.06,-342.71 85.31,-342.71 85.31,-335.66 82.46,-342.71 86.06,-334.71"/>
</g>
<!-- node0x7b423c9e3310 -->
<g id="node3" class="node">
<title>node0x7b423c9e3310</title>
<path fill="#f9e2af" stroke="#101510" stroke-width="2.1" d="M253.62,-331C253.62,-331 169.12,-331 169.12,-331 163.12,-331 157.12,-325 157.12,-319 157.12,-319 157.12,-276 157.12,-276 157.12,-270 163.12,-264 169.12,-264 169.12,-264 253.62,-264 253.62,-264 259.62,-264 265.62,-270 265.62,-276 265.62,-276 265.62,-319 265.62,-319 265.62,-325 259.62,-331 253.62,-331"/>
<polygon fill="#101510" fill-opacity="0.203922" stroke="none" points="165.12,-297.5 165.12,-327 257.62,-327 257.62,-297.5 165.12,-297.5"/>
<polygon fill="none" stroke="#101510" points="165.12,-297.5 165.12,-327 257.62,-327 257.62,-297.5 165.12,-297.5"/>
<text xml:space="preserve" text-anchor="start" x="170.12" y="-309.7" font-family="monospace" font-weight="bold" font-size="14.00">type:</text>
<text xml:space="preserve" text-anchor="start" x="211.38" y="-309.7" font-family="monospace" font-size="14.00"> CTRL</text>
<polygon fill="#101510" fill-opacity="0.203922" stroke="none" points="165.12,-268 165.12,-297.5 257.62,-297.5 257.62,-268 165.12,-268"/>
<polygon fill="none" stroke="#101510" points="165.12,-268 165.12,-297.5 257.62,-297.5 257.62,-268 165.12,-268"/>
<text xml:space="preserve" text-anchor="start" x="178.38" y="-280.2" font-family="monospace" font-weight="bold" font-size="14.00">value:</text>
<text xml:space="preserve" text-anchor="start" x="227.88" y="-280.2" font-family="monospace" font-size="14.00"> ;</text>
</g>
<!-- node0x7b423c9e3350&#45;&gt;node0x7b423c9e3310 -->
<g id="edge2" class="edge">
<title>node0x7b423c9e3350&#45;&gt;node0x7b423c9e3310</title>
<path fill="none" stroke="#2222e0" stroke-width="2.5" d="M185.25,-384.12C185.25,-384.12 185.25,-342.71 185.25,-342.71"/>
<polygon fill="#2222e0" stroke="#2222e0" stroke-width="2.5" points="185.25,-392.12 181.65,-384.12 184.5,-391.16 184.5,-384.12 185.25,-384.12 186,-384.12 186,-391.16 188.85,-384.12 185.25,-392.12"/>
<polygon fill="#2222e0" stroke="#2222e0" stroke-width="2.5" points="185.25,-334.71 188.85,-342.71 186,-335.66 186,-342.71 185.25,-342.71 184.5,-342.71 184.5,-335.66 181.65,-342.71 185.25,-334.71"/>
</g>
<!-- node0x7b423c9e32d0 -->
<g id="node4" class="node">
<title>node0x7b423c9e32d0</title>
<path fill="#b581f4" stroke="#101510" stroke-width="2.1" d="M180.75,-199C180.75,-199 88,-199 88,-199 82,-199 76,-193 76,-187 76,-187 76,-144 76,-144 76,-138 82,-132 88,-132 88,-132 180.75,-132 180.75,-132 186.75,-132 192.75,-138 192.75,-144 192.75,-144 192.75,-187 192.75,-187 192.75,-193 186.75,-199 180.75,-199"/>
<polygon fill="#101510" fill-opacity="0.203922" stroke="none" points="84,-165.5 84,-195 184.75,-195 184.75,-165.5 84,-165.5"/>
<polygon fill="none" stroke="#101510" points="84,-165.5 84,-195 184.75,-195 184.75,-165.5 84,-165.5"/>
<text xml:space="preserve" text-anchor="start" x="89" y="-177.7" font-family="monospace" font-weight="bold" font-size="14.00">type:</text>
<text xml:space="preserve" text-anchor="start" x="130.25" y="-177.7" font-family="monospace" font-size="14.00"> IDENT</text>
<polygon fill="#101510" fill-opacity="0.203922" stroke="none" points="84,-136 84,-165.5 184.75,-165.5 184.75,-136 84,-136"/>
<polygon fill="none" stroke="#101510" points="84,-136 84,-165.5 184.75,-165.5 184.75,-136 84,-136"/>
<text xml:space="preserve" text-anchor="start" x="93.12" y="-148.2" font-family="monospace" font-weight="bold" font-size="14.00">value:</text>
<text xml:space="preserve" text-anchor="start" x="142.62" y="-148.2" font-family="monospace" font-size="14.00"> bar</text>
</g>
<!-- node0x7b423c9e3310&#45;&gt;node0x7b423c9e32d0 -->
<g id="edge3" class="edge">
<title>node0x7b423c9e3310&#45;&gt;node0x7b423c9e32d0</title>
<path fill="none" stroke="#2222e0" stroke-width="2.5" d="M174.94,-252.12C174.94,-252.12 174.94,-210.71 174.94,-210.71"/>
<polygon fill="#2222e0" stroke="#2222e0" stroke-width="2.5" points="174.94,-260.12 171.34,-252.12 174.19,-259.16 174.19,-252.12 174.94,-252.12 175.69,-252.12 175.69,-259.16 178.54,-252.12 174.94,-260.12"/>
<polygon fill="#2222e0" stroke="#2222e0" stroke-width="2.5" points="174.94,-202.71 178.54,-210.71 175.69,-203.66 175.69,-210.71 174.94,-210.71 174.19,-210.71 174.19,-203.66 171.34,-210.71 174.94,-202.71"/>
</g>
<!-- node0x7b423c9e33d0 -->
<g id="node5" class="node">
<title>node0x7b423c9e33d0</title>
<path fill="#f9e2af" stroke="#101510" stroke-width="2.1" d="M329.62,-199C329.62,-199 245.12,-199 245.12,-199 239.12,-199 233.12,-193 233.12,-187 233.12,-187 233.12,-144 233.12,-144 233.12,-138 239.12,-132 245.12,-132 245.12,-132 329.62,-132 329.62,-132 335.62,-132 341.62,-138 341.62,-144 341.62,-144 341.62,-187 341.62,-187 341.62,-193 335.62,-199 329.62,-199"/>
<polygon fill="#101510" fill-opacity="0.203922" stroke="none" points="241.12,-165.5 241.12,-195 333.62,-195 333.62,-165.5 241.12,-165.5"/>
<polygon fill="none" stroke="#101510" points="241.12,-165.5 241.12,-195 333.62,-195 333.62,-165.5 241.12,-165.5"/>
<text xml:space="preserve" text-anchor="start" x="246.12" y="-177.7" font-family="monospace" font-weight="bold" font-size="14.00">type:</text>
<text xml:space="preserve" text-anchor="start" x="287.38" y="-177.7" font-family="monospace" font-size="14.00"> CTRL</text>
<polygon fill="#101510" fill-opacity="0.203922" stroke="none" points="241.12,-136 241.12,-165.5 333.62,-165.5 333.62,-136 241.12,-136"/>
<polygon fill="none" stroke="#101510" points="241.12,-136 241.12,-165.5 333.62,-165.5 333.62,-136 241.12,-136"/>
<text xml:space="preserve" text-anchor="start" x="254.38" y="-148.2" font-family="monospace" font-weight="bold" font-size="14.00">value:</text>
<text xml:space="preserve" text-anchor="start" x="303.88" y="-148.2" font-family="monospace" font-size="14.00"> ;</text>
</g>
<!-- node0x7b423c9e3310&#45;&gt;node0x7b423c9e33d0 -->
<g id="edge4" class="edge">
<title>node0x7b423c9e3310&#45;&gt;node0x7b423c9e33d0</title>
<path fill="none" stroke="#2222e0" stroke-width="2.5" d="M249.38,-252.12C249.38,-252.12 249.38,-210.71 249.38,-210.71"/>
<polygon fill="#2222e0" stroke="#2222e0" stroke-width="2.5" points="249.38,-260.12 245.78,-252.12 248.63,-259.16 248.63,-252.12 249.38,-252.12 250.13,-252.12 250.13,-259.16 252.98,-252.12 249.38,-260.12"/>
<polygon fill="#2222e0" stroke="#2222e0" stroke-width="2.5" points="249.38,-202.71 252.98,-210.71 250.13,-203.66 250.13,-210.71 249.38,-210.71 248.63,-210.71 248.63,-203.66 245.78,-210.71 249.38,-202.71"/>
</g>
<!-- node0x7b423c9e3390 -->
<g id="node6" class="node">
<title>node0x7b423c9e3390</title>
<path fill="#b581f4" stroke="#101510" stroke-width="2.1" d="M333.75,-67C333.75,-67 241,-67 241,-67 235,-67 229,-61 229,-55 229,-55 229,-12 229,-12 229,-6 235,0 241,0 241,0 333.75,0 333.75,0 339.75,0 345.75,-6 345.75,-12 345.75,-12 345.75,-55 345.75,-55 345.75,-61 339.75,-67 333.75,-67"/>
<polygon fill="#101510" fill-opacity="0.203922" stroke="none" points="237,-33.5 237,-63 337.75,-63 337.75,-33.5 237,-33.5"/>
<polygon fill="none" stroke="#101510" points="237,-33.5 237,-63 337.75,-63 337.75,-33.5 237,-33.5"/>
<text xml:space="preserve" text-anchor="start" x="242" y="-45.7" font-family="monospace" font-weight="bold" font-size="14.00">type:</text>
<text xml:space="preserve" text-anchor="start" x="283.25" y="-45.7" font-family="monospace" font-size="14.00"> IDENT</text>
<polygon fill="#101510" fill-opacity="0.203922" stroke="none" points="237,-4 237,-33.5 337.75,-33.5 337.75,-4 237,-4"/>
<polygon fill="none" stroke="#101510" points="237,-4 237,-33.5 337.75,-33.5 337.75,-4 237,-4"/>
<text xml:space="preserve" text-anchor="start" x="246.12" y="-16.2" font-family="monospace" font-weight="bold" font-size="14.00">value:</text>
<text xml:space="preserve" text-anchor="start" x="295.62" y="-16.2" font-family="monospace" font-size="14.00"> baz</text>
</g>
<!-- node0x7b423c9e33d0&#45;&gt;node0x7b423c9e3390 -->
<g id="edge5" class="edge">
<title>node0x7b423c9e33d0&#45;&gt;node0x7b423c9e3390</title>
<path fill="none" stroke="#2222e0" stroke-width="2.5" d="M287.38,-120.12C287.38,-120.12 287.38,-78.71 287.38,-78.71"/>
<polygon fill="#2222e0" stroke="#2222e0" stroke-width="2.5" points="287.38,-128.12 283.78,-120.12 286.63,-127.16 286.63,-120.12 287.38,-120.12 288.13,-120.12 288.13,-127.16 290.98,-120.12 287.38,-128.12"/>
<polygon fill="#2222e0" stroke="#2222e0" stroke-width="2.5" points="287.38,-70.71 290.98,-78.71 288.13,-71.66 288.13,-78.71 287.38,-78.71 286.63,-78.71 286.63,-71.66 283.78,-78.71 287.38,-70.71"/>
</g>
</g>
</svg>
