<?xml version="1.0" encoding="UTF-8" standalone="no"?>
<!DOCTYPE svg PUBLIC "-//W3C//DTD SVG 1.1//EN"
 "http://www.w3.org/Graphics/SVG/1.1/DTD/svg11.dtd">
<!-- Generated by graphviz version 14.1.5 (0)
 -->
<!-- Title: G Pages: 1 -->
<svg width="628pt" height="499pt"
 viewBox="0.00 0.00 628.00 499.00" xmlns="http://www.w3.org/2000/svg" xmlns:xlink="http://www.w3.org/1999/xlink">
<g id="graph0" class="graph" transform="scale(1 1) rotate(0) translate(18 481)">
<title>G</title>
<polygon fill="#ffffff" stroke="none" points="-18,18 -18,-481 609.88,-481 609.88,18 -18,18"/>
<!-- node0x7c1c06de3350 -->
<g id="node1" class="node">
<title>node0x7c1c06de3350</title>
<path fill="#f9e2af" stroke="#101510" stroke-width="2.1" d="M258.75,-463C258.75,-463 174.25,-463 174.25,-463 168.25,-463 162.25,-457 162.25,-451 162.25,-451 162.25,-408 162.25,-408 162.25,-402 168.25,-396 174.25,-396 174.25,-396 258.75,-396 258.75,-396 264.75,-396 270.75,-402 270.75,-408 270.75,-408 270.75,-451 270.75,-451 270.75,-457 264.75,-463 258.75,-463"/>
<polygon fill="#101510" fill-opacity="0.203922" stroke="none" points="170.25,-429.5 170.25,-459 262.75,-459 262.75,-429.5 170.25,-429.5"/>
<polygon fill="none" stroke="#101510" points="170.25,-429.5 170.25,-459 262.75,-459 262.75,-429.5 170.25,-429.5"/>
<text xml:space="preserve" text-anchor="start" x="175.25" y="-441.7" font-family="monospace" font-weight="bold" font-size="14.00">type:</text>
<text xml:space="preserve" text-anchor="start" x="216.5" y="-441.7" font-family="monospace" font-size="14.00"> CTRL</text>
<polygon fill="#101510" fill-opacity="0.203922" stroke="none" points="170.25,-400 170.25,-429.5 262.75,-429.5 262.75,-400 170.25,-400"/>
<polygon fill="none" stroke="#101510" points="170.25,-400 170.25,-429.5 262.75,-429.5 262.75,-400 170.25,-400"/>
<text xml:space="preserve" text-anchor="start" x="179.38" y="-412.2" font-family="monospace" font-weight="bold" font-size="14.00">value:</text>
<text xml:space="preserve" text-anchor="start" x="228.88" y="-412.2" font-family="monospace" font-size="14.00"> if</text>
</g>
<!-- node0x7c1c06de3310 -->
<g id="node2" class="node">
<title>node0x7c1c06de3310</title>
<path fill="#a6e3a1" stroke="#101510" stroke-width="2.1" d="M184.75,-331C184.75,-331 100.25,-331 100.25,-331 94.25,-331 88.25,-325 88.25,-319 88.25,-319 88.25,-276 88.25,-276 88.25,-270 94.25,-264 100.25,-264 100.25,-264 184.75,-264 184.75,-264 190.75,-264 196.75,-270 196.75,-276 196.75,-276 196.75,-319 196.75,-319 196.75,-325 190.75,-331 184.75,-331"/>
<polygon fill="#101510" fill-opacity="0.203922" stroke="none" points="96.25,-297.5 96.25,-327 188.75,-327 188.75,-297.5 96.25,-297.5"/>
<polygon fill="none" stroke="#101510" points="96.25,-297.5 96.25,-327 188.75,-327 188.75,-297.5 96.25,-297.5"/>
<text xml:space="preserve" text-anchor="start" x="109.5" y="-309.7" font-family="monospace" font-weight="bold" font-size="14.00">type:</text>
<text xml:space="preserve" text-anchor="start" x="150.75" y="-309.7" font-family="monospace" font-size="14.00"> OP</text>
<polygon fill="#101510" fill-opacity="0.203922" stroke="none" points="96.25,-268 96.25,-297.5 188.75,-297.5 188.75,-268 96.25,-268"/>
<polygon fill="none" stroke="#101510" points="96.25,-268 96.25,-297.5 188.75,-297.5 188.75,-268 96.25,-268"/>
<text xml:space="preserve" text-anchor="start" x="101.25" y="-280.2" font-family="monospace" font-weight="bold" font-size="14.00">value:</text>
<text xml:space="preserve" text-anchor="start" x="150.75" y="-280.2" font-family="monospace" font-size="14.00"> and</text>
</g>
<!-- node0x7c1c06de3350&#45;&gt;node0x7c1c06de3310 -->
<g id="edge1" class="edge">
<title>node0x7c1c06de3350&#45;&gt;node0x7c1c06de3310</title>
<path fill="none" stroke="#2222e0" stroke-width="2.5" d="M179.5,-384.12C179.5,-384.12 179.5,-342.71 179.5,-342.71"/>
<polygon fill="#2222e0" stroke="#2222e0" stroke-width="2.5" points="179.5,-392.12 175.9,-384.12 178.75,-391.16 178.75,-384.12 179.5,-384.12 180.25,-384.12 180.25,-391.16 183.1,-384.12 179.5,-392.12"/>
<polygon fill="#2222e0" stroke="#2222e0" stroke-width="2.5" points="179.5,-334.71 183.1,-342.71 180.25,-335.66 180.25,-342.71 179.5,-342.71 178.75,-342.71 178.75,-335.66 175.9,-342.71 179.5,-334.71"/>
</g>
<!-- node0x7c1c06de33d0 -->
<g id="node5" class="node">
<title>node0x7c1c06de33d0</title>
<path fill="#f9e2af" stroke="#101510" stroke-width="2.1" d="M377.75,-331C377.75,-331 293.25,-331 293.25,-331 287.25,-331 281.25,-325 281.25,-319 281.25,-319 281.25,-276 281.25,-276 281.25,-270 287.25,-264 293.25,-264 293.25,-264 377.75,-264 377.75,-264 383.75,-264 389.75,-270 389.75,-276 389.75,-276 389.75,-319 389.75,-319 389.75,-325 383.75,-331 377.75,-331"/>
<polygon fill="#101510" fill-opacity="0.203922" stroke="none" points="289.25,-297.5 289.25,-327 381.75,-327 381.75,-297.5 289.25,-297.5"/>
<polygon fill="none" stroke="#101510" points="289.25,-297.5 289.25,-327 381.75,-327 381.75,-297.5 289.25,-297.5"/>
<text xml:space="preserve" text-anchor="start" x="294.25" y="-309.7" font-family="monospace" font-weight="bold" font-size="14.00">type:</text>
<text xml:space="preserve" text-anchor="start" x="335.5" y="-309.7" font-family="monospace" font-size="14.00"> CTRL</text>
<polygon fill="#101510" fill-opacity="0.203922" stroke="none" points="289.25,-268 289.25,-297.5 381.75,-297.5 381.75,-268 289.25,-268"/>
<polygon fill="none" stroke="#101510" points="289.25,-268 289.25,-297.5 381.75,-297.5 381.75,-268 289.25,-268"/>
<text xml:space="preserve" text-anchor="start" x="302.5" y="-280.2" font-family="monospace" font-weight="bold" font-size="14.00">value:</text>
<text xml:space="preserve" text-anchor="start" x="352" y="-280.2" font-family="monospace" font-size="14.00"> ;</text>
</g>
<!-- node0x7c1c06de3350&#45;&gt;node0x7c1c06de33d0 -->
<g id="edge4" class="edge">
<title>node0x7c1c06de3350&#45;&gt;node0x7c1c06de33d0</title>
<path fill="none" stroke="#2222e0" stroke-width="2.5" d="M233.75,-384.25C233.75,-384.25 233.75,-298 233.75,-298 233.75,-298 269.41,-298 269.41,-298"/>
<polygon fill="#2222e0" stroke="#2222e0" stroke-width="2.5" points="233.75,-392.25 230.15,-384.25 233,-391.29 233,-384.25 233.75,-384.25 234.5,-384.25 234.5,-391.29 237.35,-384.25 233.75,-392.25"/>
<polygon fill="#2222e0" stroke="#2222e0" stroke-width="2.5" points="277.41,-298 269.41,-301.6 276.46,-298.75 269.41,-298.75 269.41,-298 269.41,-297.25 276.46,-297.25 269.41,-294.4 277.41,-298"/>
</g>
<!-- node0x7c1c06de3290 -->
<g id="node3" class="node">
<title>node0x7c1c06de3290</title>
<path fill="#b581f4" stroke="#101510" stroke-width="2.1" d="M113,-199C113,-199 12,-199 12,-199 6,-199 0,-193 0,-187 0,-187 0,-144 0,-144 0,-138 6,-132 12,-132 12,-132 113,-132 113,-132 119,-132 125,-138 125,-144 125,-144 125,-187 125,-187 125,-193 119,-199 113,-199"/>
<polygon fill="#101510" fill-opacity="0.203922" stroke="none" points="8,-165.5 8,-195 117,-195 117,-165.5 8,-165.5"/>
<polygon fill="none" stroke="#101510" points="8,-165.5 8,-195 117,-195 117,-165.5 8,-165.5"/>
<text xml:space="preserve" text-anchor="start" x="17.12" y="-177.7" font-family="monospace" font-weight="bold" font-size="14.00">type:</text>
<text xml:space="preserve" text-anchor="start" x="58.37" y="-177.7" font-family="monospace" font-size="14.00"> IDENT</text>
<polygon fill="#101510" fill-opacity="0.203922" stroke="none" points="8,-136 8,-165.5 117,-165.5 117,-136 8,-136"/>
<polygon fill="none" stroke="#101510" points="8,-136 8,-165.5 117,-165.5 117,-136 8,-136"/>
<text xml:space="preserve" text-anchor="start" x="13" y="-148.2" font-family="monospace" font-weight="bold" font-size="14.00">value:</text>
<text xml:space="preserve" text-anchor="start" x="62.5" y="-148.2" font-family="monospace" font-size="14.00"> apple</text>
</g>
<!-- node0x7c1c06de3310&#45;&gt;node0x7c1c06de3290 -->
<g id="edge2" class="edge">
<title>node0x7c1c06de3310&#45;&gt;node0x7c1c06de3290</title>
<path fill="none" stroke="#2222e0" stroke-width="2.5" d="M106.62,-252.12C106.62,-252.12 106.62,-210.71 106.62,-210.71"/>
<polygon fill="#2222e0" stroke="#2222e0" stroke-width="2.5" points="106.63,-260.12 103.03,-252.12 105.88,-259.16 105.88,-252.12 106.63,-252.12 107.38,-252.12 107.38,-259.16 110.23,-252.12 106.63,-260.12"/>
<polygon fill="#2222e0" stroke="#2222e0" stroke-width="2.5" points="106.63,-202.71 110.23,-210.71 107.38,-203.66 107.38,-210.71 106.63,-210.71 105.88,-210.71 105.88,-203.66 103.03,-210.71 106.63,-202.71"/>
</g>
<!-- node0x7c1c06de32d0 -->
<g id="node4" class="node">
<title>node0x7c1c06de32d0</title>
<path fill="#b581f4" stroke="#101510" stroke-width="2.1" d="M269.88,-199C269.88,-199 177.12,-199 177.12,-199 171.12,-199 165.12,-193 165.12,-187 165.12,-187 165.12,-144 165.12,-144 165.12,-138 171.12,-132 177.12,-132 177.12,-132 269.88,-132 269.88,-132 275.88,-132 281.88,-138 281.88,-144 281.88,-144 281.88,-187 281.88,-187 281.88,-193 275.88,-199 269.88,-199"/>
<polygon fill="#101510" fill-opacity="0.203922" stroke="none" points="173.12,-165.5 173.12,-195 273.88,-195 273.88,-165.5 173.12,-165.5"/>
<polygon fill="none" stroke="#101510" points="173.12,-165.5 173.12,-195 273.88,-195 273.88,-165.5 173.12,-165.5"/>
<text xml:space="preserve" text-anchor="start" x="178.12" y="-177.7" font-family="monospace" font-weight="bold" font-size="14.00">type:</text>
<text xml:space="preserve" text-anchor="start" x="219.38" y="-177.7" font-family="monospace" font-size="14.00"> IDENT</text>
<polygon fill="#101510" fill-opacity="0.203922" stroke="none" points="173.12,-136 173.12,-165.5 273.88,-165.5 273.88,-136 173.12,-136"/>
<polygon fill="none" stroke="#101510" points="173.12,-136 173.12,-165.5 273.88,-165.5 273.88,-136 173.12,-136"/>
<text xml:space="preserve" text-anchor="start" x="182.25" y="-148.2" font-family="monospace" font-weight="bold" font-size="14.00">value:</text>
<text xml:space="preserve" text-anchor="start" x="231.75" y="-148.2" font-family="monospace" font-size="14.00"> dog</text>
</g>
<!-- node0x7c1c06de3310&#45;&gt;node0x7c1c06de32d0 -->
<g id="edge3" class="edge">
<title>node0x7c1c06de3310&#45;&gt;node0x7c1c06de32d0</title>
<path fill="none" stroke="#2222e0" stroke-width="2.5" d="M180.94,-252.12C180.94,-252.12 180.94,-210.71 180.94,-210.71"/>
<polygon fill="#2222e0" stroke="#2222e0" stroke-width="2.5" points="180.94,-260.12 177.34,-252.12 180.19,-259.16 180.19,-252.12 180.94,-252.12 181.69,-252.12 181.69,-259.16 184.54,-252.12 180.94,-260.12"/>
<polygon fill="#2222e0" stroke="#2222e0" stroke-width="2.5" points="180.94,-202.71 184.54,-210.71 181.69,-203.66 181.69,-210.71 180.94,-210.71 180.19,-210.71 180.19,-203.66 177.34,-210.71 180.94,-202.71"/>
</g>
<!-- node0x7c1c06de3390 -->
<g id="node6" class="node">
<title>node0x7c1c06de3390</title>
<path fill="#b581f4" stroke="#101510" stroke-width="2.1" d="M426.88,-199C426.88,-199 334.12,-199 334.12,-199 328.12,-199 322.12,-193 322.12,-187 322.12,-187 322.12,-144 322.12,-144 322.12,-138 328.12,-132 334.12,-132 334.12,-132 426.88,-132 426.88,-132 432.88,-132 438.88,-138 438.88,-144 438.88,-144 438.88,-187 438.88,-187 438.88,-193 432.88,-199 426.88,-199"/>
<polygon fill="#101510" fill-opacity="0.203922" stroke="none" points="330.12,-165.5 330.12,-195 430.88,-195 430.88,-165.5 330.12,-165.5"/>
<polygon fill="none" stroke="#101510" points="330.12,-165.5 330.12,-195 430.88,-195 430.88,-165.5 330.12,-165.5"/>
<text xml:space="preserve" text-anchor="start" x="335.12" y="-177.7" font-family="monospace" font-weight="bold" font-size="14.00">type:</text>
<text xml:space="preserve" text-anchor="start" x="376.38" y="-177.7" font-family="monospace" font-size="14.00"> IDENT</text>
<polygon fill="#101510" fill-opacity="0.203922" stroke="none" points="330.12,-136 330.12,-165.5 430.88,-165.5 430.88,-136 330.12,-136"/>
<polygon fill="none" stroke="#101510" points="330.12,-136 330.12,-165.5 430.88,-165.5 430.88,-136 330.12,-136"/>
<text xml:space="preserve" text-anchor="start" x="339.25" y="-148.2" font-family="monospace" font-weight="bold" font-size="14.00">value:</text>
<text xml:space="preserve" text-anchor="start" x="388.75" y="-148.2" font-family="monospace" font-size="14.00"> foo</text>
</g>
<!-- node0x7c1c06de33d0&#45;&gt;node0x7c1c06de3390 -->
<g id="edge5" class="edge">
<title>node0x7c1c06de33d0&#45;&gt;node0x7c1c06de3390</title>
<path fill="none" stroke="#2222e0" stroke-width="2.5" d="M355.94,-252.12C355.94,-252.12 355.94,-210.71 355.94,-210.71"/>
<polygon fill="#2222e0" stroke="#2222e0" stroke-width="2.5" points="355.94,-260.12 352.34,-252.12 355.19,-259.16 355.19,-252.12 355.94,-252.12 356.69,-252.12 356.69,-259.16 359.54,-252.12 355.94,-260.12"/>
<polygon fill="#2222e0" stroke="#2222e0" stroke-width="2.5" points="355.94,-202.71 359.54,-210.71 356.69,-203.66 356.69,-210.71 355.94,-210.71 355.19,-210.71 355.19,-203.66 352.34,-210.71 355.94,-202.71"/>
</g>
<!-- node0x7c1c06de3450 -->
<g id="node7" class="node">
<title>node0x7c1c06de3450</title>
<path fill="#f9e2af" stroke="#101510" stroke-width="2.1" d="M575.75,-199C575.75,-199 491.25,-199 491.25,-199 485.25,-199 479.25,-193 479.25,-187 479.25,-187 479.25,-144 479.25,-144 479.25,-138 485.25,-132 491.25,-132 491.25,-132 575.75,-132 575.75,-132 581.75,-132 587.75,-138 587.75,-144 587.75,-144 587.75,-187 587.75,-187 587.75,-193 581.75,-199 575.75,-199"/>
<polygon fill="#101510" fill-opacity="0.203922" stroke="none" points="487.25,-165.5 487.25,-195 579.75,-195 579.75,-165.5 487.25,-165.5"/>
<polygon fill="none" stroke="#101510" points="487.25,-165.5 487.25,-195 579.75,-195 579.75,-165.5 487.25,-165.5"/>
<text xml:space="preserve" text-anchor="start" x="492.25" y="-177.7" font-family="monospace" font-weight="bold" font-size="14.00">type:</text>
<text xml:space="preserve" text-anchor="start" x="533.5" y="-177.7" font-family="monospace" font-size="14.00"> CTRL</text>
<polygon fill="#101510" fill-opacity="0.203922" stroke="none" points="487.25,-136 487.25,-165.5 579.75,-165.5 579.75,-136 487.25,-136"/>
<polygon fill="none" stroke="#101510" points="487.25,-136 487.25,-165.5 579.75,-165.5 579.75,-136 487.25,-136"/>
<text xml:space="preserve" text-anchor="start" x="500.5" y="-148.2" font-family="monospace" font-weight="bold" font-size="14.00">value:</text>
<text xml:space="preserve" text-anchor="start" x="550" y="-148.2" font-family="monospace" font-size="14.00"> ;</text>
</g>
<!-- node0x7c1c06de33d0&#45;&gt;node0x7c1c06de3450 -->
<g id="edge6" class="edge">
<title>node0x7c1c06de33d0&#45;&gt;node0x7c1c06de3450</title>
<path fill="none" stroke="#2222e0" stroke-width="2.5" d="M401.7,-298C401.7,-298 533.5,-298 533.5,-298 533.5,-298 533.5,-211.01 533.5,-211.01"/>
<polygon fill="#2222e0" stroke="#2222e0" stroke-width="2.5" points="393.7,-298 401.7,-294.4 394.65,-297.25 401.7,-297.25 401.7,-298 401.7,-298.75 394.65,-298.75 401.7,-301.6 393.7,-298"/>
<polygon fill="#2222e0" stroke="#2222e0" stroke-width="2.5" points="533.5,-203.01 537.1,-211.01 534.25,-203.97 534.25,-211.01 533.5,-211.01 532.75,-211.01 532.75,-203.97 529.9,-211.01 533.5,-203.01"/>
</g>
<!-- node0x7c1c06de3410 -->
<g id="node8" class="node">
<title>node0x7c1c06de3410</title>
<path fill="#b581f4" stroke="#101510" stroke-width="2.1" d="M579.88,-67C579.88,-67 487.12,-67 487.12,-67 481.12,-67 475.12,-61 475.12,-55 475.12,-55 475.12,-12 475.12,-12 475.12,-6 481.12,0 487.12,0 487.12,0 579.88,0 579.88,0 585.88,0 591.88,-6 591.88,-12 591.88,-12 591.88,-55 591.88,-55 591.88,-61 585.88,-67 579.88,-67"/>
<polygon fill="#101510" fill-opacity="0.203922" stroke="none" points="483.12,-33.5 483.12,-63 583.88,-63 583.88,-33.5 483.12,-33.5"/>
<polygon fill="none" stroke="#101510" points="483.12,-33.5 483.12,-63 583.88,-63 583.88,-33.5 483.12,-33.5"/>
<text xml:space="preserve" text-anchor="start" x="488.12" y="-45.7" font-family="monospace" font-weight="bold" font-size="14.00">type:</text>
<text xml:space="preserve" text-anchor="start" x="529.38" y="-45.7" font-family="monospace" font-size="14.00"> IDENT</text>
<polygon fill="#101510" fill-opacity="0.203922" stroke="none" points="483.12,-4 483.12,-33.5 583.88,-33.5 583.88,-4 483.12,-4"/>
<polygon fill="none" stroke="#101510" points="483.12,-4 483.12,-33.5 583.88,-33.5 583.88,-4 483.12,-4"/>
<text xml:space="preserve" text-anchor="start" x="492.25" y="-16.2" font-family="monospace" font-weight="bold" font-size="14.00">value:</text>
<text xml:space="preserve" text-anchor="start" x="541.75" y="-16.2" font-family="monospace" font-size="14.00"> bar</text>
</g>
<!-- node0x7c1c06de3450&#45;&gt;node0x7c1c06de3410 -->
<g id="edge7" class="edge">
<title>node0x7c1c06de3450&#45;&gt;node0x7c1c06de3410</title>
<path fill="none" stroke="#2222e0" stroke-width="2.5" d="M533.5,-120.12C533.5,-120.12 533.5,-78.71 533.5,-78.71"/>
<polygon fill="#2222e0" stroke="#2222e0" stroke-width="2.5" points="533.5,-128.12 529.9,-120.12 532.75,-127.16 532.75,-120.12 533.5,-120.12 534.25,-120.12 534.25,-127.16 537.1,-120.12 533.5,-128.12"/>
<polygon fill="#2222e0" stroke="#2222e0" stroke-width="2.5" points="533.5,-70.71 537.1,-78.71 534.25,-71.66 534.25,-78.71 533.5,-78.71 532.75,-78.71 532.75,-71.66 529.9,-78.71 533.5,-70.71"/>
</g>
</g>
</svg>
