<?xml version="1.0" encoding="UTF-8" standalone="no"?>
<!DOCTYPE svg PUBLIC "-//W3C//DTD SVG 1.1//EN"
 "http://www.w3.org/Graphics/SVG/1.1/DTD/svg11.dtd">
<!-- Generated by graphviz version 14.1.5 (0)
 -->
<!-- Title: G Pages: 1 -->
<svg width="210pt" height="103pt"
 viewBox="0.00 0.00 210.00 103.00" xmlns="http://www.w3.org/2000/svg" xmlns:xlink="http://www.w3.org/1999/xlink">
<g id="graph0" class="graph" transform="scale(1 1) rotate(0) translate(18 85)">
<title>G</title>
<polygon fill="#ffffff" stroke="none" points="-18,18 -18,-85 192.5,-85 192.5,18 -18,18"/>
<!-- node0x7b93dfbe3290 -->
<g id="node1" class="node">
<title>node0x7b93dfbe3290</title>
<path fill="#6ca1f9" stroke="#101510" stroke-width="2.1" d="M162.5,-67C162.5,-67 12,-67 12,-67 6,-67 0,-61 0,-55 0,-55 0,-12 0,-12 0,-6 6,0 12,0 12,0 162.5,0 162.5,0 168.5,0 174.5,-6 174.5,-12 174.5,-12 174.5,-55 174.5,-55 174.5,-61 168.5,-67 162.5,-67"/>
<polygon fill="#101510" fill-opacity="0.203922" stroke="none" points="8,-33.5 8,-63 166.5,-63 166.5,-33.5 8,-33.5"/>
<polygon fill="none" stroke="#101510" points="8,-33.5 8,-63 166.5,-63 166.5,-33.5 8,-33.5"/>
<text xml:space="preserve" text-anchor="start" x="50.12" y="-45.7" font-family="monospace" font-weight="bold" font-size="14.00">type:</text>
<text xml:space="preserve" text-anchor="start" x="91.38" y="-45.7" font-family="monospace" font-size="14.00"> NUM</text>
<polygon fill="#101510" fill-opacity="0.203922" stroke="none" points="8,-4 8,-33.5 166.5,-33.5 166.5,-4 8,-4"/>
<polygon fill="none" stroke="#101510" points="8,-4 8,-33.5 166.5,-33.5 166.5,-4 8,-4"/>
<text xml:space="preserve" text-anchor="start" x="13" y="-16.2" font-family="monospace" font-weight="bold" font-size="14.00">value:</text>
<text xml:space="preserve" text-anchor="start" x="62.5" y="-16.2" font-family="monospace" font-size="14.00"> 1234.000000</text>
</g>
</g>
</svg>
