<?xml version="1.0" encoding="UTF-8" standalone="no"?>
<!DOCTYPE svg PUBLIC "-//W3C//DTD SVG 1.1//EN"
 "http://www.w3.org/Graphics/SVG/1.1/DTD/svg11.dtd">
<!-- Generated by graphviz version 14.1.5 (0)
 -->
<!-- Title: G Pages: 1 -->
<svg width="689pt" height="631pt"
 viewBox="0.00 0.00 689.00 631.00" xmlns="http://www.w3.org/2000/svg" xmlns:xlink="http://www.w3.org/1999/xlink">
<g id="graph0" class="graph" transform="scale(1 1) rotate(0) translate(18 613)">
<title>G</title>
<polygon fill="#ffffff" stroke="none" points="-18,18 -18,-613 671.38,-613 671.38,18 -18,18"/>
<!-- node0x7bd1809e3350 -->
<g id="node1" class="node">
<title>node0x7bd1809e3350</title>
<path fill="#f9e2af" stroke="#101510" stroke-width="2.1" d="M282.12,-595C282.12,-595 197.62,-595 197.62,-595 191.62,-595 185.62,-589 185.62,-583 185.62,-583 185.62,-540 185.62,-540 185.62,-534 191.62,-528 197.62,-528 197.62,-528 282.12,-528 282.12,-528 288.12,-528 294.12,-534 294.12,-540 294.12,-540 294.12,-583 294.12,-583 294.12,-589 288.12,-595 282.12,-595"/>
<polygon fill="#101510" fill-opacity="0.203922" stroke="none" points="193.62,-561.5 193.62,-591 286.12,-591 286.12,-561.5 193.62,-561.5"/>
<polygon fill="none" stroke="#101510" points="193.62,-561.5 193.62,-591 286.12,-591 286.12,-561.5 193.62,-561.5"/>
<text xml:space="preserve" text-anchor="start" x="198.62" y="-573.7" font-family="monospace" font-weight="bold" font-size="14.00">type:</text>
<text xml:space="preserve" text-anchor="start" x="239.88" y="-573.7" font-family="monospace" font-size="14.00"> CTRL</text>
<polygon fill="#101510" fill-opacity="0.203922" stroke="none" points="193.62,-532 193.62,-561.5 286.12,-561.5 286.12,-532 193.62,-532"/>
<polygon fill="none" stroke="#101510" points="193.62,-532 193.62,-561.5 286.12,-561.5 286.12,-532 193.62,-532"/>
<text xml:space="preserve" text-anchor="start" x="206.88" y="-544.2" font-family="monospace" font-weight="bold" font-size="14.00">value:</text>
<text xml:space="preserve" text-anchor="start" x="256.38" y="-544.2" font-family="monospace" font-size="14.00"> ;</text>
</g>
<!-- node0x7bd1809e3310 -->
<g id="node2" class="node">
<title>node0x7bd1809e3310</title>
<path fill="#a6e3a1" stroke="#101510" stroke-width="2.1" d="M203.88,-463C203.88,-463 135.88,-463 135.88,-463 129.88,-463 123.88,-457 123.88,-451 123.88,-451 123.88,-408 123.88,-408 123.88,-402 129.88,-396 135.88,-396 135.88,-396 203.88,-396 203.88,-396 209.88,-396 215.88,-402 215.88,-408 215.88,-408 215.88,-451 215.88,-451 215.88,-457 209.88,-463 203.88,-463"/>
<polygon fill="#101510" fill-opacity="0.203922" stroke="none" points="131.88,-429.5 131.88,-459 207.88,-459 207.88,-429.5 131.88,-429.5"/>
<polygon fill="none" stroke="#101510" points="131.88,-429.5 131.88,-459 207.88,-459 207.88,-429.5 131.88,-429.5"/>
<text xml:space="preserve" text-anchor="start" x="136.88" y="-441.7" font-family="monospace" font-weight="bold" font-size="14.00">type:</text>
<text xml:space="preserve" text-anchor="start" x="178.12" y="-441.7" font-family="monospace" font-size="14.00"> OP</text>
<polygon fill="#101510" fill-opacity="0.203922" stroke="none" points="131.88,-400 131.88,-429.5 207.88,-429.5 207.88,-400 131.88,-400"/>
<polygon fill="none" stroke="#101510" points="131.88,-400 131.88,-429.5 207.88,-429.5 207.88,-400 131.88,-400"/>
<text xml:space="preserve" text-anchor="start" x="136.88" y="-412.2" font-family="monospace" font-weight="bold" font-size="14.00">value:</text>
<text xml:space="preserve" text-anchor="start" x="186.38" y="-412.2" font-family="monospace" font-size="14.00"> *</text>
</g>
<!-- node0x7bd1809e3350&#45;&gt;node0x7bd1809e3310 -->
<g id="edge1" class="edge">
<title>node0x7bd1809e3350&#45;&gt;node0x7bd1809e3310</title>
<path fill="none" stroke="#2222e0" stroke-width="2.5" d="M200.75,-516.12C200.75,-516.12 200.75,-474.71 200.75,-474.71"/>
<polygon fill="#2222e0" stroke="#2222e0" stroke-width="2.5" points="200.75,-524.12 197.15,-516.12 200,-523.16 200,-516.12 200.75,-516.12 201.5,-516.12 201.5,-523.16 204.35,-516.12 200.75,-524.12"/>
<polygon fill="#2222e0" stroke="#2222e0" stroke-width="2.5" points="200.75,-466.71 204.35,-474.71 201.5,-467.66 201.5,-474.71 200.75,-474.71 200,-474.71 200,-467.66 197.15,-474.71 200.75,-466.71"/>
</g>
<!-- node0x7bd1809e33d0 -->
<g id="node5" class="node">
<title>node0x7bd1809e33d0</title>
<path fill="#f9e2af" stroke="#101510" stroke-width="2.1" d="M416.12,-463C416.12,-463 331.62,-463 331.62,-463 325.62,-463 319.62,-457 319.62,-451 319.62,-451 319.62,-408 319.62,-408 319.62,-402 325.62,-396 331.62,-396 331.62,-396 416.12,-396 416.12,-396 422.12,-396 428.12,-402 428.12,-408 428.12,-408 428.12,-451 428.12,-451 428.12,-457 422.12,-463 416.12,-463"/>
<polygon fill="#101510" fill-opacity="0.203922" stroke="none" points="327.62,-429.5 327.62,-459 420.12,-459 420.12,-429.5 327.62,-429.5"/>
<polygon fill="none" stroke="#101510" points="327.62,-429.5 327.62,-459 420.12,-459 420.12,-429.5 327.62,-429.5"/>
<text xml:space="preserve" text-anchor="start" x="332.62" y="-441.7" font-family="monospace" font-weight="bold" font-size="14.00">type:</text>
<text xml:space="preserve" text-anchor="start" x="373.88" y="-441.7" font-family="monospace" font-size="14.00"> CTRL</text>
<polygon fill="#101510" fill-opacity="0.203922" stroke="none" points="327.62,-400 327.62,-429.5 420.12,-429.5 420.12,-400 327.62,-400"/>
<polygon fill="none" stroke="#101510" points="327.62,-400 327.62,-429.5 420.12,-429.5 420.12,-400 327.62,-400"/>
<text xml:space="preserve" text-anchor="start" x="340.88" y="-412.2" font-family="monospace" font-weight="bold" font-size="14.00">value:</text>
<text xml:space="preserve" text-anchor="start" x="390.38" y="-412.2" font-family="monospace" font-size="14.00"> ;</text>
</g>
<!-- node0x7bd1809e3350&#45;&gt;node0x7bd1809e33d0 -->
<g id="edge4" class="edge">
<title>node0x7bd1809e3350&#45;&gt;node0x7bd1809e33d0</title>
<path fill="none" stroke="#2222e0" stroke-width="2.5" d="M255,-516.25C255,-516.25 255,-430 255,-430 255,-430 307.57,-430 307.57,-430"/>
<polygon fill="#2222e0" stroke="#2222e0" stroke-width="2.5" points="255,-524.25 251.4,-516.25 254.25,-523.29 254.25,-516.25 255,-516.25 255.75,-516.25 255.75,-523.29 258.6,-516.25 255,-524.25"/>
<polygon fill="#2222e0" stroke="#2222e0" stroke-width="2.5" points="315.57,-430 307.57,-433.6 314.61,-430.75 307.57,-430.75 307.57,-430 307.57,-429.25 314.61,-429.25 307.57,-426.4 315.57,-430"/>
</g>
<!-- node0x7bd1809e3290 -->
<g id="node3" class="node">
<title>node0x7bd1809e3290</title>
<path fill="#6ca1f9" stroke="#101510" stroke-width="2.1" d="M137.75,-331C137.75,-331 12,-331 12,-331 6,-331 0,-325 0,-319 0,-319 0,-276 0,-276 0,-270 6,-264 12,-264 12,-264 137.75,-264 137.75,-264 143.75,-264 149.75,-270 149.75,-276 149.75,-276 149.75,-319 149.75,-319 149.75,-325 143.75,-331 137.75,-331"/>
<polygon fill="#101510" fill-opacity="0.203922" stroke="none" points="8,-297.5 8,-327 141.75,-327 141.75,-297.5 8,-297.5"/>
<polygon fill="none" stroke="#101510" points="8,-297.5 8,-327 141.75,-327 141.75,-297.5 8,-297.5"/>
<text xml:space="preserve" text-anchor="start" x="37.75" y="-309.7" font-family="monospace" font-weight="bold" font-size="14.00">type:</text>
<text xml:space="preserve" text-anchor="start" x="79" y="-309.7" font-family="monospace" font-size="14.00"> NUM</text>
<polygon fill="#101510" fill-opacity="0.203922" stroke="none" points="8,-268 8,-297.5 141.75,-297.5 141.75,-268 8,-268"/>
<polygon fill="none" stroke="#101510" points="8,-268 8,-297.5 141.75,-297.5 141.75,-268 8,-268"/>
<text xml:space="preserve" text-anchor="start" x="13" y="-280.2" font-family="monospace" font-weight="bold" font-size="14.00">value:</text>
<text xml:space="preserve" text-anchor="start" x="62.5" y="-280.2" font-family="monospace" font-size="14.00"> 8.000000</text>
</g>
<!-- node0x7bd1809e3310&#45;&gt;node0x7bd1809e3290 -->
<g id="edge2" class="edge">
<title>node0x7bd1809e3310&#45;&gt;node0x7bd1809e3290</title>
<path fill="none" stroke="#2222e0" stroke-width="2.5" d="M136.81,-384.12C136.81,-384.12 136.81,-342.71 136.81,-342.71"/>
<polygon fill="#2222e0" stroke="#2222e0" stroke-width="2.5" points="136.81,-392.12 133.21,-384.12 136.06,-391.16 136.06,-384.12 136.81,-384.12 137.56,-384.12 137.56,-391.16 140.41,-384.12 136.81,-392.12"/>
<polygon fill="#2222e0" stroke="#2222e0" stroke-width="2.5" points="136.81,-334.71 140.41,-342.71 137.56,-335.66 137.56,-342.71 136.81,-342.71 136.06,-342.71 136.06,-335.66 133.21,-342.71 136.81,-334.71"/>
</g>
<!-- node0x7bd1809e32d0 -->
<g id="node4" class="node">
<title>node0x7bd1809e32d0</title>
<path fill="#6ca1f9" stroke="#101510" stroke-width="2.1" d="M327.75,-331C327.75,-331 202,-331 202,-331 196,-331 190,-325 190,-319 190,-319 190,-276 190,-276 190,-270 196,-264 202,-264 202,-264 327.75,-264 327.75,-264 333.75,-264 339.75,-270 339.75,-276 339.75,-276 339.75,-319 339.75,-319 339.75,-325 333.75,-331 327.75,-331"/>
<polygon fill="#101510" fill-opacity="0.203922" stroke="none" points="198,-297.5 198,-327 331.75,-327 331.75,-297.5 198,-297.5"/>
<polygon fill="none" stroke="#101510" points="198,-297.5 198,-327 331.75,-327 331.75,-297.5 198,-297.5"/>
<text xml:space="preserve" text-anchor="start" x="227.75" y="-309.7" font-family="monospace" font-weight="bold" font-size="14.00">type:</text>
<text xml:space="preserve" text-anchor="start" x="269" y="-309.7" font-family="monospace" font-size="14.00"> NUM</text>
<polygon fill="#101510" fill-opacity="0.203922" stroke="none" points="198,-268 198,-297.5 331.75,-297.5 331.75,-268 198,-268"/>
<polygon fill="none" stroke="#101510" points="198,-268 198,-297.5 331.75,-297.5 331.75,-268 198,-268"/>
<text xml:space="preserve" text-anchor="start" x="203" y="-280.2" font-family="monospace" font-weight="bold" font-size="14.00">value:</text>
<text xml:space="preserve" text-anchor="start" x="252.5" y="-280.2" font-family="monospace" font-size="14.00"> 3.000000</text>
</g>
<!-- node0x7bd1809e3310&#45;&gt;node0x7bd1809e32d0 -->
<g id="edge3" class="edge">
<title>node0x7bd1809e3310&#45;&gt;node0x7bd1809e32d0</title>
<path fill="none" stroke="#2222e0" stroke-width="2.5" d="M202.94,-384.12C202.94,-384.12 202.94,-342.71 202.94,-342.71"/>
<polygon fill="#2222e0" stroke="#2222e0" stroke-width="2.5" points="202.94,-392.12 199.34,-384.12 202.19,-391.16 202.19,-384.12 202.94,-384.12 203.69,-384.12 203.69,-391.16 206.54,-384.12 202.94,-392.12"/>
<polygon fill="#2222e0" stroke="#2222e0" stroke-width="2.5" points="202.94,-334.71 206.54,-342.71 203.69,-335.66 203.69,-342.71 202.94,-342.71 202.19,-342.71 202.19,-335.66 199.34,-342.71 202.94,-334.71"/>
</g>
<!-- node0x7bd1809e3390 -->
<g id="node6" class="node">
<title>node0x7bd1809e3390</title>
<path fill="#b581f4" stroke="#101510" stroke-width="2.1" d="M484.25,-331C484.25,-331 391.5,-331 391.5,-331 385.5,-331 379.5,-325 379.5,-319 379.5,-319 379.5,-276 379.5,-276 379.5,-270 385.5,-264 391.5,-264 391.5,-264 484.25,-264 484.25,-264 490.25,-264 496.25,-270 496.25,-276 496.25,-276 496.25,-319 496.25,-319 496.25,-325 490.25,-331 484.25,-331"/>
<polygon fill="#101510" fill-opacity="0.203922" stroke="none" points="387.5,-297.5 387.5,-327 488.25,-327 488.25,-297.5 387.5,-297.5"/>
<polygon fill="none" stroke="#101510" points="387.5,-297.5 387.5,-327 488.25,-327 488.25,-297.5 387.5,-297.5"/>
<text xml:space="preserve" text-anchor="start" x="392.5" y="-309.7" font-family="monospace" font-weight="bold" font-size="14.00">type:</text>
<text xml:space="preserve" text-anchor="start" x="433.75" y="-309.7" font-family="monospace" font-size="14.00"> IDENT</text>
<polygon fill="#101510" fill-opacity="0.203922" stroke="none" points="387.5,-268 387.5,-297.5 488.25,-297.5 488.25,-268 387.5,-268"/>
<polygon fill="none" stroke="#101510" points="387.5,-268 387.5,-297.5 488.25,-297.5 488.25,-268 387.5,-268"/>
<text xml:space="preserve" text-anchor="start" x="396.62" y="-280.2" font-family="monospace" font-weight="bold" font-size="14.00">value:</text>
<text xml:space="preserve" text-anchor="start" x="446.12" y="-280.2" font-family="monospace" font-size="14.00"> dog</text>
</g>
<!-- node0x7bd1809e33d0&#45;&gt;node0x7bd1809e3390 -->
<g id="edge5" class="edge">
<title>node0x7bd1809e33d0&#45;&gt;node0x7bd1809e3390</title>
<path fill="none" stroke="#2222e0" stroke-width="2.5" d="M403.81,-384.12C403.81,-384.12 403.81,-342.71 403.81,-342.71"/>
<polygon fill="#2222e0" stroke="#2222e0" stroke-width="2.5" points="403.81,-392.12 400.21,-384.12 403.06,-391.16 403.06,-384.12 403.81,-384.12 404.56,-384.12 404.56,-391.16 407.41,-384.12 403.81,-392.12"/>
<polygon fill="#2222e0" stroke="#2222e0" stroke-width="2.5" points="403.81,-334.71 407.41,-342.71 404.56,-335.66 404.56,-342.71 403.81,-342.71 403.06,-342.71 403.06,-335.66 400.21,-342.71 403.81,-334.71"/>
</g>
<!-- node0x7bd1809e3490 -->
<g id="node7" class="node">
<title>node0x7bd1809e3490</title>
<path fill="#f9e2af" stroke="#101510" stroke-width="2.1" d="M633.12,-331C633.12,-331 548.62,-331 548.62,-331 542.62,-331 536.62,-325 536.62,-319 536.62,-319 536.62,-276 536.62,-276 536.62,-270 542.62,-264 548.62,-264 548.62,-264 633.12,-264 633.12,-264 639.12,-264 645.12,-270 645.12,-276 645.12,-276 645.12,-319 645.12,-319 645.12,-325 639.12,-331 633.12,-331"/>
<polygon fill="#101510" fill-opacity="0.203922" stroke="none" points="544.62,-297.5 544.62,-327 637.12,-327 637.12,-297.5 544.62,-297.5"/>
<polygon fill="none" stroke="#101510" points="544.62,-297.5 544.62,-327 637.12,-327 637.12,-297.5 544.62,-297.5"/>
<text xml:space="preserve" text-anchor="start" x="549.62" y="-309.7" font-family="monospace" font-weight="bold" font-size="14.00">type:</text>
<text xml:space="preserve" text-anchor="start" x="590.88" y="-309.7" font-family="monospace" font-size="14.00"> CTRL</text>
<polygon fill="#101510" fill-opacity="0.203922" stroke="none" points="544.62,-268 544.62,-297.5 637.12,-297.5 637.12,-268 544.62,-268"/>
<polygon fill="none" stroke="#101510" points="544.62,-268 544.62,-297.5 637.12,-297.5 637.12,-268 544.62,-268"/>
<text xml:space="preserve" text-anchor="start" x="557.88" y="-280.2" font-family="monospace" font-weight="bold" font-size="14.00">value:</text>
<text xml:space="preserve" text-anchor="start" x="607.38" y="-280.2" font-family="monospace" font-size="14.00"> ;</text>
</g>
<!-- node0x7bd1809e33d0&#45;&gt;node0x7bd1809e3490 -->
<g id="edge6" class="edge">
<title>node0x7bd1809e33d0&#45;&gt;node0x7bd1809e3490</title>
<path fill="none" stroke="#2222e0" stroke-width="2.5" d="M439.96,-430C439.96,-430 590.88,-430 590.88,-430 590.88,-430 590.88,-343.01 590.88,-343.01"/>
<polygon fill="#2222e0" stroke="#2222e0" stroke-width="2.5" points="431.96,-430 439.96,-426.4 432.91,-429.25 439.96,-429.25 439.96,-430 439.96,-430.75 432.91,-430.75 439.96,-433.6 431.96,-430"/>
<polygon fill="#2222e0" stroke="#2222e0" stroke-width="2.5" points="590.88,-335.01 594.48,-343.01 591.63,-335.97 591.63,-343.01 590.88,-343.01 590.13,-343.01 590.13,-335.97 587.28,-343.01 590.88,-335.01"/>
</g>
<!-- node0x7bd1809e3450 -->
<g id="node8" class="node">
<title>node0x7bd1809e3450</title>
<path fill="#a6e3a1" stroke="#101510" stroke-width="2.1" d="M624.88,-199C624.88,-199 556.88,-199 556.88,-199 550.88,-199 544.88,-193 544.88,-187 544.88,-187 544.88,-144 544.88,-144 544.88,-138 550.88,-132 556.88,-132 556.88,-132 624.88,-132 624.88,-132 630.88,-132 636.88,-138 636.88,-144 636.88,-144 636.88,-187 636.88,-187 636.88,-193 630.88,-199 624.88,-199"/>
<polygon fill="#101510" fill-opacity="0.203922" stroke="none" points="552.88,-165.5 552.88,-195 628.88,-195 628.88,-165.5 552.88,-165.5"/>
<polygon fill="none" stroke="#101510" points="552.88,-165.5 552.88,-195 628.88,-195 628.88,-165.5 552.88,-165.5"/>
<text xml:space="preserve" text-anchor="start" x="557.88" y="-177.7" font-family="monospace" font-weight="bold" font-size="14.00">type:</text>
<text xml:space="preserve" text-anchor="start" x="599.12" y="-177.7" font-family="monospace" font-size="14.00"> OP</text>
<polygon fill="#101510" fill-opacity="0.203922" stroke="none" points="552.88,-136 552.88,-165.5 628.88,-165.5 628.88,-136 552.88,-136"/>
<polygon fill="none" stroke="#101510" points="552.88,-136 552.88,-165.5 628.88,-165.5 628.88,-136 552.88,-136"/>
<text xml:space="preserve" text-anchor="start" x="557.88" y="-148.2" font-family="monospace" font-weight="bold" font-size="14.00">value:</text>
<text xml:space="preserve" text-anchor="start" x="607.38" y="-148.2" font-family="monospace" font-size="14.00"> !</text>
</g>
<!-- node0x7bd1809e3490&#45;&gt;node0x7bd1809e3450 -->
<g id="edge7" class="edge">
<title>node0x7bd1809e3490&#45;&gt;node0x7bd1809e3450</title>
<path fill="none" stroke="#2222e0" stroke-width="2.5" d="M590.88,-252.12C590.88,-252.12 590.88,-210.71 590.88,-210.71"/>
<polygon fill="#2222e0" stroke="#2222e0" stroke-width="2.5" points="590.88,-260.12 587.28,-252.12 590.13,-259.16 590.13,-252.12 590.88,-252.12 591.63,-252.12 591.63,-259.16 594.48,-252.12 590.88,-260.12"/>
<polygon fill="#2222e0" stroke="#2222e0" stroke-width="2.5" points="590.88,-202.71 594.48,-210.71 591.63,-203.66 591.63,-210.71 590.88,-210.71 590.13,-210.71 590.13,-203.66 587.28,-210.71 590.88,-202.71"/>
</g>
<!-- node0x7bd1809e3410 -->
<g id="node9" class="node">
<title>node0x7bd1809e3410</title>
<path fill="#b581f4" stroke="#101510" stroke-width="2.1" d="M641.38,-67C641.38,-67 540.38,-67 540.38,-67 534.38,-67 528.38,-61 528.38,-55 528.38,-55 528.38,-12 528.38,-12 528.38,-6 534.38,0 540.38,0 540.38,0 641.38,0 641.38,0 647.38,0 653.38,-6 653.38,-12 653.38,-12 653.38,-55 653.38,-55 653.38,-61 647.38,-67 641.38,-67"/>
<polygon fill="#101510" fill-opacity="0.203922" stroke="none" points="536.38,-33.5 536.38,-63 645.38,-63 645.38,-33.5 536.38,-33.5"/>
<polygon fill="none" stroke="#101510" points="536.38,-33.5 536.38,-63 645.38,-63 645.38,-33.5 536.38,-33.5"/>
<text xml:space="preserve" text-anchor="start" x="545.5" y="-45.7" font-family="monospace" font-weight="bold" font-size="14.00">type:</text>
<text xml:space="preserve" text-anchor="start" x="586.75" y="-45.7" font-family="monospace" font-size="14.00"> IDENT</text>
<polygon fill="#101510" fill-opacity="0.203922" stroke="none" points="536.38,-4 536.38,-33.5 645.38,-33.5 645.38,-4 536.38,-4"/>
<polygon fill="none" stroke="#101510" points="536.38,-4 536.38,-33.5 645.38,-33.5 645.38,-4 536.38,-4"/>
<text xml:space="preserve" text-anchor="start" x="541.38" y="-16.2" font-family="monospace" font-weight="bold" font-size="14.00">value:</text>
<text xml:space="preserve" text-anchor="start" x="590.88" y="-16.2" font-family="monospace" font-size="14.00"> apple</text>
</g>
<!-- node0x7bd1809e3450&#45;&gt;node0x7bd1809e3410 -->
<g id="edge8" class="edge">
<title>node0x7bd1809e3450&#45;&gt;node0x7bd1809e3410</title>
<path fill="none" stroke="#2222e0" stroke-width="2.5" d="M590.88,-120.12C590.88,-120.12 590.88,-78.71 590.88,-78.71"/>
<polygon fill="#2222e0" stroke="#2222e0" stroke-width="2.5" points="590.88,-128.12 587.28,-120.12 590.13,-127.16 590.13,-120.12 590.88,-120.12 591.63,-120.12 591.63,-127.16 594.48,-120.12 590.88,-128.12"/>
<polygon fill="#2222e0" stroke="#2222e0" stroke-width="2.5" points="590.88,-70.71 594.48,-78.71 591.63,-71.66 591.63,-78.71 590.88,-78.71 590.13,-78.71 590.13,-71.66 587.28,-78.71 590.88,-70.71"/>
</g>
</g>
</svg>
