<?xml version="1.0" encoding="UTF-8" standalone="no"?>
<!DOCTYPE svg PUBLIC "-//W3C//DTD SVG 1.1//EN"
 "http://www.w3.org/Graphics/SVG/1.1/DTD/svg11.dtd">
<!-- Generated by graphviz version 14.1.5 (0)
 -->
<!-- Title: G Pages: 1 -->
<svg width="697pt" height="499pt"
 viewBox="0.00 0.00 697.00 499.00" xmlns="http://www.w3.org/2000/svg" xmlns:xlink="http://www.w3.org/1999/xlink">
<g id="graph0" class="graph" transform="scale(1 1) rotate(0) translate(18 481)">
<title>G</title>
<polygon fill="#ffffff" stroke="none" points="-18,18 -18,-481 679.38,-481 679.38,18 -18,18"/>
<!-- node0x7c27c8be3390 -->
<g id="node1" class="node">
<title>node0x7c27c8be3390</title>
<path fill="#f9e2af" stroke="#101510" stroke-width="2.1" d="M351.12,-463C351.12,-463 266.62,-463 266.62,-463 260.62,-463 254.62,-457 254.62,-451 254.62,-451 254.62,-408 254.62,-408 254.62,-402 260.62,-396 266.62,-396 266.62,-396 351.12,-396 351.12,-396 357.12,-396 363.12,-402 363.12,-408 363.12,-408 363.12,-451 363.12,-451 363.12,-457 357.12,-463 351.12,-463"/>
<polygon fill="#101510" fill-opacity="0.203922" stroke="none" points="262.62,-429.5 262.62,-459 355.12,-459 355.12,-429.5 262.62,-429.5"/>
<polygon fill="none" stroke="#101510" points="262.62,-429.5 262.62,-459 355.12,-459 355.12,-429.5 262.62,-429.5"/>
<text xml:space="preserve" text-anchor="start" x="267.62" y="-441.7" font-family="monospace" font-weight="bold" font-size="14.00">type:</text>
<text xml:space="preserve" text-anchor="start" x="308.88" y="-441.7" font-family="monospace" font-size="14.00"> CTRL</text>
<polygon fill="#101510" fill-opacity="0.203922" stroke="none" points="262.62,-400 262.62,-429.5 355.12,-429.5 355.12,-400 262.62,-400"/>
<polygon fill="none" stroke="#101510" points="262.62,-400 262.62,-429.5 355.12,-429.5 355.12,-400 262.62,-400"/>
<text xml:space="preserve" text-anchor="start" x="275.88" y="-412.2" font-family="monospace" font-weight="bold" font-size="14.00">value:</text>
<text xml:space="preserve" text-anchor="start" x="325.38" y="-412.2" font-family="monospace" font-size="14.00"> ;</text>
</g>
<!-- node0x7c27c8be3350 -->
<g id="node2" class="node">
<title>node0x7c27c8be3350</title>
<path fill="#f9e2af" stroke="#101510" stroke-width="2.1" d="M277.12,-331C277.12,-331 192.62,-331 192.62,-331 186.62,-331 180.62,-325 180.62,-319 180.62,-319 180.62,-276 180.62,-276 180.62,-270 186.62,-264 192.62,-264 192.62,-264 277.12,-264 277.12,-264 283.12,-264 289.12,-270 289.12,-276 289.12,-276 289.12,-319 289.12,-319 289.12,-325 283.12,-331 277.12,-331"/>
<polygon fill="#101510" fill-opacity="0.203922" stroke="none" points="188.62,-297.5 188.62,-327 281.12,-327 281.12,-297.5 188.62,-297.5"/>
<polygon fill="none" stroke="#101510" points="188.62,-297.5 188.62,-327 281.12,-327 281.12,-297.5 188.62,-297.5"/>
<text xml:space="preserve" text-anchor="start" x="193.62" y="-309.7" font-family="monospace" font-weight="bold" font-size="14.00">type:</text>
<text xml:space="preserve" text-anchor="start" x="234.88" y="-309.7" font-family="monospace" font-size="14.00"> CTRL</text>
<polygon fill="#101510" fill-opacity="0.203922" stroke="none" points="188.62,-268 188.62,-297.5 281.12,-297.5 281.12,-268 188.62,-268"/>
<polygon fill="none" stroke="#101510" points="188.62,-268 188.62,-297.5 281.12,-297.5 281.12,-268 188.62,-268"/>
<text xml:space="preserve" text-anchor="start" x="201.88" y="-280.2" font-family="monospace" font-weight="bold" font-size="14.00">value:</text>
<text xml:space="preserve" text-anchor="start" x="251.38" y="-280.2" font-family="monospace" font-size="14.00"> ;</text>
</g>
<!-- node0x7c27c8be3390&#45;&gt;node0x7c27c8be3350 -->
<g id="edge1" class="edge">
<title>node0x7c27c8be3390&#45;&gt;node0x7c27c8be3350</title>
<path fill="none" stroke="#2222e0" stroke-width="2.5" d="M271.88,-384.12C271.88,-384.12 271.88,-342.71 271.88,-342.71"/>
<polygon fill="#2222e0" stroke="#2222e0" stroke-width="2.5" points="271.88,-392.12 268.28,-384.12 271.13,-391.16 271.13,-384.12 271.88,-384.12 272.63,-384.12 272.63,-391.16 275.48,-384.12 271.88,-392.12"/>
<polygon fill="#2222e0" stroke="#2222e0" stroke-width="2.5" points="271.88,-334.71 275.48,-342.71 272.63,-335.66 272.63,-342.71 271.88,-342.71 271.13,-342.71 271.13,-335.66 268.28,-342.71 271.88,-334.71"/>
</g>
<!-- node0x7c27c8be34d0 -->
<g id="node8" class="node">
<title>node0x7c27c8be34d0</title>
<path fill="#f9e2af" stroke="#101510" stroke-width="2.1" d="M459.12,-331C459.12,-331 374.62,-331 374.62,-331 368.62,-331 362.62,-325 362.62,-319 362.62,-319 362.62,-276 362.62,-276 362.62,-270 368.62,-264 374.62,-264 374.62,-264 459.12,-264 459.12,-264 465.12,-264 471.12,-270 471.12,-276 471.12,-276 471.12,-319 471.12,-319 471.12,-325 465.12,-331 459.12,-331"/>
<polygon fill="#101510" fill-opacity="0.203922" stroke="none" points="370.62,-297.5 370.62,-327 463.12,-327 463.12,-297.5 370.62,-297.5"/>
<polygon fill="none" stroke="#101510" points="370.62,-297.5 370.62,-327 463.12,-327 463.12,-297.5 370.62,-297.5"/>
<text xml:space="preserve" text-anchor="start" x="375.62" y="-309.7" font-family="monospace" font-weight="bold" font-size="14.00">type:</text>
<text xml:space="preserve" text-anchor="start" x="416.88" y="-309.7" font-family="monospace" font-size="14.00"> CTRL</text>
<polygon fill="#101510" fill-opacity="0.203922" stroke="none" points="370.62,-268 370.62,-297.5 463.12,-297.5 463.12,-268 370.62,-268"/>
<polygon fill="none" stroke="#101510" points="370.62,-268 370.62,-297.5 463.12,-297.5 463.12,-268 370.62,-268"/>
<text xml:space="preserve" text-anchor="start" x="383.88" y="-280.2" font-family="monospace" font-weight="bold" font-size="14.00">value:</text>
<text xml:space="preserve" text-anchor="start" x="433.38" y="-280.2" font-family="monospace" font-size="14.00"> ;</text>
</g>
<!-- node0x7c27c8be3390&#45;&gt;node0x7c27c8be34d0 -->
<g id="edge7" class="edge">
<title>node0x7c27c8be3390&#45;&gt;node0x7c27c8be34d0</title>
<path fill="none" stroke="#2222e0" stroke-width="2.5" d="M348.29,-384.08C348.29,-384.08 348.29,-286 348.29,-286 348.29,-286 350.8,-286 350.8,-286"/>
<polygon fill="#2222e0" stroke="#2222e0" stroke-width="2.5" points="348.29,-392.08 344.69,-384.08 347.54,-391.13 347.54,-384.08 348.29,-384.08 349.04,-384.08 349.04,-391.13 351.89,-384.08 348.29,-392.08"/>
<polygon fill="#2222e0" stroke="#2222e0" stroke-width="2.5" points="358.8,-286 350.8,-289.6 357.84,-286.75 350.8,-286.75 350.8,-286 350.8,-285.25 357.84,-285.25 350.8,-282.4 358.8,-286"/>
</g>
<!-- node0x7c27c8be3310 -->
<g id="node3" class="node">
<title>node0x7c27c8be3310</title>
<path fill="#a6e3a1" stroke="#101510" stroke-width="2.1" d="M203.88,-199C203.88,-199 135.88,-199 135.88,-199 129.88,-199 123.88,-193 123.88,-187 123.88,-187 123.88,-144 123.88,-144 123.88,-138 129.88,-132 135.88,-132 135.88,-132 203.88,-132 203.88,-132 209.88,-132 215.88,-138 215.88,-144 215.88,-144 215.88,-187 215.88,-187 215.88,-193 209.88,-199 203.88,-199"/>
<polygon fill="#101510" fill-opacity="0.203922" stroke="none" points="131.88,-165.5 131.88,-195 207.88,-195 207.88,-165.5 131.88,-165.5"/>
<polygon fill="none" stroke="#101510" points="131.88,-165.5 131.88,-195 207.88,-195 207.88,-165.5 131.88,-165.5"/>
<text xml:space="preserve" text-anchor="start" x="136.88" y="-177.7" font-family="monospace" font-weight="bold" font-size="14.00">type:</text>
<text xml:space="preserve" text-anchor="start" x="178.12" y="-177.7" font-family="monospace" font-size="14.00"> OP</text>
<polygon fill="#101510" fill-opacity="0.203922" stroke="none" points="131.88,-136 131.88,-165.5 207.88,-165.5 207.88,-136 131.88,-136"/>
<polygon fill="none" stroke="#101510" points="131.88,-136 131.88,-165.5 207.88,-165.5 207.88,-136 131.88,-136"/>
<text xml:space="preserve" text-anchor="start" x="136.88" y="-148.2" font-family="monospace" font-weight="bold" font-size="14.00">value:</text>
<text xml:space="preserve" text-anchor="start" x="186.38" y="-148.2" font-family="monospace" font-size="14.00"> *</text>
</g>
<!-- node0x7c27c8be3350&#45;&gt;node0x7c27c8be3310 -->
<g id="edge2" class="edge">
<title>node0x7c27c8be3350&#45;&gt;node0x7c27c8be3310</title>
<path fill="none" stroke="#2222e0" stroke-width="2.5" d="M198.25,-252.12C198.25,-252.12 198.25,-210.71 198.25,-210.71"/>
<polygon fill="#2222e0" stroke="#2222e0" stroke-width="2.5" points="198.25,-260.12 194.65,-252.12 197.5,-259.16 197.5,-252.12 198.25,-252.12 199,-252.12 199,-259.16 201.85,-252.12 198.25,-260.12"/>
<polygon fill="#2222e0" stroke="#2222e0" stroke-width="2.5" points="198.25,-202.71 201.85,-210.71 199,-203.66 199,-210.71 198.25,-210.71 197.5,-210.71 197.5,-203.66 194.65,-210.71 198.25,-202.71"/>
</g>
<!-- node0x7c27c8be3410 -->
<g id="node6" class="node">
<title>node0x7c27c8be3410</title>
<path fill="#f9e2af" stroke="#101510" stroke-width="2.1" d="M416.12,-199C416.12,-199 331.62,-199 331.62,-199 325.62,-199 319.62,-193 319.62,-187 319.62,-187 319.62,-144 319.62,-144 319.62,-138 325.62,-132 331.62,-132 331.62,-132 416.12,-132 416.12,-132 422.12,-132 428.12,-138 428.12,-144 428.12,-144 428.12,-187 428.12,-187 428.12,-193 422.12,-199 416.12,-199"/>
<polygon fill="#101510" fill-opacity="0.203922" stroke="none" points="327.62,-165.5 327.62,-195 420.12,-195 420.12,-165.5 327.62,-165.5"/>
<polygon fill="none" stroke="#101510" points="327.62,-165.5 327.62,-195 420.12,-195 420.12,-165.5 327.62,-165.5"/>
<text xml:space="preserve" text-anchor="start" x="332.62" y="-177.7" font-family="monospace" font-weight="bold" font-size="14.00">type:</text>
<text xml:space="preserve" text-anchor="start" x="373.88" y="-177.7" font-family="monospace" font-size="14.00"> CTRL</text>
<polygon fill="#101510" fill-opacity="0.203922" stroke="none" points="327.62,-136 327.62,-165.5 420.12,-165.5 420.12,-136 327.62,-136"/>
<polygon fill="none" stroke="#101510" points="327.62,-136 327.62,-165.5 420.12,-165.5 420.12,-136 327.62,-136"/>
<text xml:space="preserve" text-anchor="start" x="340.88" y="-148.2" font-family="monospace" font-weight="bold" font-size="14.00">value:</text>
<text xml:space="preserve" text-anchor="start" x="390.38" y="-148.2" font-family="monospace" font-size="14.00"> ;</text>
</g>
<!-- node0x7c27c8be3350&#45;&gt;node0x7c27c8be3410 -->
<g id="edge5" class="edge">
<title>node0x7c27c8be3350&#45;&gt;node0x7c27c8be3410</title>
<path fill="none" stroke="#2222e0" stroke-width="2.5" d="M300.97,-309C300.97,-309 333.96,-309 333.96,-309 333.96,-309 333.96,-210.92 333.96,-210.92"/>
<polygon fill="#2222e0" stroke="#2222e0" stroke-width="2.5" points="292.97,-309 300.97,-305.4 293.92,-308.25 300.97,-308.25 300.97,-309 300.97,-309.75 293.92,-309.75 300.97,-312.6 292.97,-309"/>
<polygon fill="#2222e0" stroke="#2222e0" stroke-width="2.5" points="333.96,-202.92 337.56,-210.92 334.71,-203.87 334.71,-210.92 333.96,-210.92 333.21,-210.92 333.21,-203.87 330.36,-210.92 333.96,-202.92"/>
</g>
<!-- node0x7c27c8be3290 -->
<g id="node4" class="node">
<title>node0x7c27c8be3290</title>
<path fill="#6ca1f9" stroke="#101510" stroke-width="2.1" d="M137.75,-67C137.75,-67 12,-67 12,-67 6,-67 0,-61 0,-55 0,-55 0,-12 0,-12 0,-6 6,0 12,0 12,0 137.75,0 137.75,0 143.75,0 149.75,-6 149.75,-12 149.75,-12 149.75,-55 149.75,-55 149.75,-61 143.75,-67 137.75,-67"/>
<polygon fill="#101510" fill-opacity="0.203922" stroke="none" points="8,-33.5 8,-63 141.75,-63 141.75,-33.5 8,-33.5"/>
<polygon fill="none" stroke="#101510" points="8,-33.5 8,-63 141.75,-63 141.75,-33.5 8,-33.5"/>
<text xml:space="preserve" text-anchor="start" x="37.75" y="-45.7" font-family="monospace" font-weight="bold" font-size="14.00">type:</text>
<text xml:space="preserve" text-anchor="start" x="79" y="-45.7" font-family="monospace" font-size="14.00"> NUM</text>
<polygon fill="#101510" fill-opacity="0.203922" stroke="none" points="8,-4 8,-33.5 141.75,-33.5 141.75,-4 8,-4"/>
<polygon fill="none" stroke="#101510" points="8,-4 8,-33.5 141.75,-33.5 141.75,-4 8,-4"/>
<text xml:space="preserve" text-anchor="start" x="13" y="-16.2" font-family="monospace" font-weight="bold" font-size="14.00">value:</text>
<text xml:space="preserve" text-anchor="start" x="62.5" y="-16.2" font-family="monospace" font-size="14.00"> 8.000000</text>
</g>
<!-- node0x7c27c8be3310&#45;&gt;node0x7c27c8be3290 -->
<g id="edge3" class="edge">
<title>node0x7c27c8be3310&#45;&gt;node0x7c27c8be3290</title>
<path fill="none" stroke="#2222e0" stroke-width="2.5" d="M136.81,-120.12C136.81,-120.12 136.81,-78.71 136.81,-78.71"/>
<polygon fill="#2222e0" stroke="#2222e0" stroke-width="2.5" points="136.81,-128.12 133.21,-120.12 136.06,-127.16 136.06,-120.12 136.81,-120.12 137.56,-120.12 137.56,-127.16 140.41,-120.12 136.81,-128.12"/>
<polygon fill="#2222e0" stroke="#2222e0" stroke-width="2.5" points="136.81,-70.71 140.41,-78.71 137.56,-71.66 137.56,-78.71 136.81,-78.71 136.06,-78.71 136.06,-71.66 133.21,-78.71 136.81,-70.71"/>
</g>
<!-- node0x7c27c8be32d0 -->
<g id="node5" class="node">
<title>node0x7c27c8be32d0</title>
<path fill="#6ca1f9" stroke="#101510" stroke-width="2.1" d="M327.75,-67C327.75,-67 202,-67 202,-67 196,-67 190,-61 190,-55 190,-55 190,-12 190,-12 190,-6 196,0 202,0 202,0 327.75,0 327.75,0 333.75,0 339.75,-6 339.75,-12 339.75,-12 339.75,-55 339.75,-55 339.75,-61 333.75,-67 327.75,-67"/>
<polygon fill="#101510" fill-opacity="0.203922" stroke="none" points="198,-33.5 198,-63 331.75,-63 331.75,-33.5 198,-33.5"/>
<polygon fill="none" stroke="#101510" points="198,-33.5 198,-63 331.75,-63 331.75,-33.5 198,-33.5"/>
<text xml:space="preserve" text-anchor="start" x="227.75" y="-45.7" font-family="monospace" font-weight="bold" font-size="14.00">type:</text>
<text xml:space="preserve" text-anchor="start" x="269" y="-45.7" font-family="monospace" font-size="14.00"> NUM</text>
<polygon fill="#101510" fill-opacity="0.203922" stroke="none" points="198,-4 198,-33.5 331.75,-33.5 331.75,-4 198,-4"/>
<polygon fill="none" stroke="#101510" points="198,-4 198,-33.5 331.75,-33.5 331.75,-4 198,-4"/>
<text xml:space="preserve" text-anchor="start" x="203" y="-16.2" font-family="monospace" font-weight="bold" font-size="14.00">value:</text>
<text xml:space="preserve" text-anchor="start" x="252.5" y="-16.2" font-family="monospace" font-size="14.00"> 3.000000</text>
</g>
<!-- node0x7c27c8be3310&#45;&gt;node0x7c27c8be32d0 -->
<g id="edge4" class="edge">
<title>node0x7c27c8be3310&#45;&gt;node0x7c27c8be32d0</title>
<path fill="none" stroke="#2222e0" stroke-width="2.5" d="M202.94,-120.12C202.94,-120.12 202.94,-78.71 202.94,-78.71"/>
<polygon fill="#2222e0" stroke="#2222e0" stroke-width="2.5" points="202.94,-128.12 199.34,-120.12 202.19,-127.16 202.19,-120.12 202.94,-120.12 203.69,-120.12 203.69,-127.16 206.54,-120.12 202.94,-128.12"/>
<polygon fill="#2222e0" stroke="#2222e0" stroke-width="2.5" points="202.94,-70.71 206.54,-78.71 203.69,-71.66 203.69,-78.71 202.94,-78.71 202.19,-78.71 202.19,-71.66 199.34,-78.71 202.94,-70.71"/>
</g>
<!-- node0x7c27c8be33d0 -->
<g id="node7" class="node">
<title>node0x7c27c8be33d0</title>
<path fill="#b581f4" stroke="#101510" stroke-width="2.1" d="M484.25,-67C484.25,-67 391.5,-67 391.5,-67 385.5,-67 379.5,-61 379.5,-55 379.5,-55 379.5,-12 379.5,-12 379.5,-6 385.5,0 391.5,0 391.5,0 484.25,0 484.25,0 490.25,0 496.25,-6 496.25,-12 496.25,-12 496.25,-55 496.25,-55 496.25,-61 490.25,-67 484.25,-67"/>
<polygon fill="#101510" fill-opacity="0.203922" stroke="none" points="387.5,-33.5 387.5,-63 488.25,-63 488.25,-33.5 387.5,-33.5"/>
<polygon fill="none" stroke="#101510" points="387.5,-33.5 387.5,-63 488.25,-63 488.25,-33.5 387.5,-33.5"/>
<text xml:space="preserve" text-anchor="start" x="392.5" y="-45.7" font-family="monospace" font-weight="bold" font-size="14.00">type:</text>
<text xml:space="preserve" text-anchor="start" x="433.75" y="-45.7" font-family="monospace" font-size="14.00"> IDENT</text>
<polygon fill="#101510" fill-opacity="0.203922" stroke="none" points="387.5,-4 387.5,-33.5 488.25,-33.5 488.25,-4 387.5,-4"/>
<polygon fill="none" stroke="#101510" points="387.5,-4 387.5,-33.5 488.25,-33.5 488.25,-4 387.5,-4"/>
<text xml:space="preserve" text-anchor="start" x="396.62" y="-16.2" font-family="monospace" font-weight="bold" font-size="14.00">value:</text>
<text xml:space="preserve" text-anchor="start" x="446.12" y="-16.2" font-family="monospace" font-size="14.00"> dog</text>
</g>
<!-- node0x7c27c8be3410&#45;&gt;node0x7c27c8be33d0 -->
<g id="edge6" class="edge">
<title>node0x7c27c8be3410&#45;&gt;node0x7c27c8be33d0</title>
<path fill="none" stroke="#2222e0" stroke-width="2.5" d="M403.81,-120.12C403.81,-120.12 403.81,-78.71 403.81,-78.71"/>
<polygon fill="#2222e0" stroke="#2222e0" stroke-width="2.5" points="403.81,-128.12 400.21,-120.12 403.06,-127.16 403.06,-120.12 403.81,-120.12 404.56,-120.12 404.56,-127.16 407.41,-120.12 403.81,-128.12"/>
<polygon fill="#2222e0" stroke="#2222e0" stroke-width="2.5" points="403.81,-70.71 407.41,-78.71 404.56,-71.66 404.56,-78.71 403.81,-78.71 403.06,-78.71 403.06,-71.66 400.21,-78.71 403.81,-70.71"/>
</g>
<!-- node0x7c27c8be3490 -->
<g id="node9" class="node">
<title>node0x7c27c8be3490</title>
<path fill="#a6e3a1" stroke="#101510" stroke-width="2.1" d="M589.88,-199C589.88,-199 521.88,-199 521.88,-199 515.88,-199 509.88,-193 509.88,-187 509.88,-187 509.88,-144 509.88,-144 509.88,-138 515.88,-132 521.88,-132 521.88,-132 589.88,-132 589.88,-132 595.88,-132 601.88,-138 601.88,-144 601.88,-144 601.88,-187 601.88,-187 601.88,-193 595.88,-199 589.88,-199"/>
<polygon fill="#101510" fill-opacity="0.203922" stroke="none" points="517.88,-165.5 517.88,-195 593.88,-195 593.88,-165.5 517.88,-165.5"/>
<polygon fill="none" stroke="#101510" points="517.88,-165.5 517.88,-195 593.88,-195 593.88,-165.5 517.88,-165.5"/>
<text xml:space="preserve" text-anchor="start" x="522.88" y="-177.7" font-family="monospace" font-weight="bold" font-size="14.00">type:</text>
<text xml:space="preserve" text-anchor="start" x="564.12" y="-177.7" font-family="monospace" font-size="14.00"> OP</text>
<polygon fill="#101510" fill-opacity="0.203922" stroke="none" points="517.88,-136 517.88,-165.5 593.88,-165.5 593.88,-136 517.88,-136"/>
<polygon fill="none" stroke="#101510" points="517.88,-136 517.88,-165.5 593.88,-165.5 593.88,-136 517.88,-136"/>
<text xml:space="preserve" text-anchor="start" x="522.88" y="-148.2" font-family="monospace" font-weight="bold" font-size="14.00">value:</text>
<text xml:space="preserve" text-anchor="start" x="572.38" y="-148.2" font-family="monospace" font-size="14.00"> !</text>
</g>
<!-- node0x7c27c8be34d0&#45;&gt;node0x7c27c8be3490 -->
<g id="edge8" class="edge">
<title>node0x7c27c8be34d0&#45;&gt;node0x7c27c8be3490</title>
<path fill="none" stroke="#2222e0" stroke-width="2.5" d="M449.62,-252.25C449.62,-252.25 449.62,-166 449.62,-166 449.62,-166 497.92,-166 497.92,-166"/>
<polygon fill="#2222e0" stroke="#2222e0" stroke-width="2.5" points="449.63,-260.25 446.03,-252.25 448.88,-259.29 448.88,-252.25 449.63,-252.25 450.38,-252.25 450.38,-259.29 453.23,-252.25 449.63,-260.25"/>
<polygon fill="#2222e0" stroke="#2222e0" stroke-width="2.5" points="505.92,-166 497.92,-169.6 504.96,-166.75 497.92,-166.75 497.92,-166 497.92,-165.25 504.96,-165.25 497.92,-162.4 505.92,-166"/>
</g>
<!-- node0x7c27c8be3450 -->
<g id="node10" class="node">
<title>node0x7c27c8be3450</title>
<path fill="#b581f4" stroke="#101510" stroke-width="2.1" d="M649.38,-67C649.38,-67 548.38,-67 548.38,-67 542.38,-67 536.38,-61 536.38,-55 536.38,-55 536.38,-12 536.38,-12 536.38,-6 542.38,0 548.38,0 548.38,0 649.38,0 649.38,0 655.38,0 661.38,-6 661.38,-12 661.38,-12 661.38,-55 661.38,-55 661.38,-61 655.38,-67 649.38,-67"/>
<polygon fill="#101510" fill-opacity="0.203922" stroke="none" points="544.38,-33.5 544.38,-63 653.38,-63 653.38,-33.5 544.38,-33.5"/>
<polygon fill="none" stroke="#101510" points="544.38,-33.5 544.38,-63 653.38,-63 653.38,-33.5 544.38,-33.5"/>
<text xml:space="preserve" text-anchor="start" x="553.5" y="-45.7" font-family="monospace" font-weight="bold" font-size="14.00">type:</text>
<text xml:space="preserve" text-anchor="start" x="594.75" y="-45.7" font-family="monospace" font-size="14.00"> IDENT</text>
<polygon fill="#101510" fill-opacity="0.203922" stroke="none" points="544.38,-4 544.38,-33.5 653.38,-33.5 653.38,-4 544.38,-4"/>
<polygon fill="none" stroke="#101510" points="544.38,-4 544.38,-33.5 653.38,-33.5 653.38,-4 544.38,-4"/>
<text xml:space="preserve" text-anchor="start" x="549.38" y="-16.2" font-family="monospace" font-weight="bold" font-size="14.00">value:</text>
<text xml:space="preserve" text-anchor="start" x="598.88" y="-16.2" font-family="monospace" font-size="14.00"> apple</text>
</g>
<!-- node0x7c27c8be3490&#45;&gt;node0x7c27c8be3450 -->
<g id="edge9" class="edge">
<title>node0x7c27c8be3490&#45;&gt;node0x7c27c8be3450</title>
<path fill="none" stroke="#2222e0" stroke-width="2.5" d="M569.12,-120.12C569.12,-120.12 569.12,-78.71 569.12,-78.71"/>
<polygon fill="#2222e0" stroke="#2222e0" stroke-width="2.5" points="569.13,-128.12 565.53,-120.12 568.38,-127.16 568.38,-120.12 569.13,-120.12 569.88,-120.12 569.88,-127.16 572.73,-120.12 569.13,-128.12"/>
<polygon fill="#2222e0" stroke="#2222e0" stroke-width="2.5" points="569.13,-70.71 572.73,-78.71 569.88,-71.66 569.88,-78.71 569.13,-78.71 568.38,-78.71 568.38,-71.66 565.53,-78.71 569.13,-70.71"/>
</g>
</g>
</svg>
