<?xml version="1.0" encoding="UTF-8" standalone="no"?>
<!DOCTYPE svg PUBLIC "-//W3C//DTD SVG 1.1//EN"
 "http://www.w3.org/Graphics/SVG/1.1/DTD/svg11.dtd">
<!-- Generated by graphviz version 14.1.5 (0)
 -->
<!-- Title: G Pages: 1 -->
<svg width="153pt" height="103pt"
 viewBox="0.00 0.00 153.00 103.00" xmlns="http://www.w3.org/2000/svg" xmlns:xlink="http://www.w3.org/1999/xlink">
<g id="graph0" class="graph" transform="scale(1 1) rotate(0) translate(18 85)">
<title>G</title>
<polygon fill="#ffffff" stroke="none" points="-18,18 -18,-85 134.75,-85 134.75,18 -18,18"/>
<!-- node0x7bfde8de3290 -->
<g id="node1" class="node">
<title>node0x7bfde8de3290</title>
<path fill="#fab387" stroke="#101510" stroke-width="2.1" d="M104.75,-67C104.75,-67 12,-67 12,-67 6,-67 0,-61 0,-55 0,-55 0,-12 0,-12 0,-6 6,0 12,0 12,0 104.75,0 104.75,0 110.75,0 116.75,-6 116.75,-12 116.75,-12 116.75,-55 116.75,-55 116.75,-61 110.75,-67 104.75,-67"/>
<polygon fill="#101510" fill-opacity="0.203922" stroke="none" points="8,-33.5 8,-63 108.75,-63 108.75,-33.5 8,-33.5"/>
<polygon fill="none" stroke="#101510" points="8,-33.5 8,-63 108.75,-63 108.75,-33.5 8,-33.5"/>
<text xml:space="preserve" text-anchor="start" x="17.12" y="-45.7" font-family="monospace" font-weight="bold" font-size="14.00">type:</text>
<text xml:space="preserve" text-anchor="start" x="58.37" y="-45.7" font-family="monospace" font-size="14.00"> TYPE</text>
<polygon fill="#101510" fill-opacity="0.203922" stroke="none" points="8,-4 8,-33.5 108.75,-33.5 108.75,-4 8,-4"/>
<polygon fill="none" stroke="#101510" points="8,-4 8,-33.5 108.75,-33.5 108.75,-4 8,-4"/>
<text xml:space="preserve" text-anchor="start" x="13" y="-16.2" font-family="monospace" font-weight="bold" font-size="14.00">value:</text>
<text xml:space="preserve" text-anchor="start" x="62.5" y="-16.2" font-family="monospace" font-size="14.00"> prim</text>
</g>
</g>
</svg>
