<?xml version="1.0" encoding="UTF-8" standalone="no"?>
<!DOCTYPE svg PUBLIC "-//W3C//DTD SVG 1.1//EN"
 "http://www.w3.org/Graphics/SVG/1.1/DTD/svg11.dtd">
<!-- Generated by graphviz version 14.1.5 (0)
 -->
<!-- Title: G Pages: 1 -->
<svg width="186pt" height="235pt"
 viewBox="0.00 0.00 186.00 235.00" xmlns="http://www.w3.org/2000/svg" xmlns:xlink="http://www.w3.org/1999/xlink">
<g id="graph0" class="graph" transform="scale(1 1) rotate(0) translate(18 217)">
<title>G</title>
<polygon fill="#ffffff" stroke="none" points="-18,18 -18,-217 167.75,-217 167.75,18 -18,18"/>
<!-- node0x7c0628de32d0 -->
<g id="node1" class="node">
<title>node0x7c0628de32d0</title>
<path fill="#a6e3a1" stroke="#101510" stroke-width="2.1" d="M108.87,-199C108.87,-199 40.87,-199 40.87,-199 34.87,-199 28.87,-193 28.87,-187 28.87,-187 28.87,-144 28.87,-144 28.87,-138 34.87,-132 40.87,-132 40.87,-132 108.87,-132 108.87,-132 114.87,-132 120.87,-138 120.87,-144 120.87,-144 120.87,-187 120.87,-187 120.87,-193 114.87,-199 108.87,-199"/>
<polygon fill="#101510" fill-opacity="0.203922" stroke="none" points="36.87,-165.5 36.87,-195 112.87,-195 112.87,-165.5 36.87,-165.5"/>
<polygon fill="none" stroke="#101510" points="36.87,-165.5 36.87,-195 112.87,-195 112.87,-165.5 36.87,-165.5"/>
<text xml:space="preserve" text-anchor="start" x="41.87" y="-177.7" font-family="monospace" font-weight="bold" font-size="14.00">type:</text>
<text xml:space="preserve" text-anchor="start" x="83.12" y="-177.7" font-family="monospace" font-size="14.00"> OP</text>
<polygon fill="#101510" fill-opacity="0.203922" stroke="none" points="36.87,-136 36.87,-165.5 112.87,-165.5 112.87,-136 36.87,-136"/>
<polygon fill="none" stroke="#101510" points="36.87,-136 36.87,-165.5 112.87,-165.5 112.87,-136 36.87,-136"/>
<text xml:space="preserve" text-anchor="start" x="41.87" y="-148.2" font-family="monospace" font-weight="bold" font-size="14.00">value:</text>
<text xml:space="preserve" text-anchor="start" x="91.37" y="-148.2" font-family="monospace" font-size="14.00"> !</text>
</g>
<!-- node0x7c0628de3290 -->
<g id="node2" class="node">
<title>node0x7c0628de3290</title>
<path fill="#6ca1f9" stroke="#101510" stroke-width="2.1" d="M137.75,-67C137.75,-67 12,-67 12,-67 6,-67 0,-61 0,-55 0,-55 0,-12 0,-12 0,-6 6,0 12,0 12,0 137.75,0 137.75,0 143.75,0 149.75,-6 149.75,-12 149.75,-12 149.75,-55 149.75,-55 149.75,-61 143.75,-67 137.75,-67"/>
<polygon fill="#101510" fill-opacity="0.203922" stroke="none" points="8,-33.5 8,-63 141.75,-63 141.75,-33.5 8,-33.5"/>
<polygon fill="none" stroke="#101510" points="8,-33.5 8,-63 141.75,-63 141.75,-33.5 8,-33.5"/>
<text xml:space="preserve" text-anchor="start" x="37.75" y="-45.7" font-family="monospace" font-weight="bold" font-size="14.00">type:</text>
<text xml:space="preserve" text-anchor="start" x="79" y="-45.7" font-family="monospace" font-size="14.00"> NUM</text>
<polygon fill="#101510" fill-opacity="0.203922" stroke="none" points="8,-4 8,-33.5 141.75,-33.5 141.75,-4 8,-4"/>
<polygon fill="none" stroke="#101510" points="8,-4 8,-33.5 141.75,-33.5 141.75,-4 8,-4"/>
<text xml:space="preserve" text-anchor="start" x="13" y="-16.2" font-family="monospace" font-weight="bold" font-size="14.00">value:</text>
<text xml:space="preserve" text-anchor="start" x="62.5" y="-16.2" font-family="monospace" font-size="14.00"> 1.000000</text>
</g>
<!-- node0x7c0628de32d0&#45;&gt;node0x7c0628de3290 -->
<g id="edge1" class="edge">
<title>node0x7c0628de32d0&#45;&gt;node0x7c0628de3290</title>
<path fill="none" stroke="#2222e0" stroke-width="2.5" d="M74.87,-120.12C74.87,-120.12 74.87,-78.71 74.87,-78.71"/>
<polygon fill="#2222e0" stroke="#2222e0" stroke-width="2.5" points="74.88,-128.12 71.28,-120.12 74.13,-127.16 74.13,-120.12 74.88,-120.12 75.63,-120.12 75.63,-127.16 78.48,-120.12 74.88,-128.12"/>
<polygon fill="#2222e0" stroke="#2222e0" stroke-width="2.5" points="74.88,-70.71 78.48,-78.71 75.63,-71.66 75.63,-78.71 74.88,-78.71 74.13,-78.71 74.13,-71.66 71.28,-78.71 74.88,-70.71"/>
</g>
</g>
</svg>
