<?xml version="1.0" encoding="UTF-8" standalone="no"?>
<!DOCTYPE svg PUBLIC "-//W3C//DTD SVG 1.1//EN"
 "http://www.w3.org/Graphics/SVG/1.1/DTD/svg11.dtd">
<!-- Generated by graphviz version 14.1.5 (0)
 -->
<!-- Title: G Pages: 1 -->
<svg width="621pt" height="631pt"
 viewBox="0.00 0.00 621.00 631.00" xmlns="http://www.w3.org/2000/svg" xmlns:xlink="http://www.w3.org/1999/xlink">
<g id="graph0" class="graph" transform="scale(1 1) rotate(0) translate(18 613)">
<title>G</title>
<polygon fill="#ffffff" stroke="none" points="-18,18 -18,-613 602.75,-613 602.75,18 -18,18"/>
<!-- node0x7c33fe3e3350 -->
<g id="node1" class="node">
<title>node0x7c33fe3e3350</title>
<path fill="#f9e2af" stroke="#101510" stroke-width="2.1" d="M254.62,-595C254.62,-595 170.12,-595 170.12,-595 164.12,-595 158.12,-589 158.12,-583 158.12,-583 158.12,-540 158.12,-540 158.12,-534 164.12,-528 170.12,-528 170.12,-528 254.62,-528 254.62,-528 260.62,-528 266.62,-534 266.62,-540 266.62,-540 266.62,-583 266.62,-583 266.62,-589 260.62,-595 254.62,-595"/>
<polygon fill="#101510" fill-opacity="0.203922" stroke="none" points="166.12,-561.5 166.12,-591 258.62,-591 258.62,-561.5 166.12,-561.5"/>
<polygon fill="none" stroke="#101510" points="166.12,-561.5 166.12,-591 258.62,-591 258.62,-561.5 166.12,-561.5"/>
<text xml:space="preserve" text-anchor="start" x="171.12" y="-573.7" font-family="monospace" font-weight="bold" font-size="14.00">type:</text>
<text xml:space="preserve" text-anchor="start" x="212.38" y="-573.7" font-family="monospace" font-size="14.00"> CTRL</text>
<polygon fill="#101510" fill-opacity="0.203922" stroke="none" points="166.12,-532 166.12,-561.5 258.62,-561.5 258.62,-532 166.12,-532"/>
<polygon fill="none" stroke="#101510" points="166.12,-532 166.12,-561.5 258.62,-561.5 258.62,-532 166.12,-532"/>
<text xml:space="preserve" text-anchor="start" x="179.38" y="-544.2" font-family="monospace" font-weight="bold" font-size="14.00">value:</text>
<text xml:space="preserve" text-anchor="start" x="228.88" y="-544.2" font-family="monospace" font-size="14.00"> ;</text>
</g>
<!-- node0x7c33fe3e3310 -->
<g id="node2" class="node">
<title>node0x7c33fe3e3310</title>
<path fill="#f9e2af" stroke="#101510" stroke-width="2.1" d="M182.75,-463C182.75,-463 90,-463 90,-463 84,-463 78,-457 78,-451 78,-451 78,-408 78,-408 78,-402 84,-396 90,-396 90,-396 182.75,-396 182.75,-396 188.75,-396 194.75,-402 194.75,-408 194.75,-408 194.75,-451 194.75,-451 194.75,-457 188.75,-463 182.75,-463"/>
<polygon fill="#101510" fill-opacity="0.203922" stroke="none" points="86,-429.5 86,-459 186.75,-459 186.75,-429.5 86,-429.5"/>
<polygon fill="none" stroke="#101510" points="86,-429.5 86,-459 186.75,-459 186.75,-429.5 86,-429.5"/>
<text xml:space="preserve" text-anchor="start" x="95.12" y="-441.7" font-family="monospace" font-weight="bold" font-size="14.00">type:</text>
<text xml:space="preserve" text-anchor="start" x="136.38" y="-441.7" font-family="monospace" font-size="14.00"> CTRL</text>
<polygon fill="#101510" fill-opacity="0.203922" stroke="none" points="86,-400 86,-429.5 186.75,-429.5 186.75,-400 86,-400"/>
<polygon fill="none" stroke="#101510" points="86,-400 86,-429.5 186.75,-429.5 186.75,-400 86,-400"/>
<text xml:space="preserve" text-anchor="start" x="91" y="-412.2" font-family="monospace" font-weight="bold" font-size="14.00">value:</text>
<text xml:space="preserve" text-anchor="start" x="140.5" y="-412.2" font-family="monospace" font-size="14.00"> decl</text>
</g>
<!-- node0x7c33fe3e3350&#45;&gt;node0x7c33fe3e3310 -->
<g id="edge1" class="edge">
<title>node0x7c33fe3e3350&#45;&gt;node0x7c33fe3e3310</title>
<path fill="none" stroke="#2222e0" stroke-width="2.5" d="M176.44,-516.12C176.44,-516.12 176.44,-474.71 176.44,-474.71"/>
<polygon fill="#2222e0" stroke="#2222e0" stroke-width="2.5" points="176.44,-524.12 172.84,-516.12 175.69,-523.16 175.69,-516.12 176.44,-516.12 177.19,-516.12 177.19,-523.16 180.04,-516.12 176.44,-524.12"/>
<polygon fill="#2222e0" stroke="#2222e0" stroke-width="2.5" points="176.44,-466.71 180.04,-474.71 177.19,-467.66 177.19,-474.71 176.44,-474.71 175.69,-474.71 175.69,-467.66 172.84,-474.71 176.44,-466.71"/>
</g>
<!-- node0x7c33fe3e34d0 -->
<g id="node5" class="node">
<title>node0x7c33fe3e34d0</title>
<path fill="#f9e2af" stroke="#101510" stroke-width="2.1" d="M372.62,-463C372.62,-463 288.12,-463 288.12,-463 282.12,-463 276.12,-457 276.12,-451 276.12,-451 276.12,-408 276.12,-408 276.12,-402 282.12,-396 288.12,-396 288.12,-396 372.62,-396 372.62,-396 378.62,-396 384.62,-402 384.62,-408 384.62,-408 384.62,-451 384.62,-451 384.62,-457 378.62,-463 372.62,-463"/>
<polygon fill="#101510" fill-opacity="0.203922" stroke="none" points="284.12,-429.5 284.12,-459 376.62,-459 376.62,-429.5 284.12,-429.5"/>
<polygon fill="none" stroke="#101510" points="284.12,-429.5 284.12,-459 376.62,-459 376.62,-429.5 284.12,-429.5"/>
<text xml:space="preserve" text-anchor="start" x="289.12" y="-441.7" font-family="monospace" font-weight="bold" font-size="14.00">type:</text>
<text xml:space="preserve" text-anchor="start" x="330.38" y="-441.7" font-family="monospace" font-size="14.00"> CTRL</text>
<polygon fill="#101510" fill-opacity="0.203922" stroke="none" points="284.12,-400 284.12,-429.5 376.62,-429.5 376.62,-400 284.12,-400"/>
<polygon fill="none" stroke="#101510" points="284.12,-400 284.12,-429.5 376.62,-429.5 376.62,-400 284.12,-400"/>
<text xml:space="preserve" text-anchor="start" x="297.38" y="-412.2" font-family="monospace" font-weight="bold" font-size="14.00">value:</text>
<text xml:space="preserve" text-anchor="start" x="346.88" y="-412.2" font-family="monospace" font-size="14.00"> ;</text>
</g>
<!-- node0x7c33fe3e3350&#45;&gt;node0x7c33fe3e34d0 -->
<g id="edge4" class="edge">
<title>node0x7c33fe3e3350&#45;&gt;node0x7c33fe3e34d0</title>
<path fill="none" stroke="#2222e0" stroke-width="2.5" d="M230.69,-516.25C230.69,-516.25 230.69,-430 230.69,-430 230.69,-430 264.24,-430 264.24,-430"/>
<polygon fill="#2222e0" stroke="#2222e0" stroke-width="2.5" points="230.69,-524.25 227.09,-516.25 229.94,-523.29 229.94,-516.25 230.69,-516.25 231.44,-516.25 231.44,-523.29 234.29,-516.25 230.69,-524.25"/>
<polygon fill="#2222e0" stroke="#2222e0" stroke-width="2.5" points="272.24,-430 264.24,-433.6 271.28,-430.75 264.24,-430.75 264.24,-430 264.24,-429.25 271.28,-429.25 264.24,-426.4 272.24,-430"/>
</g>
<!-- node0x7c33fe3e3290 -->
<g id="node3" class="node">
<title>node0x7c33fe3e3290</title>
<path fill="#fab387" stroke="#101510" stroke-width="2.1" d="M104.75,-331C104.75,-331 12,-331 12,-331 6,-331 0,-325 0,-319 0,-319 0,-276 0,-276 0,-270 6,-264 12,-264 12,-264 104.75,-264 104.75,-264 110.75,-264 116.75,-270 116.75,-276 116.75,-276 116.75,-319 116.75,-319 116.75,-325 110.75,-331 104.75,-331"/>
<polygon fill="#101510" fill-opacity="0.203922" stroke="none" points="8,-297.5 8,-327 108.75,-327 108.75,-297.5 8,-297.5"/>
<polygon fill="none" stroke="#101510" points="8,-297.5 8,-327 108.75,-327 108.75,-297.5 8,-297.5"/>
<text xml:space="preserve" text-anchor="start" x="17.13" y="-309.7" font-family="monospace" font-weight="bold" font-size="14.00">type:</text>
<text xml:space="preserve" text-anchor="start" x="58.38" y="-309.7" font-family="monospace" font-size="14.00"> TYPE</text>
<polygon fill="#101510" fill-opacity="0.203922" stroke="none" points="8,-268 8,-297.5 108.75,-297.5 108.75,-268 8,-268"/>
<polygon fill="none" stroke="#101510" points="8,-268 8,-297.5 108.75,-297.5 108.75,-268 8,-268"/>
<text xml:space="preserve" text-anchor="start" x="13" y="-280.2" font-family="monospace" font-weight="bold" font-size="14.00">value:</text>
<text xml:space="preserve" text-anchor="start" x="62.5" y="-280.2" font-family="monospace" font-size="14.00"> prim</text>
</g>
<!-- node0x7c33fe3e3310&#45;&gt;node0x7c33fe3e3290 -->
<g id="edge2" class="edge">
<title>node0x7c33fe3e3310&#45;&gt;node0x7c33fe3e3290</title>
<path fill="none" stroke="#2222e0" stroke-width="2.5" d="M97.38,-384.12C97.38,-384.12 97.38,-342.71 97.38,-342.71"/>
<polygon fill="#2222e0" stroke="#2222e0" stroke-width="2.5" points="97.38,-392.12 93.78,-384.12 96.63,-391.16 96.63,-384.12 97.38,-384.12 98.13,-384.12 98.13,-391.16 100.98,-384.12 97.38,-392.12"/>
<polygon fill="#2222e0" stroke="#2222e0" stroke-width="2.5" points="97.38,-334.71 100.98,-342.71 98.13,-335.66 98.13,-342.71 97.38,-342.71 96.63,-342.71 96.63,-335.66 93.78,-342.71 97.38,-334.71"/>
</g>
<!-- node0x7c33fe3e32d0 -->
<g id="node4" class="node">
<title>node0x7c33fe3e32d0</title>
<path fill="#b581f4" stroke="#101510" stroke-width="2.1" d="M261.75,-331C261.75,-331 169,-331 169,-331 163,-331 157,-325 157,-319 157,-319 157,-276 157,-276 157,-270 163,-264 169,-264 169,-264 261.75,-264 261.75,-264 267.75,-264 273.75,-270 273.75,-276 273.75,-276 273.75,-319 273.75,-319 273.75,-325 267.75,-331 261.75,-331"/>
<polygon fill="#101510" fill-opacity="0.203922" stroke="none" points="165,-297.5 165,-327 265.75,-327 265.75,-297.5 165,-297.5"/>
<polygon fill="none" stroke="#101510" points="165,-297.5 165,-327 265.75,-327 265.75,-297.5 165,-297.5"/>
<text xml:space="preserve" text-anchor="start" x="170" y="-309.7" font-family="monospace" font-weight="bold" font-size="14.00">type:</text>
<text xml:space="preserve" text-anchor="start" x="211.25" y="-309.7" font-family="monospace" font-size="14.00"> IDENT</text>
<polygon fill="#101510" fill-opacity="0.203922" stroke="none" points="165,-268 165,-297.5 265.75,-297.5 265.75,-268 165,-268"/>
<polygon fill="none" stroke="#101510" points="165,-268 165,-297.5 265.75,-297.5 265.75,-268 165,-268"/>
<text xml:space="preserve" text-anchor="start" x="170" y="-280.2" font-family="monospace" font-weight="bold" font-size="14.00">value:</text>
<text xml:space="preserve" text-anchor="start" x="219.5" y="-280.2" font-family="monospace" font-size="14.00"> 1var</text>
</g>
<!-- node0x7c33fe3e3310&#45;&gt;node0x7c33fe3e32d0 -->
<g id="edge3" class="edge">
<title>node0x7c33fe3e3310&#45;&gt;node0x7c33fe3e32d0</title>
<path fill="none" stroke="#2222e0" stroke-width="2.5" d="M175.88,-384.12C175.88,-384.12 175.88,-342.71 175.88,-342.71"/>
<polygon fill="#2222e0" stroke="#2222e0" stroke-width="2.5" points="175.88,-392.12 172.28,-384.12 175.13,-391.16 175.13,-384.12 175.88,-384.12 176.63,-384.12 176.63,-391.16 179.48,-384.12 175.88,-392.12"/>
<polygon fill="#2222e0" stroke="#2222e0" stroke-width="2.5" points="175.88,-334.71 179.48,-342.71 176.63,-335.66 176.63,-342.71 175.88,-342.71 175.13,-342.71 175.13,-335.66 172.28,-342.71 175.88,-334.71"/>
</g>
<!-- node0x7c33fe3e3490 -->
<g id="node6" class="node">
<title>node0x7c33fe3e3490</title>
<path fill="#f9e2af" stroke="#101510" stroke-width="2.1" d="M418.75,-331C418.75,-331 326,-331 326,-331 320,-331 314,-325 314,-319 314,-319 314,-276 314,-276 314,-270 320,-264 326,-264 326,-264 418.75,-264 418.75,-264 424.75,-264 430.75,-270 430.75,-276 430.75,-276 430.75,-319 430.75,-319 430.75,-325 424.75,-331 418.75,-331"/>
<polygon fill="#101510" fill-opacity="0.203922" stroke="none" points="322,-297.5 322,-327 422.75,-327 422.75,-297.5 322,-297.5"/>
<polygon fill="none" stroke="#101510" points="322,-297.5 322,-327 422.75,-327 422.75,-297.5 322,-297.5"/>
<text xml:space="preserve" text-anchor="start" x="331.12" y="-309.7" font-family="monospace" font-weight="bold" font-size="14.00">type:</text>
<text xml:space="preserve" text-anchor="start" x="372.38" y="-309.7" font-family="monospace" font-size="14.00"> CTRL</text>
<polygon fill="#101510" fill-opacity="0.203922" stroke="none" points="322,-268 322,-297.5 422.75,-297.5 422.75,-268 322,-268"/>
<polygon fill="none" stroke="#101510" points="322,-268 322,-297.5 422.75,-297.5 422.75,-268 322,-268"/>
<text xml:space="preserve" text-anchor="start" x="327" y="-280.2" font-family="monospace" font-weight="bold" font-size="14.00">value:</text>
<text xml:space="preserve" text-anchor="start" x="376.5" y="-280.2" font-family="monospace" font-size="14.00"> decl</text>
</g>
<!-- node0x7c33fe3e34d0&#45;&gt;node0x7c33fe3e3490 -->
<g id="edge5" class="edge">
<title>node0x7c33fe3e34d0&#45;&gt;node0x7c33fe3e3490</title>
<path fill="none" stroke="#2222e0" stroke-width="2.5" d="M349.31,-384.12C349.31,-384.12 349.31,-342.71 349.31,-342.71"/>
<polygon fill="#2222e0" stroke="#2222e0" stroke-width="2.5" points="349.31,-392.12 345.71,-384.12 348.56,-391.16 348.56,-384.12 349.31,-384.12 350.06,-384.12 350.06,-391.16 352.91,-384.12 349.31,-392.12"/>
<polygon fill="#2222e0" stroke="#2222e0" stroke-width="2.5" points="349.31,-334.71 352.91,-342.71 350.06,-335.66 350.06,-342.71 349.31,-342.71 348.56,-342.71 348.56,-335.66 345.71,-342.71 349.31,-334.71"/>
</g>
<!-- node0x7c33fe3e3390 -->
<g id="node7" class="node">
<title>node0x7c33fe3e3390</title>
<path fill="#fab387" stroke="#101510" stroke-width="2.1" d="M341.75,-199C341.75,-199 249,-199 249,-199 243,-199 237,-193 237,-187 237,-187 237,-144 237,-144 237,-138 243,-132 249,-132 249,-132 341.75,-132 341.75,-132 347.75,-132 353.75,-138 353.75,-144 353.75,-144 353.75,-187 353.75,-187 353.75,-193 347.75,-199 341.75,-199"/>
<polygon fill="#101510" fill-opacity="0.203922" stroke="none" points="245,-165.5 245,-195 345.75,-195 345.75,-165.5 245,-165.5"/>
<polygon fill="none" stroke="#101510" points="245,-165.5 245,-195 345.75,-195 345.75,-165.5 245,-165.5"/>
<text xml:space="preserve" text-anchor="start" x="254.12" y="-177.7" font-family="monospace" font-weight="bold" font-size="14.00">type:</text>
<text xml:space="preserve" text-anchor="start" x="295.38" y="-177.7" font-family="monospace" font-size="14.00"> TYPE</text>
<polygon fill="#101510" fill-opacity="0.203922" stroke="none" points="245,-136 245,-165.5 345.75,-165.5 345.75,-136 245,-136"/>
<polygon fill="none" stroke="#101510" points="245,-136 245,-165.5 345.75,-165.5 345.75,-136 245,-136"/>
<text xml:space="preserve" text-anchor="start" x="250" y="-148.2" font-family="monospace" font-weight="bold" font-size="14.00">value:</text>
<text xml:space="preserve" text-anchor="start" x="299.5" y="-148.2" font-family="monospace" font-size="14.00"> prim</text>
</g>
<!-- node0x7c33fe3e3490&#45;&gt;node0x7c33fe3e3390 -->
<g id="edge6" class="edge">
<title>node0x7c33fe3e3490&#45;&gt;node0x7c33fe3e3390</title>
<path fill="none" stroke="#2222e0" stroke-width="2.5" d="M333.88,-252.12C333.88,-252.12 333.88,-210.71 333.88,-210.71"/>
<polygon fill="#2222e0" stroke="#2222e0" stroke-width="2.5" points="333.88,-260.12 330.28,-252.12 333.13,-259.16 333.13,-252.12 333.88,-252.12 334.63,-252.12 334.63,-259.16 337.48,-252.12 333.88,-260.12"/>
<polygon fill="#2222e0" stroke="#2222e0" stroke-width="2.5" points="333.88,-202.71 337.48,-210.71 334.63,-203.66 334.63,-210.71 333.88,-210.71 333.13,-210.71 333.13,-203.66 330.28,-210.71 333.88,-202.71"/>
</g>
<!-- node0x7c33fe3e3450 -->
<g id="node8" class="node">
<title>node0x7c33fe3e3450</title>
<path fill="#f9e2af" stroke="#101510" stroke-width="2.1" d="M490.62,-199C490.62,-199 406.12,-199 406.12,-199 400.12,-199 394.12,-193 394.12,-187 394.12,-187 394.12,-144 394.12,-144 394.12,-138 400.12,-132 406.12,-132 406.12,-132 490.62,-132 490.62,-132 496.62,-132 502.62,-138 502.62,-144 502.62,-144 502.62,-187 502.62,-187 502.62,-193 496.62,-199 490.62,-199"/>
<polygon fill="#101510" fill-opacity="0.203922" stroke="none" points="402.12,-165.5 402.12,-195 494.62,-195 494.62,-165.5 402.12,-165.5"/>
<polygon fill="none" stroke="#101510" points="402.12,-165.5 402.12,-195 494.62,-195 494.62,-165.5 402.12,-165.5"/>
<text xml:space="preserve" text-anchor="start" x="407.12" y="-177.7" font-family="monospace" font-weight="bold" font-size="14.00">type:</text>
<text xml:space="preserve" text-anchor="start" x="448.38" y="-177.7" font-family="monospace" font-size="14.00"> CTRL</text>
<polygon fill="#101510" fill-opacity="0.203922" stroke="none" points="402.12,-136 402.12,-165.5 494.62,-165.5 494.62,-136 402.12,-136"/>
<polygon fill="none" stroke="#101510" points="402.12,-136 402.12,-165.5 494.62,-165.5 494.62,-136 402.12,-136"/>
<text xml:space="preserve" text-anchor="start" x="415.38" y="-148.2" font-family="monospace" font-weight="bold" font-size="14.00">value:</text>
<text xml:space="preserve" text-anchor="start" x="464.88" y="-148.2" font-family="monospace" font-size="14.00"> =</text>
</g>
<!-- node0x7c33fe3e3490&#45;&gt;node0x7c33fe3e3450 -->
<g id="edge7" class="edge">
<title>node0x7c33fe3e3490&#45;&gt;node0x7c33fe3e3450</title>
<path fill="none" stroke="#2222e0" stroke-width="2.5" d="M412.44,-252.12C412.44,-252.12 412.44,-210.71 412.44,-210.71"/>
<polygon fill="#2222e0" stroke="#2222e0" stroke-width="2.5" points="412.44,-260.12 408.84,-252.12 411.69,-259.16 411.69,-252.12 412.44,-252.12 413.19,-252.12 413.19,-259.16 416.04,-252.12 412.44,-260.12"/>
<polygon fill="#2222e0" stroke="#2222e0" stroke-width="2.5" points="412.44,-202.71 416.04,-210.71 413.19,-203.66 413.19,-210.71 412.44,-210.71 411.69,-210.71 411.69,-203.66 408.84,-210.71 412.44,-202.71"/>
</g>
<!-- node0x7c33fe3e33d0 -->
<g id="node9" class="node">
<title>node0x7c33fe3e33d0</title>
<path fill="#b581f4" stroke="#101510" stroke-width="2.1" d="M415.75,-67C415.75,-67 323,-67 323,-67 317,-67 311,-61 311,-55 311,-55 311,-12 311,-12 311,-6 317,0 323,0 323,0 415.75,0 415.75,0 421.75,0 427.75,-6 427.75,-12 427.75,-12 427.75,-55 427.75,-55 427.75,-61 421.75,-67 415.75,-67"/>
<polygon fill="#101510" fill-opacity="0.203922" stroke="none" points="319,-33.5 319,-63 419.75,-63 419.75,-33.5 319,-33.5"/>
<polygon fill="none" stroke="#101510" points="319,-33.5 319,-63 419.75,-63 419.75,-33.5 319,-33.5"/>
<text xml:space="preserve" text-anchor="start" x="324" y="-45.7" font-family="monospace" font-weight="bold" font-size="14.00">type:</text>
<text xml:space="preserve" text-anchor="start" x="365.25" y="-45.7" font-family="monospace" font-size="14.00"> IDENT</text>
<polygon fill="#101510" fill-opacity="0.203922" stroke="none" points="319,-4 319,-33.5 419.75,-33.5 419.75,-4 319,-4"/>
<polygon fill="none" stroke="#101510" points="319,-4 319,-33.5 419.75,-33.5 419.75,-4 319,-4"/>
<text xml:space="preserve" text-anchor="start" x="324" y="-16.2" font-family="monospace" font-weight="bold" font-size="14.00">value:</text>
<text xml:space="preserve" text-anchor="start" x="373.5" y="-16.2" font-family="monospace" font-size="14.00"> 2var</text>
</g>
<!-- node0x7c33fe3e3450&#45;&gt;node0x7c33fe3e33d0 -->
<g id="edge8" class="edge">
<title>node0x7c33fe3e3450&#45;&gt;node0x7c33fe3e33d0</title>
<path fill="none" stroke="#2222e0" stroke-width="2.5" d="M410.94,-120.12C410.94,-120.12 410.94,-78.71 410.94,-78.71"/>
<polygon fill="#2222e0" stroke="#2222e0" stroke-width="2.5" points="410.94,-128.12 407.34,-120.12 410.19,-127.16 410.19,-120.12 410.94,-120.12 411.69,-120.12 411.69,-127.16 414.54,-120.12 410.94,-128.12"/>
<polygon fill="#2222e0" stroke="#2222e0" stroke-width="2.5" points="410.94,-70.71 414.54,-78.71 411.69,-71.66 411.69,-78.71 410.94,-78.71 410.19,-78.71 410.19,-71.66 407.34,-78.71 410.94,-70.71"/>
</g>
<!-- node0x7c33fe3e3410 -->
<g id="node10" class="node">
<title>node0x7c33fe3e3410</title>
<path fill="#b581f4" stroke="#101510" stroke-width="2.1" d="M572.75,-67C572.75,-67 480,-67 480,-67 474,-67 468,-61 468,-55 468,-55 468,-12 468,-12 468,-6 474,0 480,0 480,0 572.75,0 572.75,0 578.75,0 584.75,-6 584.75,-12 584.75,-12 584.75,-55 584.75,-55 584.75,-61 578.75,-67 572.75,-67"/>
<polygon fill="#101510" fill-opacity="0.203922" stroke="none" points="476,-33.5 476,-63 576.75,-63 576.75,-33.5 476,-33.5"/>
<polygon fill="none" stroke="#101510" points="476,-33.5 476,-63 576.75,-63 576.75,-33.5 476,-33.5"/>
<text xml:space="preserve" text-anchor="start" x="481" y="-45.7" font-family="monospace" font-weight="bold" font-size="14.00">type:</text>
<text xml:space="preserve" text-anchor="start" x="522.25" y="-45.7" font-family="monospace" font-size="14.00"> IDENT</text>
<polygon fill="#101510" fill-opacity="0.203922" stroke="none" points="476,-4 476,-33.5 576.75,-33.5 576.75,-4 476,-4"/>
<polygon fill="none" stroke="#101510" points="476,-4 476,-33.5 576.75,-33.5 576.75,-4 476,-4"/>
<text xml:space="preserve" text-anchor="start" x="481" y="-16.2" font-family="monospace" font-weight="bold" font-size="14.00">value:</text>
<text xml:space="preserve" text-anchor="start" x="530.5" y="-16.2" font-family="monospace" font-size="14.00"> 1var</text>
</g>
<!-- node0x7c33fe3e3450&#45;&gt;node0x7c33fe3e3410 -->
<g id="edge9" class="edge">
<title>node0x7c33fe3e3450&#45;&gt;node0x7c33fe3e3410</title>
<path fill="none" stroke="#2222e0" stroke-width="2.5" d="M485.31,-120.12C485.31,-120.12 485.31,-78.71 485.31,-78.71"/>
<polygon fill="#2222e0" stroke="#2222e0" stroke-width="2.5" points="485.31,-128.12 481.71,-120.12 484.56,-127.16 484.56,-120.12 485.31,-120.12 486.06,-120.12 486.06,-127.16 488.91,-120.12 485.31,-128.12"/>
<polygon fill="#2222e0" stroke="#2222e0" stroke-width="2.5" points="485.31,-70.71 488.91,-78.71 486.06,-71.66 486.06,-78.71 485.31,-78.71 484.56,-78.71 484.56,-71.66 481.71,-78.71 485.31,-70.71"/>
</g>
</g>
</svg>
