<?xml version="1.0" encoding="UTF-8" standalone="no"?>
<!DOCTYPE svg PUBLIC "-//W3C//DTD SVG 1.1//EN"
 "http://www.w3.org/Graphics/SVG/1.1/DTD/svg11.dtd">
<!-- Generated by graphviz version 14.1.2 (0)
 -->
<!-- Title: G Pages: 1 -->
<svg width="1135pt" height="853pt"
 viewBox="0.00 0.00 1135.00 853.00" xmlns="http://www.w3.org/2000/svg" xmlns:xlink="http://www.w3.org/1999/xlink">
<g id="graph0" class="graph" transform="scale(1 1) rotate(0) translate(18 835)">
<title>G</title>
<polygon fill="#ffffff" stroke="none" points="-18,18 -18,-835 1116.88,-835 1116.88,18 -18,18"/>
<!-- node0x7b4bd83e0c50 -->
<g id="node1" class="node">
<title>node0x7b4bd83e0c50</title>
<path fill="#98d26b" stroke="#101510" stroke-width="2.1" d="M513.12,-817C513.12,-817 162.88,-817 162.88,-817 156.88,-817 150.88,-811 150.88,-805 150.88,-805 150.88,-673.5 150.88,-673.5 150.88,-667.5 156.88,-661.5 162.88,-661.5 162.88,-661.5 513.12,-661.5 513.12,-661.5 519.12,-661.5 525.12,-667.5 525.12,-673.5 525.12,-673.5 525.12,-805 525.12,-805 525.12,-811 519.12,-817 513.12,-817"/>
<polygon fill="#101510" fill-opacity="0.203922" stroke="none" points="158.88,-783.5 158.88,-813 517.12,-813 517.12,-783.5 158.88,-783.5"/>
<polygon fill="none" stroke="#101510" points="158.88,-783.5 158.88,-813 517.12,-813 517.12,-783.5 158.88,-783.5"/>
<text xml:space="preserve" text-anchor="start" x="284.38" y="-795.7" font-family="monospace" font-weight="bold" font-size="14.00">parent:</text>
<text xml:space="preserve" text-anchor="start" x="342.12" y="-795.7" font-family="monospace" font-size="14.00"> (nil)</text>
<polygon fill="#101510" fill-opacity="0.203922" stroke="none" points="158.88,-754 158.88,-783.5 517.12,-783.5 517.12,-754 158.88,-754"/>
<polygon fill="none" stroke="#101510" points="158.88,-754 158.88,-783.5 517.12,-783.5 517.12,-754 158.88,-754"/>
<text xml:space="preserve" text-anchor="start" x="305" y="-766.2" font-family="monospace" font-weight="bold" font-size="14.00">type:</text>
<text xml:space="preserve" text-anchor="start" x="346.25" y="-766.2" font-family="monospace" font-size="14.00"> OP</text>
<polygon fill="#101510" fill-opacity="0.203922" stroke="none" points="158.88,-724.5 158.88,-754 517.12,-754 517.12,-724.5 158.88,-724.5"/>
<polygon fill="none" stroke="#101510" points="158.88,-724.5 158.88,-754 517.12,-754 517.12,-724.5 158.88,-724.5"/>
<text xml:space="preserve" text-anchor="start" x="305" y="-736.7" font-family="monospace" font-weight="bold" font-size="14.00">value:</text>
<text xml:space="preserve" text-anchor="start" x="354.5" y="-736.7" font-family="monospace" font-size="14.00"> &#45;</text>
<polygon fill="#101510" fill-opacity="0.203922" stroke="none" points="158.88,-695 158.88,-724.5 517.12,-724.5 517.12,-695 158.88,-695"/>
<polygon fill="none" stroke="#101510" points="158.88,-695 158.88,-724.5 517.12,-724.5 517.12,-695 158.88,-695"/>
<text xml:space="preserve" text-anchor="start" x="243.12" y="-707.2" font-family="monospace" font-weight="bold" font-size="14.00">address:</text>
<text xml:space="preserve" text-anchor="start" x="309.12" y="-707.2" font-family="monospace" font-size="14.00"> 0x7b4bd83e0c50</text>
<polygon fill="#101510" fill-opacity="0.203922" stroke="none" points="158.88,-665.5 158.88,-695 333.88,-695 333.88,-665.5 158.88,-665.5"/>
<polygon fill="none" stroke="#101510" points="158.88,-665.5 158.88,-695 333.88,-695 333.88,-665.5 158.88,-665.5"/>
<text xml:space="preserve" text-anchor="start" x="163.88" y="-677.7" font-family="monospace" font-weight="bold" font-size="14.00">left:</text>
<text xml:space="preserve" text-anchor="start" x="205.12" y="-677.7" font-family="monospace" font-size="14.00"> 0x7b4bd83e0c10</text>
<polygon fill="#101510" fill-opacity="0.203922" stroke="none" points="333.88,-665.5 333.88,-695 517.12,-695 517.12,-665.5 333.88,-665.5"/>
<polygon fill="none" stroke="#101510" points="333.88,-665.5 333.88,-695 517.12,-695 517.12,-665.5 333.88,-665.5"/>
<text xml:space="preserve" text-anchor="start" x="338.88" y="-677.7" font-family="monospace" font-weight="bold" font-size="14.00">right:</text>
<text xml:space="preserve" text-anchor="start" x="388.38" y="-677.7" font-family="monospace" font-size="14.00"> 0x7b4bd83e0a10</text>
</g>
<!-- node0x7b4bd83e0c10 -->
<g id="node2" class="node">
<title>node0x7b4bd83e0c10</title>
<path fill="#98d26b" stroke="#101510" stroke-width="2.1" d="M288,-596.5C288,-596.5 12,-596.5 12,-596.5 6,-596.5 0,-590.5 0,-584.5 0,-584.5 0,-453 0,-453 0,-447 6,-441 12,-441 12,-441 288,-441 288,-441 294,-441 300,-447 300,-453 300,-453 300,-584.5 300,-584.5 300,-590.5 294,-596.5 288,-596.5"/>
<polygon fill="#101510" fill-opacity="0.203922" stroke="none" points="8,-563 8,-592.5 292,-592.5 292,-563 8,-563"/>
<polygon fill="none" stroke="#101510" points="8,-563 8,-592.5 292,-592.5 292,-563 8,-563"/>
<text xml:space="preserve" text-anchor="start" x="59.25" y="-575.2" font-family="monospace" font-weight="bold" font-size="14.00">parent:</text>
<text xml:space="preserve" text-anchor="start" x="117" y="-575.2" font-family="monospace" font-size="14.00"> 0x7b4bd83e0c50</text>
<polygon fill="#101510" fill-opacity="0.203922" stroke="none" points="8,-533.5 8,-563 292,-563 292,-533.5 8,-533.5"/>
<polygon fill="none" stroke="#101510" points="8,-533.5 8,-563 292,-563 292,-533.5 8,-533.5"/>
<text xml:space="preserve" text-anchor="start" x="117" y="-545.7" font-family="monospace" font-weight="bold" font-size="14.00">type:</text>
<text xml:space="preserve" text-anchor="start" x="158.25" y="-545.7" font-family="monospace" font-size="14.00"> OP</text>
<polygon fill="#101510" fill-opacity="0.203922" stroke="none" points="8,-504 8,-533.5 292,-533.5 292,-504 8,-504"/>
<polygon fill="none" stroke="#101510" points="8,-504 8,-533.5 292,-533.5 292,-504 8,-504"/>
<text xml:space="preserve" text-anchor="start" x="117" y="-516.2" font-family="monospace" font-weight="bold" font-size="14.00">value:</text>
<text xml:space="preserve" text-anchor="start" x="166.5" y="-516.2" font-family="monospace" font-size="14.00"> &#45;</text>
<polygon fill="#101510" fill-opacity="0.203922" stroke="none" points="8,-474.5 8,-504 292,-504 292,-474.5 8,-474.5"/>
<polygon fill="none" stroke="#101510" points="8,-474.5 8,-504 292,-504 292,-474.5 8,-474.5"/>
<text xml:space="preserve" text-anchor="start" x="55.12" y="-486.7" font-family="monospace" font-weight="bold" font-size="14.00">address:</text>
<text xml:space="preserve" text-anchor="start" x="121.12" y="-486.7" font-family="monospace" font-size="14.00"> 0x7b4bd83e0c10</text>
<polygon fill="#101510" fill-opacity="0.203922" stroke="none" points="8,-445 8,-474.5 108.75,-474.5 108.75,-445 8,-445"/>
<polygon fill="none" stroke="#101510" points="8,-445 8,-474.5 108.75,-474.5 108.75,-445 8,-445"/>
<text xml:space="preserve" text-anchor="start" x="13" y="-457.2" font-family="monospace" font-weight="bold" font-size="14.00">left:</text>
<text xml:space="preserve" text-anchor="start" x="54.25" y="-457.2" font-family="monospace" font-size="14.00"> (nil)</text>
<polygon fill="#101510" fill-opacity="0.203922" stroke="none" points="108.75,-445 108.75,-474.5 292,-474.5 292,-445 108.75,-445"/>
<polygon fill="none" stroke="#101510" points="108.75,-445 108.75,-474.5 292,-474.5 292,-445 108.75,-445"/>
<text xml:space="preserve" text-anchor="start" x="113.75" y="-457.2" font-family="monospace" font-weight="bold" font-size="14.00">right:</text>
<text xml:space="preserve" text-anchor="start" x="163.25" y="-457.2" font-family="monospace" font-size="14.00"> 0x7b4bd83e0ad0</text>
</g>
<!-- node0x7b4bd83e0c50&#45;&gt;node0x7b4bd83e0c10 -->
<g id="edge1" class="edge">
<title>node0x7b4bd83e0c50&#45;&gt;node0x7b4bd83e0c10</title>
<path fill="none" stroke="#2222e0" stroke-width="2.5" d="M225.44,-649.53C225.44,-649.53 225.44,-608.44 225.44,-608.44"/>
<polygon fill="#2222e0" stroke="#2222e0" stroke-width="2.5" points="225.44,-657.53 221.84,-649.53 224.69,-656.58 224.69,-649.53 225.44,-649.53 226.19,-649.53 226.19,-656.58 229.04,-649.53 225.44,-657.53"/>
<polygon fill="#2222e0" stroke="#2222e0" stroke-width="2.5" points="225.44,-600.44 229.04,-608.44 226.19,-601.39 226.19,-608.44 225.44,-608.44 224.69,-608.44 224.69,-601.39 221.84,-608.44 225.44,-600.44"/>
</g>
<!-- node0x7b4bd83e0a10 -->
<g id="node4" class="node">
<title>node0x7b4bd83e0a10</title>
<path fill="#98d26b" stroke="#101510" stroke-width="2.1" d="M759.12,-596.5C759.12,-596.5 408.88,-596.5 408.88,-596.5 402.88,-596.5 396.88,-590.5 396.88,-584.5 396.88,-584.5 396.88,-453 396.88,-453 396.88,-447 402.88,-441 408.88,-441 408.88,-441 759.12,-441 759.12,-441 765.12,-441 771.12,-447 771.12,-453 771.12,-453 771.12,-584.5 771.12,-584.5 771.12,-590.5 765.12,-596.5 759.12,-596.5"/>
<polygon fill="#101510" fill-opacity="0.203922" stroke="none" points="404.88,-563 404.88,-592.5 763.12,-592.5 763.12,-563 404.88,-563"/>
<polygon fill="none" stroke="#101510" points="404.88,-563 404.88,-592.5 763.12,-592.5 763.12,-563 404.88,-563"/>
<text xml:space="preserve" text-anchor="start" x="493.25" y="-575.2" font-family="monospace" font-weight="bold" font-size="14.00">parent:</text>
<text xml:space="preserve" text-anchor="start" x="551" y="-575.2" font-family="monospace" font-size="14.00"> 0x7b4bd83e0c50</text>
<polygon fill="#101510" fill-opacity="0.203922" stroke="none" points="404.88,-533.5 404.88,-563 763.12,-563 763.12,-533.5 404.88,-533.5"/>
<polygon fill="none" stroke="#101510" points="404.88,-533.5 404.88,-563 763.12,-563 763.12,-533.5 404.88,-533.5"/>
<text xml:space="preserve" text-anchor="start" x="551" y="-545.7" font-family="monospace" font-weight="bold" font-size="14.00">type:</text>
<text xml:space="preserve" text-anchor="start" x="592.25" y="-545.7" font-family="monospace" font-size="14.00"> OP</text>
<polygon fill="#101510" fill-opacity="0.203922" stroke="none" points="404.88,-504 404.88,-533.5 763.12,-533.5 763.12,-504 404.88,-504"/>
<polygon fill="none" stroke="#101510" points="404.88,-504 404.88,-533.5 763.12,-533.5 763.12,-504 404.88,-504"/>
<text xml:space="preserve" text-anchor="start" x="551" y="-516.2" font-family="monospace" font-weight="bold" font-size="14.00">value:</text>
<text xml:space="preserve" text-anchor="start" x="600.5" y="-516.2" font-family="monospace" font-size="14.00"> /</text>
<polygon fill="#101510" fill-opacity="0.203922" stroke="none" points="404.88,-474.5 404.88,-504 763.12,-504 763.12,-474.5 404.88,-474.5"/>
<polygon fill="none" stroke="#101510" points="404.88,-474.5 404.88,-504 763.12,-504 763.12,-474.5 404.88,-474.5"/>
<text xml:space="preserve" text-anchor="start" x="489.12" y="-486.7" font-family="monospace" font-weight="bold" font-size="14.00">address:</text>
<text xml:space="preserve" text-anchor="start" x="555.12" y="-486.7" font-family="monospace" font-size="14.00"> 0x7b4bd83e0a10</text>
<polygon fill="#101510" fill-opacity="0.203922" stroke="none" points="404.88,-445 404.88,-474.5 579.88,-474.5 579.88,-445 404.88,-445"/>
<polygon fill="none" stroke="#101510" points="404.88,-445 404.88,-474.5 579.88,-474.5 579.88,-445 404.88,-445"/>
<text xml:space="preserve" text-anchor="start" x="409.88" y="-457.2" font-family="monospace" font-weight="bold" font-size="14.00">left:</text>
<text xml:space="preserve" text-anchor="start" x="451.12" y="-457.2" font-family="monospace" font-size="14.00"> 0x7b4bd83e09d0</text>
<polygon fill="#101510" fill-opacity="0.203922" stroke="none" points="579.88,-445 579.88,-474.5 763.12,-474.5 763.12,-445 579.88,-445"/>
<polygon fill="none" stroke="#101510" points="579.88,-445 579.88,-474.5 763.12,-474.5 763.12,-445 579.88,-445"/>
<text xml:space="preserve" text-anchor="start" x="584.88" y="-457.2" font-family="monospace" font-weight="bold" font-size="14.00">right:</text>
<text xml:space="preserve" text-anchor="start" x="634.38" y="-457.2" font-family="monospace" font-size="14.00"> 0x7b4bd83e0810</text>
</g>
<!-- node0x7b4bd83e0c50&#45;&gt;node0x7b4bd83e0a10 -->
<g id="edge3" class="edge">
<title>node0x7b4bd83e0c50&#45;&gt;node0x7b4bd83e0a10</title>
<path fill="none" stroke="#2222e0" stroke-width="2.5" d="M461,-649.53C461,-649.53 461,-608.44 461,-608.44"/>
<polygon fill="#2222e0" stroke="#2222e0" stroke-width="2.5" points="461,-657.53 457.4,-649.53 460.25,-656.58 460.25,-649.53 461,-649.53 461.75,-649.53 461.75,-656.58 464.6,-649.53 461,-657.53"/>
<polygon fill="#2222e0" stroke="#2222e0" stroke-width="2.5" points="461,-600.44 464.6,-608.44 461.75,-601.39 461.75,-608.44 461,-608.44 460.25,-608.44 460.25,-601.39 457.4,-608.44 461,-600.44"/>
</g>
<!-- node0x7b4bd83e0ad0 -->
<g id="node3" class="node">
<title>node0x7b4bd83e0ad0</title>
<path fill="#7ca0ce" stroke="#101510" stroke-width="2.1" d="M277.88,-376C277.88,-376 76.12,-376 76.12,-376 70.12,-376 64.12,-370 64.12,-364 64.12,-364 64.12,-232.5 64.12,-232.5 64.12,-226.5 70.12,-220.5 76.12,-220.5 76.12,-220.5 277.88,-220.5 277.88,-220.5 283.88,-220.5 289.88,-226.5 289.88,-232.5 289.88,-232.5 289.88,-364 289.88,-364 289.88,-370 283.88,-376 277.88,-376"/>
<polygon fill="#101510" fill-opacity="0.203922" stroke="none" points="72.12,-342.5 72.12,-372 281.88,-372 281.88,-342.5 72.12,-342.5"/>
<polygon fill="none" stroke="#101510" points="72.12,-342.5 72.12,-372 281.88,-372 281.88,-342.5 72.12,-342.5"/>
<text xml:space="preserve" text-anchor="start" x="86.25" y="-354.7" font-family="monospace" font-weight="bold" font-size="14.00">parent:</text>
<text xml:space="preserve" text-anchor="start" x="144" y="-354.7" font-family="monospace" font-size="14.00"> 0x7b4bd83e0c10</text>
<polygon fill="#101510" fill-opacity="0.203922" stroke="none" points="72.12,-313 72.12,-342.5 281.88,-342.5 281.88,-313 72.12,-313"/>
<polygon fill="none" stroke="#101510" points="72.12,-313 72.12,-342.5 281.88,-342.5 281.88,-313 72.12,-313"/>
<text xml:space="preserve" text-anchor="start" x="139.88" y="-325.2" font-family="monospace" font-weight="bold" font-size="14.00">type:</text>
<text xml:space="preserve" text-anchor="start" x="181.12" y="-325.2" font-family="monospace" font-size="14.00"> NUM</text>
<polygon fill="#101510" fill-opacity="0.203922" stroke="none" points="72.12,-283.5 72.12,-313 281.88,-313 281.88,-283.5 72.12,-283.5"/>
<polygon fill="none" stroke="#101510" points="72.12,-283.5 72.12,-313 281.88,-313 281.88,-283.5 72.12,-283.5"/>
<text xml:space="preserve" text-anchor="start" x="106.88" y="-295.7" font-family="monospace" font-weight="bold" font-size="14.00">value:</text>
<text xml:space="preserve" text-anchor="start" x="156.38" y="-295.7" font-family="monospace" font-size="14.00"> 100.000000</text>
<polygon fill="#101510" fill-opacity="0.203922" stroke="none" points="72.12,-254 72.12,-283.5 281.88,-283.5 281.88,-254 72.12,-254"/>
<polygon fill="none" stroke="#101510" points="72.12,-254 72.12,-283.5 281.88,-283.5 281.88,-254 72.12,-254"/>
<text xml:space="preserve" text-anchor="start" x="82.12" y="-266.2" font-family="monospace" font-weight="bold" font-size="14.00">address:</text>
<text xml:space="preserve" text-anchor="start" x="148.12" y="-266.2" font-family="monospace" font-size="14.00"> 0x7b4bd83e0ad0</text>
<polygon fill="#101510" fill-opacity="0.203922" stroke="none" points="72.12,-224.5 72.12,-254 172.88,-254 172.88,-224.5 72.12,-224.5"/>
<polygon fill="none" stroke="#101510" points="72.12,-224.5 72.12,-254 172.88,-254 172.88,-224.5 72.12,-224.5"/>
<text xml:space="preserve" text-anchor="start" x="77.12" y="-236.7" font-family="monospace" font-weight="bold" font-size="14.00">left:</text>
<text xml:space="preserve" text-anchor="start" x="118.38" y="-236.7" font-family="monospace" font-size="14.00"> (nil)</text>
<polygon fill="#101510" fill-opacity="0.203922" stroke="none" points="172.88,-224.5 172.88,-254 281.88,-254 281.88,-224.5 172.88,-224.5"/>
<polygon fill="none" stroke="#101510" points="172.88,-224.5 172.88,-254 281.88,-254 281.88,-224.5 172.88,-224.5"/>
<text xml:space="preserve" text-anchor="start" x="177.88" y="-236.7" font-family="monospace" font-weight="bold" font-size="14.00">right:</text>
<text xml:space="preserve" text-anchor="start" x="227.38" y="-236.7" font-family="monospace" font-size="14.00"> (nil)</text>
</g>
<!-- node0x7b4bd83e0c10&#45;&gt;node0x7b4bd83e0ad0 -->
<g id="edge2" class="edge">
<title>node0x7b4bd83e0c10&#45;&gt;node0x7b4bd83e0ad0</title>
<path fill="none" stroke="#2222e0" stroke-width="2.5" d="M177,-429.03C177,-429.03 177,-387.94 177,-387.94"/>
<polygon fill="#2222e0" stroke="#2222e0" stroke-width="2.5" points="177,-437.03 173.4,-429.03 176.25,-436.08 176.25,-429.03 177,-429.03 177.75,-429.03 177.75,-436.08 180.6,-429.03 177,-437.03"/>
<polygon fill="#2222e0" stroke="#2222e0" stroke-width="2.5" points="177,-379.94 180.6,-387.94 177.75,-380.89 177.75,-387.94 177,-387.94 176.25,-387.94 176.25,-380.89 173.4,-387.94 177,-379.94"/>
</g>
<!-- node0x7b4bd83e09d0 -->
<g id="node5" class="node">
<title>node0x7b4bd83e09d0</title>
<path fill="#7ca0ce" stroke="#101510" stroke-width="2.1" d="M613.88,-376C613.88,-376 412.12,-376 412.12,-376 406.12,-376 400.12,-370 400.12,-364 400.12,-364 400.12,-232.5 400.12,-232.5 400.12,-226.5 406.12,-220.5 412.12,-220.5 412.12,-220.5 613.88,-220.5 613.88,-220.5 619.88,-220.5 625.88,-226.5 625.88,-232.5 625.88,-232.5 625.88,-364 625.88,-364 625.88,-370 619.88,-376 613.88,-376"/>
<polygon fill="#101510" fill-opacity="0.203922" stroke="none" points="408.12,-342.5 408.12,-372 617.88,-372 617.88,-342.5 408.12,-342.5"/>
<polygon fill="none" stroke="#101510" points="408.12,-342.5 408.12,-372 617.88,-372 617.88,-342.5 408.12,-342.5"/>
<text xml:space="preserve" text-anchor="start" x="422.25" y="-354.7" font-family="monospace" font-weight="bold" font-size="14.00">parent:</text>
<text xml:space="preserve" text-anchor="start" x="480" y="-354.7" font-family="monospace" font-size="14.00"> 0x7b4bd83e0a10</text>
<polygon fill="#101510" fill-opacity="0.203922" stroke="none" points="408.12,-313 408.12,-342.5 617.88,-342.5 617.88,-313 408.12,-313"/>
<polygon fill="none" stroke="#101510" points="408.12,-313 408.12,-342.5 617.88,-342.5 617.88,-313 408.12,-313"/>
<text xml:space="preserve" text-anchor="start" x="475.88" y="-325.2" font-family="monospace" font-weight="bold" font-size="14.00">type:</text>
<text xml:space="preserve" text-anchor="start" x="517.12" y="-325.2" font-family="monospace" font-size="14.00"> NUM</text>
<polygon fill="#101510" fill-opacity="0.203922" stroke="none" points="408.12,-283.5 408.12,-313 617.88,-313 617.88,-283.5 408.12,-283.5"/>
<polygon fill="none" stroke="#101510" points="408.12,-283.5 408.12,-313 617.88,-313 617.88,-283.5 408.12,-283.5"/>
<text xml:space="preserve" text-anchor="start" x="447" y="-295.7" font-family="monospace" font-weight="bold" font-size="14.00">value:</text>
<text xml:space="preserve" text-anchor="start" x="496.5" y="-295.7" font-family="monospace" font-size="14.00"> &#45;7.000000</text>
<polygon fill="#101510" fill-opacity="0.203922" stroke="none" points="408.12,-254 408.12,-283.5 617.88,-283.5 617.88,-254 408.12,-254"/>
<polygon fill="none" stroke="#101510" points="408.12,-254 408.12,-283.5 617.88,-283.5 617.88,-254 408.12,-254"/>
<text xml:space="preserve" text-anchor="start" x="418.12" y="-266.2" font-family="monospace" font-weight="bold" font-size="14.00">address:</text>
<text xml:space="preserve" text-anchor="start" x="484.12" y="-266.2" font-family="monospace" font-size="14.00"> 0x7b4bd83e09d0</text>
<polygon fill="#101510" fill-opacity="0.203922" stroke="none" points="408.12,-224.5 408.12,-254 508.88,-254 508.88,-224.5 408.12,-224.5"/>
<polygon fill="none" stroke="#101510" points="408.12,-224.5 408.12,-254 508.88,-254 508.88,-224.5 408.12,-224.5"/>
<text xml:space="preserve" text-anchor="start" x="413.12" y="-236.7" font-family="monospace" font-weight="bold" font-size="14.00">left:</text>
<text xml:space="preserve" text-anchor="start" x="454.38" y="-236.7" font-family="monospace" font-size="14.00"> (nil)</text>
<polygon fill="#101510" fill-opacity="0.203922" stroke="none" points="508.88,-224.5 508.88,-254 617.88,-254 617.88,-224.5 508.88,-224.5"/>
<polygon fill="none" stroke="#101510" points="508.88,-224.5 508.88,-254 617.88,-254 617.88,-224.5 508.88,-224.5"/>
<text xml:space="preserve" text-anchor="start" x="513.88" y="-236.7" font-family="monospace" font-weight="bold" font-size="14.00">right:</text>
<text xml:space="preserve" text-anchor="start" x="563.38" y="-236.7" font-family="monospace" font-size="14.00"> (nil)</text>
</g>
<!-- node0x7b4bd83e0a10&#45;&gt;node0x7b4bd83e09d0 -->
<g id="edge4" class="edge">
<title>node0x7b4bd83e0a10&#45;&gt;node0x7b4bd83e09d0</title>
<path fill="none" stroke="#2222e0" stroke-width="2.5" d="M513,-429.03C513,-429.03 513,-387.94 513,-387.94"/>
<polygon fill="#2222e0" stroke="#2222e0" stroke-width="2.5" points="513,-437.03 509.4,-429.03 512.25,-436.08 512.25,-429.03 513,-429.03 513.75,-429.03 513.75,-436.08 516.6,-429.03 513,-437.03"/>
<polygon fill="#2222e0" stroke="#2222e0" stroke-width="2.5" points="513,-379.94 516.6,-387.94 513.75,-380.89 513.75,-387.94 513,-387.94 512.25,-387.94 512.25,-380.89 509.4,-387.94 513,-379.94"/>
</g>
<!-- node0x7b4bd83e0810 -->
<g id="node6" class="node">
<title>node0x7b4bd83e0810</title>
<path fill="#98d26b" stroke="#101510" stroke-width="2.1" d="M1028.12,-376C1028.12,-376 677.88,-376 677.88,-376 671.88,-376 665.88,-370 665.88,-364 665.88,-364 665.88,-232.5 665.88,-232.5 665.88,-226.5 671.88,-220.5 677.88,-220.5 677.88,-220.5 1028.12,-220.5 1028.12,-220.5 1034.12,-220.5 1040.12,-226.5 1040.12,-232.5 1040.12,-232.5 1040.12,-364 1040.12,-364 1040.12,-370 1034.12,-376 1028.12,-376"/>
<polygon fill="#101510" fill-opacity="0.203922" stroke="none" points="673.88,-342.5 673.88,-372 1032.12,-372 1032.12,-342.5 673.88,-342.5"/>
<polygon fill="none" stroke="#101510" points="673.88,-342.5 673.88,-372 1032.12,-372 1032.12,-342.5 673.88,-342.5"/>
<text xml:space="preserve" text-anchor="start" x="762.25" y="-354.7" font-family="monospace" font-weight="bold" font-size="14.00">parent:</text>
<text xml:space="preserve" text-anchor="start" x="820" y="-354.7" font-family="monospace" font-size="14.00"> 0x7b4bd83e0a10</text>
<polygon fill="#101510" fill-opacity="0.203922" stroke="none" points="673.88,-313 673.88,-342.5 1032.12,-342.5 1032.12,-313 673.88,-313"/>
<polygon fill="none" stroke="#101510" points="673.88,-313 673.88,-342.5 1032.12,-342.5 1032.12,-313 673.88,-313"/>
<text xml:space="preserve" text-anchor="start" x="820" y="-325.2" font-family="monospace" font-weight="bold" font-size="14.00">type:</text>
<text xml:space="preserve" text-anchor="start" x="861.25" y="-325.2" font-family="monospace" font-size="14.00"> OP</text>
<polygon fill="#101510" fill-opacity="0.203922" stroke="none" points="673.88,-283.5 673.88,-313 1032.12,-313 1032.12,-283.5 673.88,-283.5"/>
<polygon fill="none" stroke="#101510" points="673.88,-283.5 673.88,-313 1032.12,-313 1032.12,-283.5 673.88,-283.5"/>
<text xml:space="preserve" text-anchor="start" x="820" y="-295.7" font-family="monospace" font-weight="bold" font-size="14.00">value:</text>
<text xml:space="preserve" text-anchor="start" x="869.5" y="-295.7" font-family="monospace" font-size="14.00"> ^</text>
<polygon fill="#101510" fill-opacity="0.203922" stroke="none" points="673.88,-254 673.88,-283.5 1032.12,-283.5 1032.12,-254 673.88,-254"/>
<polygon fill="none" stroke="#101510" points="673.88,-254 673.88,-283.5 1032.12,-283.5 1032.12,-254 673.88,-254"/>
<text xml:space="preserve" text-anchor="start" x="758.12" y="-266.2" font-family="monospace" font-weight="bold" font-size="14.00">address:</text>
<text xml:space="preserve" text-anchor="start" x="824.12" y="-266.2" font-family="monospace" font-size="14.00"> 0x7b4bd83e0810</text>
<polygon fill="#101510" fill-opacity="0.203922" stroke="none" points="673.88,-224.5 673.88,-254 848.88,-254 848.88,-224.5 673.88,-224.5"/>
<polygon fill="none" stroke="#101510" points="673.88,-224.5 673.88,-254 848.88,-254 848.88,-224.5 673.88,-224.5"/>
<text xml:space="preserve" text-anchor="start" x="678.88" y="-236.7" font-family="monospace" font-weight="bold" font-size="14.00">left:</text>
<text xml:space="preserve" text-anchor="start" x="720.12" y="-236.7" font-family="monospace" font-size="14.00"> 0x7b4bd83e07d0</text>
<polygon fill="#101510" fill-opacity="0.203922" stroke="none" points="848.88,-224.5 848.88,-254 1032.12,-254 1032.12,-224.5 848.88,-224.5"/>
<polygon fill="none" stroke="#101510" points="848.88,-224.5 848.88,-254 1032.12,-254 1032.12,-224.5 848.88,-224.5"/>
<text xml:space="preserve" text-anchor="start" x="853.88" y="-236.7" font-family="monospace" font-weight="bold" font-size="14.00">right:</text>
<text xml:space="preserve" text-anchor="start" x="903.38" y="-236.7" font-family="monospace" font-size="14.00"> 0x7b4bd83e0790</text>
</g>
<!-- node0x7b4bd83e0a10&#45;&gt;node0x7b4bd83e0810 -->
<g id="edge5" class="edge">
<title>node0x7b4bd83e0a10&#45;&gt;node0x7b4bd83e0810</title>
<path fill="none" stroke="#2222e0" stroke-width="2.5" d="M718.5,-429.03C718.5,-429.03 718.5,-387.94 718.5,-387.94"/>
<polygon fill="#2222e0" stroke="#2222e0" stroke-width="2.5" points="718.5,-437.03 714.9,-429.03 717.75,-436.08 717.75,-429.03 718.5,-429.03 719.25,-429.03 719.25,-436.08 722.1,-429.03 718.5,-437.03"/>
<polygon fill="#2222e0" stroke="#2222e0" stroke-width="2.5" points="718.5,-379.94 722.1,-387.94 719.25,-380.89 719.25,-387.94 718.5,-387.94 717.75,-387.94 717.75,-380.89 714.9,-387.94 718.5,-379.94"/>
</g>
<!-- node0x7b4bd83e07d0 -->
<g id="node7" class="node">
<title>node0x7b4bd83e07d0</title>
<path fill="#8673ba" stroke="#101510" stroke-width="2.1" d="M820.88,-155.5C820.88,-155.5 619.12,-155.5 619.12,-155.5 613.12,-155.5 607.12,-149.5 607.12,-143.5 607.12,-143.5 607.12,-12 607.12,-12 607.12,-6 613.12,0 619.12,0 619.12,0 820.88,0 820.88,0 826.88,0 832.88,-6 832.88,-12 832.88,-12 832.88,-143.5 832.88,-143.5 832.88,-149.5 826.88,-155.5 820.88,-155.5"/>
<polygon fill="#101510" fill-opacity="0.203922" stroke="none" points="615.12,-122 615.12,-151.5 824.88,-151.5 824.88,-122 615.12,-122"/>
<polygon fill="none" stroke="#101510" points="615.12,-122 615.12,-151.5 824.88,-151.5 824.88,-122 615.12,-122"/>
<text xml:space="preserve" text-anchor="start" x="629.25" y="-134.2" font-family="monospace" font-weight="bold" font-size="14.00">parent:</text>
<text xml:space="preserve" text-anchor="start" x="687" y="-134.2" font-family="monospace" font-size="14.00"> 0x7b4bd83e0810</text>
<polygon fill="#101510" fill-opacity="0.203922" stroke="none" points="615.12,-92.5 615.12,-122 824.88,-122 824.88,-92.5 615.12,-92.5"/>
<polygon fill="none" stroke="#101510" points="615.12,-92.5 615.12,-122 824.88,-122 824.88,-92.5 615.12,-92.5"/>
<text xml:space="preserve" text-anchor="start" x="682.88" y="-104.7" font-family="monospace" font-weight="bold" font-size="14.00">type:</text>
<text xml:space="preserve" text-anchor="start" x="724.12" y="-104.7" font-family="monospace" font-size="14.00"> VAR</text>
<polygon fill="#101510" fill-opacity="0.203922" stroke="none" points="615.12,-63 615.12,-92.5 824.88,-92.5 824.88,-63 615.12,-63"/>
<polygon fill="none" stroke="#101510" points="615.12,-63 615.12,-92.5 824.88,-92.5 824.88,-63 615.12,-63"/>
<text xml:space="preserve" text-anchor="start" x="687" y="-75.2" font-family="monospace" font-weight="bold" font-size="14.00">value:</text>
<text xml:space="preserve" text-anchor="start" x="736.5" y="-75.2" font-family="monospace" font-size="14.00"> x</text>
<polygon fill="#101510" fill-opacity="0.203922" stroke="none" points="615.12,-33.5 615.12,-63 824.88,-63 824.88,-33.5 615.12,-33.5"/>
<polygon fill="none" stroke="#101510" points="615.12,-33.5 615.12,-63 824.88,-63 824.88,-33.5 615.12,-33.5"/>
<text xml:space="preserve" text-anchor="start" x="625.12" y="-45.7" font-family="monospace" font-weight="bold" font-size="14.00">address:</text>
<text xml:space="preserve" text-anchor="start" x="691.12" y="-45.7" font-family="monospace" font-size="14.00"> 0x7b4bd83e07d0</text>
<polygon fill="#101510" fill-opacity="0.203922" stroke="none" points="615.12,-4 615.12,-33.5 715.88,-33.5 715.88,-4 615.12,-4"/>
<polygon fill="none" stroke="#101510" points="615.12,-4 615.12,-33.5 715.88,-33.5 715.88,-4 615.12,-4"/>
<text xml:space="preserve" text-anchor="start" x="620.12" y="-16.2" font-family="monospace" font-weight="bold" font-size="14.00">left:</text>
<text xml:space="preserve" text-anchor="start" x="661.38" y="-16.2" font-family="monospace" font-size="14.00"> (nil)</text>
<polygon fill="#101510" fill-opacity="0.203922" stroke="none" points="715.88,-4 715.88,-33.5 824.88,-33.5 824.88,-4 715.88,-4"/>
<polygon fill="none" stroke="#101510" points="715.88,-4 715.88,-33.5 824.88,-33.5 824.88,-4 715.88,-4"/>
<text xml:space="preserve" text-anchor="start" x="720.88" y="-16.2" font-family="monospace" font-weight="bold" font-size="14.00">right:</text>
<text xml:space="preserve" text-anchor="start" x="770.38" y="-16.2" font-family="monospace" font-size="14.00"> (nil)</text>
</g>
<!-- node0x7b4bd83e0810&#45;&gt;node0x7b4bd83e07d0 -->
<g id="edge6" class="edge">
<title>node0x7b4bd83e0810&#45;&gt;node0x7b4bd83e07d0</title>
<path fill="none" stroke="#2222e0" stroke-width="2.5" d="M749.38,-208.53C749.38,-208.53 749.38,-167.44 749.38,-167.44"/>
<polygon fill="#2222e0" stroke="#2222e0" stroke-width="2.5" points="749.38,-216.53 745.78,-208.53 748.63,-215.58 748.63,-208.53 749.38,-208.53 750.13,-208.53 750.13,-215.58 752.98,-208.53 749.38,-216.53"/>
<polygon fill="#2222e0" stroke="#2222e0" stroke-width="2.5" points="749.38,-159.44 752.98,-167.44 750.13,-160.39 750.13,-167.44 749.38,-167.44 748.63,-167.44 748.63,-160.39 745.78,-167.44 749.38,-159.44"/>
</g>
<!-- node0x7b4bd83e0790 -->
<g id="node8" class="node">
<title>node0x7b4bd83e0790</title>
<path fill="#7ca0ce" stroke="#101510" stroke-width="2.1" d="M1086.88,-155.5C1086.88,-155.5 885.12,-155.5 885.12,-155.5 879.12,-155.5 873.12,-149.5 873.12,-143.5 873.12,-143.5 873.12,-12 873.12,-12 873.12,-6 879.12,0 885.12,0 885.12,0 1086.88,0 1086.88,0 1092.88,0 1098.88,-6 1098.88,-12 1098.88,-12 1098.88,-143.5 1098.88,-143.5 1098.88,-149.5 1092.88,-155.5 1086.88,-155.5"/>
<polygon fill="#101510" fill-opacity="0.203922" stroke="none" points="881.12,-122 881.12,-151.5 1090.88,-151.5 1090.88,-122 881.12,-122"/>
<polygon fill="none" stroke="#101510" points="881.12,-122 881.12,-151.5 1090.88,-151.5 1090.88,-122 881.12,-122"/>
<text xml:space="preserve" text-anchor="start" x="895.25" y="-134.2" font-family="monospace" font-weight="bold" font-size="14.00">parent:</text>
<text xml:space="preserve" text-anchor="start" x="953" y="-134.2" font-family="monospace" font-size="14.00"> 0x7b4bd83e0810</text>
<polygon fill="#101510" fill-opacity="0.203922" stroke="none" points="881.12,-92.5 881.12,-122 1090.88,-122 1090.88,-92.5 881.12,-92.5"/>
<polygon fill="none" stroke="#101510" points="881.12,-92.5 881.12,-122 1090.88,-122 1090.88,-92.5 881.12,-92.5"/>
<text xml:space="preserve" text-anchor="start" x="948.88" y="-104.7" font-family="monospace" font-weight="bold" font-size="14.00">type:</text>
<text xml:space="preserve" text-anchor="start" x="990.12" y="-104.7" font-family="monospace" font-size="14.00"> NUM</text>
<polygon fill="#101510" fill-opacity="0.203922" stroke="none" points="881.12,-63 881.12,-92.5 1090.88,-92.5 1090.88,-63 881.12,-63"/>
<polygon fill="none" stroke="#101510" points="881.12,-63 881.12,-92.5 1090.88,-92.5 1090.88,-63 881.12,-63"/>
<text xml:space="preserve" text-anchor="start" x="924.12" y="-75.2" font-family="monospace" font-weight="bold" font-size="14.00">value:</text>
<text xml:space="preserve" text-anchor="start" x="973.62" y="-75.2" font-family="monospace" font-size="14.00"> 2.000000</text>
<polygon fill="#101510" fill-opacity="0.203922" stroke="none" points="881.12,-33.5 881.12,-63 1090.88,-63 1090.88,-33.5 881.12,-33.5"/>
<polygon fill="none" stroke="#101510" points="881.12,-33.5 881.12,-63 1090.88,-63 1090.88,-33.5 881.12,-33.5"/>
<text xml:space="preserve" text-anchor="start" x="891.12" y="-45.7" font-family="monospace" font-weight="bold" font-size="14.00">address:</text>
<text xml:space="preserve" text-anchor="start" x="957.12" y="-45.7" font-family="monospace" font-size="14.00"> 0x7b4bd83e0790</text>
<polygon fill="#101510" fill-opacity="0.203922" stroke="none" points="881.12,-4 881.12,-33.5 981.88,-33.5 981.88,-4 881.12,-4"/>
<polygon fill="none" stroke="#101510" points="881.12,-4 881.12,-33.5 981.88,-33.5 981.88,-4 881.12,-4"/>
<text xml:space="preserve" text-anchor="start" x="886.12" y="-16.2" font-family="monospace" font-weight="bold" font-size="14.00">left:</text>
<text xml:space="preserve" text-anchor="start" x="927.38" y="-16.2" font-family="monospace" font-size="14.00"> (nil)</text>
<polygon fill="#101510" fill-opacity="0.203922" stroke="none" points="981.88,-4 981.88,-33.5 1090.88,-33.5 1090.88,-4 981.88,-4"/>
<polygon fill="none" stroke="#101510" points="981.88,-4 981.88,-33.5 1090.88,-33.5 1090.88,-4 981.88,-4"/>
<text xml:space="preserve" text-anchor="start" x="986.88" y="-16.2" font-family="monospace" font-weight="bold" font-size="14.00">right:</text>
<text xml:space="preserve" text-anchor="start" x="1036.38" y="-16.2" font-family="monospace" font-size="14.00"> (nil)</text>
</g>
<!-- node0x7b4bd83e0810&#45;&gt;node0x7b4bd83e0790 -->
<g id="edge7" class="edge">
<title>node0x7b4bd83e0810&#45;&gt;node0x7b4bd83e0790</title>
<path fill="none" stroke="#2222e0" stroke-width="2.5" d="M956.62,-208.53C956.62,-208.53 956.62,-167.44 956.62,-167.44"/>
<polygon fill="#2222e0" stroke="#2222e0" stroke-width="2.5" points="956.63,-216.53 953.03,-208.53 955.88,-215.58 955.88,-208.53 956.63,-208.53 957.38,-208.53 957.38,-215.58 960.23,-208.53 956.63,-216.53"/>
<polygon fill="#2222e0" stroke="#2222e0" stroke-width="2.5" points="956.63,-159.44 960.23,-167.44 957.38,-160.39 957.38,-167.44 956.63,-167.44 955.88,-167.44 955.88,-160.39 953.03,-167.44 956.63,-159.44"/>
</g>
</g>
</svg>
